<svg width="23" height="22" viewBox="0 0 23 22" fill="none" xmlns="http://www.w3.org/2000/svg">
<path d="M14.7 7.25H14.5656L14.4395 7.29669L12.75 7.92243V3C12.75 2.30964 13.3096 1.75 14 1.75H19C19.6904 1.75 20.25 2.30964 20.25 3V6C20.25 6.69036 19.6904 7.25 19 7.25H14.7Z" fill="#261204" stroke="#261204" stroke-width="1.5"/>
<circle cx="7.55713" cy="11.6138" r="3.87744" fill="#261204" stroke="#261204" stroke-width="1.5"/>
<path d="M1.73291 20.1076C1.73291 19.0856 2.30076 18.0949 3.34979 17.3317C4.3981 16.569 5.8833 16.0742 7.55744 16.0742C9.23158 16.0742 10.7168 16.569 11.7651 17.3317C12.8141 18.0949 13.382 19.0856 13.382 20.1076V20.3881H7.55744H1.73291V20.1076Z" fill="#261204" stroke="#261204" stroke-width="1.5"/>
</svg>
