<svg width="24" height="25" viewBox="0 0 24 25" fill="none" xmlns="http://www.w3.org/2000/svg">
<path d="M16.75 22.8888H18C20.6234 22.8888 22.75 20.7621 22.75 18.1388V11.4027C22.75 9.99955 22.1296 8.66816 21.0552 7.76564L15.0552 2.72564C13.2887 1.24177 10.7114 1.24177 8.94484 2.72564L2.94484 7.76564C1.87041 8.66816 1.25 9.99955 1.25 11.4027V18.1388C1.25 20.7621 3.37665 22.8888 6 22.8888H7.25H8H16H16.75ZM0.75 0.888794H23.25V23.3888H0.75V0.888794ZM8.75 17.1388C8.75 15.3439 10.2051 13.8888 12 13.8888C13.7949 13.8888 15.25 15.3439 15.25 17.1388V21.3888H8.75V17.1388ZM16.75 21.3888V17.1388C16.75 14.5154 14.6234 12.3888 12 12.3888C9.37665 12.3888 7.25 14.5154 7.25 17.1388V21.3888H6C4.20507 21.3888 2.75 19.9337 2.75 18.1388V11.4027C2.75 10.4427 3.17449 9.53171 3.90963 8.9142L9.90963 3.8742C11.1183 2.85892 12.8817 2.85892 14.0904 3.8742L20.0904 8.9142C20.8255 9.53171 21.25 10.4427 21.25 11.4027V18.1388C21.25 19.9337 19.7949 21.3888 18 21.3888H16.75Z" stroke="#FF7400" stroke-width="1.5"/>
</svg>
