<svg width="24" height="24" viewBox="0 0 24 24" fill="none" xmlns="http://www.w3.org/2000/svg">
<path d="M5 9.75H9.47529C10.7179 9.75 11.7253 10.7574 11.7253 12V22.25H5C3.75736 22.25 2.75 21.2426 2.75 20V12C2.75 10.7574 3.75736 9.75 5 9.75Z" stroke="#261204" stroke-width="1.5"/>
<path d="M14 2.75H19C20.2426 2.75 21.25 3.75736 21.25 5V20C21.25 21.2426 20.2426 22.25 19 22.25H11.75V5C11.75 3.75736 12.7574 2.75 14 2.75Z" stroke="#261204" stroke-width="1.5"/>
<path d="M8.94707 22.118V16.8729C8.94707 15.9286 8.18154 15.1631 7.23721 15.1631V15.1631C6.29287 15.1631 5.52734 15.9286 5.52734 16.8729V22.118" stroke="#261204" stroke-width="1.5"/>
<path d="M16 5.94141H17C17.6904 5.94141 18.25 6.50105 18.25 7.19141V10.8085C18.25 11.4989 17.6904 12.0585 17 12.0585H16C15.3096 12.0585 14.75 11.4989 14.75 10.8085V7.19141C14.75 6.50105 15.3096 5.94141 16 5.94141Z" stroke="#261204" stroke-width="1.5"/>
<path d="M16 15.174H17C17.6904 15.174 18.25 15.7336 18.25 16.424V17.424C18.25 18.1143 17.6904 18.674 17 18.674H16C15.3096 18.674 14.75 18.1143 14.75 17.424V16.424C14.75 15.7336 15.3096 15.174 16 15.174Z" stroke="#261204" stroke-width="1.5"/>
</svg>
