<svg width="30" height="30" viewBox="0 0 30 30" fill="none" xmlns="http://www.w3.org/2000/svg">
<path d="M2.37228 21.2054C1.72616 17.1029 4.17707 13.1445 8.13752 11.8942C9.31762 11.5216 10.393 11.7564 10.8942 12.524C11.643 13.6712 12.2709 15.2844 12.747 17.1148C13.3779 19.541 12.6543 21.7449 11.1248 23.3854C9.58342 25.0386 7.21832 26.1172 4.6179 26.1949C3.78742 26.2198 3.06804 25.6232 2.93879 24.8025L2.37228 21.2054Z" fill="#FF7400" stroke="#261204" stroke-width="1.5"/>
<path d="M27.6327 21.1481C28.2824 17.0877 25.8653 13.1624 21.947 11.9148C20.724 11.5254 19.6039 11.7665 19.0853 12.5709C18.3489 13.7132 17.7295 15.303 17.2568 17.1025C16.6199 19.5271 17.3381 21.7328 18.8636 23.377C20.4009 25.034 22.7633 26.1184 25.3635 26.2025C26.1939 26.2294 26.9148 25.6346 27.0461 24.8142L27.6327 21.1481Z" fill="#FF7400" stroke="#261204" stroke-width="1.5"/>
<path fill-rule="evenodd" clip-rule="evenodd" d="M11.8754 5.56604C11.8754 3.84015 13.2745 2.44104 15.0004 2.44104C16.7263 2.44104 18.1254 3.84015 18.1254 5.56604V10.7798C18.1254 12.2669 18.8928 13.6487 20.1551 14.4348L21.8044 15.4617C23.1311 16.2879 23.4316 18.0909 22.4445 19.3027C21.6195 20.3154 20.1704 20.5569 19.0616 19.8665L17.4858 18.8853C15.9643 17.9379 14.0365 17.9379 12.5149 18.8853L10.9392 19.8665C9.8304 20.5569 8.38123 20.3154 7.55628 19.3027C6.56916 18.0909 6.86965 16.2879 8.1964 15.4617L9.84566 14.4348C11.108 13.6487 11.8754 12.2669 11.8754 10.7798V5.56604Z" fill="#FF7400"/>
<path d="M12.8765 7.47192H17.1125" stroke="#261204" stroke-width="1.5" stroke-linecap="round"/>
<path d="M12.8765 11.2457H17.1125" stroke="#261204" stroke-width="1.5" stroke-linecap="round"/>
<path fill-rule="evenodd" clip-rule="evenodd" d="M11.8754 5.56604C11.8754 3.84015 13.2745 2.44104 15.0004 2.44104C16.7263 2.44104 18.1254 3.84015 18.1254 5.56604V10.7798C18.1254 12.2669 18.8928 13.6487 20.1551 14.4348L21.8044 15.4617C23.1311 16.2879 23.4316 18.0909 22.4445 19.3027C21.6195 20.3154 20.1704 20.5569 19.0616 19.8665L17.4858 18.8853C15.9643 17.9379 14.0365 17.9379 12.5149 18.8853L10.9392 19.8665C9.8304 20.5569 8.38123 20.3154 7.55628 19.3027C6.56916 18.0909 6.86965 16.2879 8.1964 15.4617L9.84566 14.4348C11.108 13.6487 11.8754 12.2669 11.8754 10.7798V5.56604ZM15.0004 4.31604C14.31 4.31604 13.7504 4.87568 13.7504 5.56604V12.5196C13.7504 13.5722 13.2072 14.5504 12.3136 15.1068L9.23103 17.0263C8.78584 17.3035 8.7773 17.9486 9.215 18.2375C9.44963 18.3923 9.75297 18.3963 9.99161 18.2477L12.3397 16.7856C13.9685 15.7714 16.0322 15.7714 17.661 16.7856L20.0092 18.2477C20.2478 18.3963 20.5511 18.3923 20.7858 18.2375C21.2235 17.9486 21.2149 17.3035 20.7697 17.0263L17.6872 15.1068C16.7936 14.5504 16.2504 13.5722 16.2504 12.5196V5.56604C16.2504 4.87568 15.6907 4.31604 15.0004 4.31604Z" fill="#261204"/>
<path d="M5.36776 19.6266C5.38364 20.3155 5.86316 21.8568 7.65421 22.5108" stroke="white" stroke-width="1.5" stroke-linecap="round"/>
<path d="M24.6308 19.6266C24.6149 20.3155 24.1354 21.8568 22.3443 22.5108" stroke="white" stroke-width="1.5" stroke-linecap="round"/>
</svg>
