<svg width="30" height="30" viewBox="0 0 30 30" fill="none" xmlns="http://www.w3.org/2000/svg">
<rect x="9.5" y="3.25" width="11" height="4.75" rx="1.25" fill="white" stroke="#261204" stroke-width="1.5"/>
<path d="M13.1919 3.79529V7.54102" stroke="#261204" stroke-width="1.5"/>
<path d="M17.0464 3.79529V7.54102" stroke="#261204" stroke-width="1.5"/>
<path d="M22.5 23.25V11.4166C22.5 9.75977 21.1569 8.41663 19.5 8.41663H10.5C8.84315 8.41663 7.5 9.75977 7.5 11.4166V23.25C7.5 24.9068 8.84315 26.25 10.5 26.25H19.5C21.1569 26.25 22.5 24.9068 22.5 23.25Z" fill="#FF7400" stroke="#261204" stroke-width="1.5"/>
<path d="M22.5 20.335V14.5222C22.5 13.9699 22.0523 13.5222 21.5 13.5222H8.5C7.94772 13.5222 7.5 13.9699 7.5 14.5222V20.335C7.5 20.8873 7.94772 21.335 8.5 21.335H21.5C22.0523 21.335 22.5 20.8873 22.5 20.335Z" fill="#261204" stroke="#261204" stroke-width="1.5"/>
<path d="M12.7511 20.9066L15.0527 17.2482L12.5718 17.1233L16.203 13.6703L15.2166 15.5964L17.9637 15.7346L12.7511 20.9066Z" fill="white"/>
</svg>
