<svg width="30" height="30" viewBox="0 0 30 30" fill="none" xmlns="http://www.w3.org/2000/svg">
<rect x="12.0576" y="8.85413" width="5.88513" height="3.051" rx="1.25" fill="#FF7400" stroke="#261204" stroke-width="1.5"/>
<rect x="13.6768" y="6.37" width="2.64602" height="2.2127" fill="white" stroke="#261204" stroke-width="1.5"/>
<path d="M10.75 4.14368C10.75 3.45332 11.3096 2.89368 12 2.89368H18.6211C18.809 2.89368 18.9945 2.93606 19.1638 3.01767L21.6207 4.202C22.0507 4.40924 22.3279 4.85173 22.3279 5.33445C22.3279 6.17254 21.5257 6.77615 20.7343 6.54989L19.5536 6.21232C19.3078 6.14203 19.0533 6.10637 18.7977 6.10637H12C11.3096 6.10637 10.75 5.54673 10.75 4.85637V4.14368Z" fill="white" stroke="#261204" stroke-width="1.5"/>
<path d="M21.4402 24.3238V15.0101C21.4402 13.3533 20.0971 12.0101 18.4402 12.0101H11.5596C9.90272 12.0101 8.55957 13.3533 8.55957 15.0101V24.3238C8.55957 25.9807 9.90272 27.3238 11.5596 27.3238H18.4402C20.0971 27.3238 21.4402 25.9806 21.4402 24.3238Z" fill="#FF7400" stroke="#261204" stroke-width="1.5"/>
<path d="M21.4402 22.1033V17.3944C21.4402 16.8421 20.9925 16.3944 20.4402 16.3944H9.55957C9.00729 16.3944 8.55957 16.8421 8.55957 17.3944V22.1033C8.55957 22.6556 9.00729 23.1033 9.55957 23.1033H20.4402C20.9925 23.1033 21.4402 22.6556 21.4402 22.1033Z" fill="#261204" stroke="#261204" stroke-width="1.5"/>
<path d="M15 18V22" stroke="white" stroke-width="1.5" stroke-linecap="round"/>
<path d="M17 20L13 20" stroke="white" stroke-width="1.5" stroke-linecap="round"/>
</svg>
