<svg width="31" height="30" viewBox="0 0 31 30" fill="none" xmlns="http://www.w3.org/2000/svg">
<rect x="10" y="3.25" width="11" height="4.75" rx="1.25" fill="white" stroke="#261204" stroke-width="1.5"/>
<path d="M13.6919 3.79529V7.54102" stroke="#261204" stroke-width="1.5"/>
<path d="M17.5464 3.79529V7.54102" stroke="#261204" stroke-width="1.5"/>
<path d="M23 23.2501V15.0834C23 14.0469 22.465 13.0839 21.5849 12.5363L20.6651 11.9639C19.785 11.4163 19.25 10.4533 19.25 9.41677V7.84277H11.75V9.41677C11.75 10.4533 11.215 11.4163 10.3349 11.9639L9.41509 12.5363C8.53504 13.0839 8 14.0469 8 15.0834V23.2501C8 24.907 9.34315 26.2501 11 26.2501H20C21.6569 26.2501 23 24.907 23 23.2501Z" fill="#FF7400" stroke="#261204" stroke-width="1.5"/>
<path d="M23 20.7374V15.6259C23 15.0736 22.5523 14.6259 22 14.6259H9C8.44772 14.6259 8 15.0736 8 15.6259V20.7374C8 21.2896 8.44772 21.7374 9 21.7374H22C22.5523 21.7374 23 21.2896 23 20.7374Z" fill="#261204" stroke="#261204" stroke-width="1.5"/>
<path d="M17.1069 16.6069L15.5 19.0928L13.8931 16.6069" stroke="white" stroke-width="1.5" stroke-linecap="round"/>
</svg>
