<svg width="30" height="30" viewBox="0 0 30 30" fill="none" xmlns="http://www.w3.org/2000/svg">
<path d="M15.8816 7.58226H12.2521C11.265 7.10295 9.19895 5.68569 8.83203 3.85107H18.7696L21.8783 5.43082L23.2542 7.58226V10.0634L22.5917 12.1578L21.0188 14.5682L19.6205 12.6289C20.7863 10.8569 18.9443 8.94501 16.8816 10.0634V8.58226C16.8816 8.02997 16.4339 7.58226 15.8816 7.58226Z" fill="#261204"/>
<path d="M18.7719 19.5872L21.8163 18.3361L20.8989 14.5829L19.6061 12.9565L19.9814 11.5803L19.0639 10.1207H16.7286V7.99386L12.7251 7.66016L11.9744 10.4543L9.97266 12.6646L10.8484 14.0408L12.3914 14.3743V15.7922L11.5156 17.2935L12.3914 18.3361L15.5192 17.794L15.7694 21.7141L18.7719 19.5872Z" fill="white"/>
<path d="M16.0255 3.49426H8.76855C8.76855 6.14423 11.9744 7.3164 12.3481 7.57124V8.43604C12.3481 9.39073 12.0067 10.3139 11.3854 11.0389L9.71609 12.9869L10.8341 14.2374L11.9854 14.4335C12.8363 14.5784 13.1162 15.6609 12.4422 16.2002L11.6346 16.8463L11.7658 17.3712C11.8929 17.8796 12.391 18.2037 12.9073 18.1139L15.5077 17.6616L15.621 18.4411C15.8148 19.7731 15.7073 21.1316 15.3065 22.4165L14.1827 26.0193H26.6683C26.7319 22.7097 24.6676 20.344 22.9426 19.0774C22.16 18.5027 21.5229 17.7053 21.3541 16.7492L21.0115 14.8078C25.8688 8.76161 22.9036 5.45581 19.7845 4.08874C18.6104 3.57413 17.3074 3.49426 16.0255 3.49426Z" stroke="#261204" stroke-width="1.5"/>
<path d="M26.6682 26.0191C26.7345 22.5724 24.4929 20.1495 22.7301 18.9255C22.0554 18.4569 21.1889 18.4396 20.422 18.7341L19.9836 18.9024C17.4141 19.8889 15.4372 21.9969 14.6177 24.6244L14.1826 26.0191H26.6682Z" fill="#FF7400" stroke="#261204" stroke-width="1.5"/>
<path d="M12.252 7.58203H15.8815C16.4338 7.58203 16.8815 8.02975 16.8815 8.58203V10.0632C18.9442 8.94479 20.7861 10.8567 19.6203 12.6286L21.0187 14.568" stroke="#261204" stroke-width="1.5"/>
<path d="M7.66184 14.5679L6.5789 14.2621L6.03743 14.1093M3.33008 13.3448L4.41302 13.6506L4.95449 13.8035" stroke="#261204" stroke-width="1.5"/>
<path d="M9.26591 18.5858L8.69333 19.5546L8.40704 20.0389M6.97559 22.4607L7.54817 21.492L7.83446 21.0076" stroke="#261204" stroke-width="1.5"/>
<path d="M7.66218 16.7791L6.62701 17.2203M3.52148 18.5439L4.55666 18.1027L5.07424 17.8821L5.59183 17.6615" stroke="#261204" stroke-width="1.5"/>
</svg>
