<svg width="30" height="30" viewBox="0 0 30 30" fill="none" xmlns="http://www.w3.org/2000/svg">
<path fill-rule="evenodd" clip-rule="evenodd" d="M5.54883 15.0836C7.70227 11.5641 11.7271 9.19629 16.337 9.19629C20.9469 9.19629 24.9719 11.5642 27.1253 15.0838C24.9718 18.6032 20.9469 20.971 16.3371 20.971C11.7272 20.971 7.70224 18.6031 5.54883 15.0836Z" fill="white"/>
<path d="M5.54883 15.0836L4.90908 14.6921L4.66958 15.0836L4.90908 15.475L5.54883 15.0836ZM27.1253 15.0838L27.765 15.4752L28.0045 15.0838L27.765 14.6923L27.1253 15.0838ZM6.18857 15.475C8.20427 12.1807 11.9855 9.94629 16.337 9.94629V8.44629C11.4688 8.44629 7.20026 10.9476 4.90908 14.6921L6.18857 15.475ZM16.337 9.94629C20.6886 9.94629 24.4698 12.1808 26.4855 15.4752L27.765 14.6923C25.4739 10.9477 21.2053 8.44629 16.337 8.44629V9.94629ZM26.4855 14.6923C24.4698 17.9866 20.6886 20.221 16.3371 20.221V21.721C21.2053 21.721 25.4738 19.2197 27.765 15.4752L26.4855 14.6923ZM16.3371 20.221C11.9855 20.221 8.20426 17.9865 6.18858 14.6921L4.90908 15.475C7.20022 19.2196 11.4688 21.721 16.3371 21.721V20.221Z" fill="#261204"/>
<circle cx="16.3366" cy="15.0837" r="5.13737" fill="#FF7400" stroke="#261204" stroke-width="1.5"/>
<circle cx="16.3364" cy="15.0836" r="1.60495" stroke="#261204" stroke-width="1.5"/>
<path d="M6.90128 20.9989C6.86763 22.153 5.90472 23.0614 4.75055 23.0278C3.59637 22.9941 2.68801 22.0312 2.72165 20.877C2.72845 20.6439 2.86551 20.1732 3.15303 19.5045C3.42592 18.8699 3.79059 18.1532 4.16085 17.4723C4.43821 16.9623 4.71526 16.4786 4.95327 16.0732C5.16726 16.4918 5.41566 16.9908 5.66284 17.5161C5.99281 18.2174 6.31512 18.9541 6.55058 19.6035C6.79866 20.2879 6.90807 20.7657 6.90128 20.9989Z" fill="#FF7400" stroke="#261204" stroke-width="1.5"/>
</svg>
