<svg width="31" height="30" viewBox="0 0 31 30" fill="none" xmlns="http://www.w3.org/2000/svg">
<path d="M15.1249 19.9022L15.2898 20.6338L15.1249 19.9022C13.5764 20.2511 12.1586 21.0321 11.0362 22.1545L7.52103 25.6697C6.77134 26.4194 5.55584 26.4194 4.80615 25.6697C4.05645 24.9201 4.05645 23.7046 4.80615 22.9549L8.32135 19.4397C9.44376 18.3173 10.2248 16.8995 10.5737 15.351L10.6365 15.0726C10.964 13.6191 11.6971 12.2883 12.7507 11.2348L20.1003 3.88513C21.3695 2.61592 23.4273 2.61592 24.6965 3.88512L26.5908 5.77936C27.86 7.04857 27.86 9.10635 26.5908 10.3756L19.2411 17.7252C18.1876 18.7788 16.8568 19.5119 15.4033 19.8394L15.1249 19.9022Z" fill="#FF7400" stroke="#261204" stroke-width="1.5"/>
<rect x="1.06066" width="3.85376" height="7.04309" rx="1.25" transform="matrix(0.707107 0.707107 0.707107 -0.707107 13.2648 12.9857)" fill="white" stroke="#261204" stroke-width="1.5"/>
<path d="M16.7349 11.4755L19.0002 13.7408" stroke="#261204" stroke-width="1.5"/>
<path d="M4.80569 22.9548L6.47266 21.2878L9.18754 24.0027L7.52058 25.6697C6.77088 26.4194 5.55539 26.4194 4.80569 25.6697C4.056 24.92 4.056 23.7045 4.80569 22.9548Z" fill="white" stroke="#261204" stroke-width="1.5"/>
<path d="M24.6965 3.88512L26.5908 5.77936C27.86 7.04857 27.86 9.10635 26.5908 10.3756L26.2565 10.7098L19.7661 4.21936L20.1003 3.88513C21.3695 2.61592 23.4273 2.61592 24.6965 3.88512Z" fill="#261204" stroke="#261204" stroke-width="1.5"/>
</svg>
