<svg width="30" height="30" viewBox="0 0 30 30" fill="none" xmlns="http://www.w3.org/2000/svg">
<path d="M19.5455 4.25H18.7955V5C18.7955 5.58994 18.3172 6.06818 17.7273 6.06818H11.3636C9.44319 6.06818 7.88636 7.62501 7.88636 9.54545C7.88636 11.4659 9.44319 13.0227 11.3636 13.0227H22.2727C22.3606 13.0227 22.4318 13.094 22.4318 13.1818C22.4318 13.2697 22.3606 13.3409 22.2727 13.3409H7.72727C5.80683 13.3409 4.25 14.8977 4.25 16.8182C4.25 18.7386 5.80683 20.2955 7.72727 20.2955H19.5455C19.6333 20.2955 19.7045 20.3667 19.7045 20.4545C19.7045 20.5424 19.6333 20.6136 19.5455 20.6136H13.1818C10.7593 20.6136 8.79545 22.5775 8.79545 25V25.75H9.54545H11.3636H12.1136V25C12.1136 24.4101 12.5919 23.9318 13.1818 23.9318H19.5455C21.4659 23.9318 23.0227 22.375 23.0227 20.4545C23.0227 18.5341 21.4659 16.9773 19.5455 16.9773H7.72727C7.63941 16.9773 7.56818 16.906 7.56818 16.8182C7.56818 16.7303 7.63941 16.6591 7.72727 16.6591H22.2727C24.1932 16.6591 25.75 15.1023 25.75 13.1818C25.75 11.2614 24.1932 9.70455 22.2727 9.70455H11.3636C11.2758 9.70455 11.2045 9.63332 11.2045 9.54545C11.2045 9.45759 11.2758 9.38636 11.3636 9.38636H17.7273C20.1498 9.38636 22.1136 7.42252 22.1136 5V4.25H21.3636H19.5455Z" fill="#FF7400" stroke="#261204" stroke-width="1.5" stroke-linecap="square"/>
<path d="M16.3636 10.4546H22.2727C23.779 10.4546 25 11.6756 25 13.1819C25 14.6881 23.779 15.9091 22.2727 15.9091H7.72727C7.2252 15.9091 6.81818 16.3162 6.81818 16.8182C6.81818 17.3203 7.2252 17.7273 7.72727 17.7273H14.5455V19.5455H7.72727C6.22104 19.5455 5 18.3245 5 16.8182C5 15.312 6.22104 14.091 7.72727 14.091H22.2727C22.7748 14.091 23.1818 13.6839 23.1818 13.1819C23.1818 12.6798 22.7748 12.2728 22.2727 12.2728H16.3636V10.4546Z" fill="white"/>
</svg>
