<?xml version="1.0" encoding="UTF-8"?>
<svg id="Layer_1" xmlns="http://www.w3.org/2000/svg" version="1.1" viewBox="0 0 1920 1080">
  <!-- Generator: Adobe Illustrator 29.0.1, SVG Export Plug-In . SVG Version: 2.1.0 Build 192)  -->
  <defs>
    <style>
      .st0 {
        fill: #fff;
      }
    </style>
  </defs>
  <path class="st0" d="M1041,399.16v169.94c0,.84-.68,1.53-1.53,1.53h-158.94c-.84,0-1.53-.68-1.53-1.53v-169.94c0-.84.68-1.53,1.53-1.53h158.94c.84,0,1.53.68,1.53,1.53ZM924.85,523.63h67.31c.96,0,1.68-.87,1.5-1.81l-7.93-43.06c-.13-.68-.69-1.19-1.39-1.25l-11.36-.88s0,0,0,0c.82-31.9-29.24-31.69-28.99,0,0,0,0,0,0,0l-10.91.53c-.7.03-1.29.55-1.43,1.24l-8.32,43.41c-.18.94.54,1.82,1.5,1.82Z"/>
  <path d="M923.35,521.81l8.32-43.41c.13-.69.72-1.21,1.43-1.24l10.91-.53s0,0,0,0c-.25-31.69,29.81-31.9,28.99,0,0,0,0,0,0,0l11.36.88c.69.05,1.26.57,1.39,1.25l7.93,43.06c.17.94-.55,1.81-1.5,1.81h-67.31c-.96,0-1.68-.87-1.5-1.82ZM970.02,475.08c-.05-26.34-22.63-25.55-23.03-.02-.01.86.67,1.58,1.53,1.58h19.97c.85,0,1.53-.7,1.53-1.56ZM928.41,520.63h60.73c.96,0,1.69-.88,1.5-1.83l-7.53-37.81c-.14-.72-.77-1.23-1.5-1.23l-46.25-.03c-.73,0-1.36.52-1.5,1.23l-7.2,36.19c-.18.91-.04,1.86.4,2.68h0c.27.49.78.8,1.34.8Z"/>
  <path class="st0" d="M927.07,519.83c-.44-.82-.59-1.76-.4-2.68l7.2-36.19c.14-.72.77-1.23,1.5-1.23l46.25.03c.73,0,1.36.52,1.5,1.23l7.53,37.81c.19.95-.54,1.83-1.5,1.83h-60.73c-.56,0-1.08-.31-1.34-.8h0Z"/>
  <path class="st0" d="M968.49,476.63h-19.97c-.86,0-1.54-.71-1.53-1.58.4-25.53,22.98-26.32,23.03.02,0,.85-.68,1.56-1.53,1.56Z"/>
</svg>