<svg width="17" height="25" viewBox="0 0 17 25" fill="none" xmlns="http://www.w3.org/2000/svg">
<rect x="2.79081" y="0.75" width="11.255" height="4.87752" rx="1.25" fill="white" stroke="#261204" stroke-width="1.5"/>
<path d="M6.57283 1.32172V5.14387" stroke="#261204" stroke-width="1.5"/>
<path d="M10.507 1.32172V5.14387" stroke="#261204" stroke-width="1.5"/>
<path d="M16.0713 21.1735V12.8402C16.0713 11.7825 15.5254 10.7998 14.6274 10.241L13.6888 9.65703C12.7908 9.09827 12.2448 8.11554 12.2448 7.05789V5.45178H4.59181V7.05789C4.59181 8.11554 4.04585 9.09827 3.14785 9.65703L2.20927 10.241C1.31126 10.7998 0.765302 11.7825 0.765302 12.8402V21.1735C0.765302 22.8641 2.13585 24.2347 3.82651 24.2347H13.0101C14.7008 24.2347 16.0713 22.8641 16.0713 21.1735Z" fill="#FF7400" stroke="#261204" stroke-width="1.5"/>
<path d="M16.0713 18.6095V13.3937C16.0713 12.8301 15.6145 12.3733 15.0509 12.3733H1.78571C1.22215 12.3733 0.765302 12.8301 0.765302 13.3937V18.6095C0.765302 19.173 1.22215 19.6299 1.78571 19.6299H15.0509C15.6145 19.6299 16.0713 19.173 16.0713 18.6095Z" fill="#261204" stroke="#261204" stroke-width="1.5"/>
<path d="M10.0581 14.3948L8.41833 16.9313L6.77859 14.3948" stroke="white" stroke-width="1.5" stroke-linecap="round"/>
</svg>
