<svg width="16" height="26" viewBox="0 0 16 26" fill="none" xmlns="http://www.w3.org/2000/svg">
<rect x="4.25747" y="6.7265" width="5.90501" height="3.06325" rx="1.25" fill="#FF7400" stroke="#261204" stroke-width="1.5"/>
<rect x="5.88097" y="4.23568" width="2.65719" height="2.22269" fill="white" stroke="#261204" stroke-width="1.5"/>
<path d="M2.94835 2.00539C2.94835 1.31317 3.5095 0.75202 4.20171 0.75202H10.8406C11.0291 0.75202 11.2151 0.794517 11.3849 0.876349L13.8484 2.06386C14.2794 2.27166 14.5575 2.71534 14.5575 3.19936C14.5575 4.03971 13.7531 4.64495 12.9596 4.41808L11.7757 4.0796C11.5292 4.00912 11.274 3.97337 11.0177 3.97337H4.20171C3.5095 3.97337 2.94835 3.41222 2.94835 2.72V2.00539Z" fill="white" stroke="#261204" stroke-width="1.5"/>
<path d="M13.6674 22.2398V12.9011C13.6674 11.2398 12.3206 9.89302 10.6593 9.89302H3.7601C2.09878 9.89302 0.75202 11.2398 0.75202 12.9011V22.2398C0.75202 23.9012 2.09878 25.2479 3.7601 25.2479H10.6593C12.3206 25.2479 13.6674 23.9012 13.6674 22.2398Z" fill="#FF7400" stroke="#261204" stroke-width="1.5"/>
<path d="M13.6674 20.0134V15.2918C13.6674 14.738 13.2184 14.2891 12.6647 14.2891H1.75471C1.20094 14.2891 0.75202 14.738 0.75202 15.2918V20.0134C0.75202 20.5672 1.20094 21.0161 1.75471 21.0161H12.6647C13.2184 21.0161 13.6674 20.5672 13.6674 20.0134Z" fill="#261204" stroke="#261204" stroke-width="1.5"/>
<path d="M7.20979 15.899V19.9098" stroke="white" stroke-width="1.5" stroke-linecap="round"/>
<path d="M9.21518 17.9044L5.20441 17.9044" stroke="white" stroke-width="1.5" stroke-linecap="round"/>
</svg>
