<svg width="25" height="25" viewBox="0 0 25 25" fill="none" xmlns="http://www.w3.org/2000/svg">
<path d="M13.1264 4.9786H9.39135C8.37553 4.48537 6.24948 3.02692 5.87189 1.13898H16.0983L19.2973 2.76464L20.7132 4.9786V7.53188L20.0315 9.68707L18.4128 12.1676L16.9739 10.1719C18.1735 8.34839 16.2781 6.38096 14.1554 7.53188V6.00767C14.1554 5.43933 13.6947 4.9786 13.1264 4.9786Z" fill="#261204"/>
<path d="M16.1007 17.3324L19.2335 16.045L18.2894 12.1827L16.9591 10.509L17.3453 9.09285L16.4012 7.59082H13.9979V5.40216L9.87809 5.05876L9.10562 7.93407L7.04566 10.2086L7.9469 11.6248L9.53469 11.9681V13.4272L8.63348 14.9721L9.53469 16.045L12.7534 15.4871L13.0109 19.5211L16.1007 17.3324Z" fill="white"/>
<path d="M13.2744 0.771797H5.80657C5.80657 3.49878 9.10558 4.70502 9.49016 4.96726V5.8572C9.49016 6.83963 9.13878 7.78967 8.49951 8.53566L6.78164 10.5403L7.93215 11.8271L9.11693 12.029C9.99258 12.1781 10.2806 13.2921 9.58698 13.847L8.7559 14.5118L8.89095 15.052C9.02175 15.5752 9.53429 15.9087 10.0656 15.8163L12.7415 15.3509L12.8582 16.153C13.0576 17.5237 12.947 18.9217 12.5345 20.244L11.378 23.9515H24.2265C24.292 20.5457 22.1676 18.1113 20.3925 16.8078C19.5872 16.2165 18.9315 15.3959 18.7579 14.412L18.4054 12.4141C23.4038 6.19223 20.3524 2.79035 17.1427 1.38355C15.9345 0.853986 14.5936 0.771797 13.2744 0.771797Z" stroke="#261204" stroke-width="1.5"/>
<path d="M24.2264 23.9513C24.2946 20.4044 21.9879 17.9111 20.1739 16.6515C19.4795 16.1693 18.5879 16.1515 17.7987 16.4545L17.3475 16.6277C14.7034 17.6429 12.6691 19.8122 11.8257 22.5161L11.378 23.9513H24.2264Z" fill="#FF7400" stroke="#261204" stroke-width="1.5"/>
<path d="M9.3912 4.97837H13.1262C13.6945 4.97837 14.1553 5.4391 14.1553 6.00743V7.53165C16.2779 6.38073 18.1734 8.34816 16.9737 10.1716L18.4127 12.1673" stroke="#261204" stroke-width="1.5"/>
<path d="M4.66769 12.1673L3.55328 11.8526L2.99607 11.6953M0.210033 10.9087L1.32445 11.2233L1.88166 11.3806" stroke="#261204" stroke-width="1.5"/>
<path d="M6.31837 16.302L5.72915 17.2988L5.43454 17.7973M3.96149 20.2894L4.55071 19.2926L4.84532 18.7941" stroke="#261204" stroke-width="1.5"/>
<path d="M4.66804 14.4427L3.60278 14.8968M0.407002 16.2589L1.47226 15.8048L2.00489 15.5778L2.53752 15.3508" stroke="#261204" stroke-width="1.5"/>
</svg>
