<svg width="50" height="50" viewBox="0 0 50 50" fill="none" xmlns="http://www.w3.org/2000/svg">
<circle cx="25" cy="25" r="24" stroke="#FFC9C9" stroke-width="2"/>
<path d="M16.0411 30.2261L19.9494 28.1416C20.8081 27.6837 21.8718 27.9103 22.4693 28.6785L24.9052 31.8103L27.3411 28.6785C27.9386 27.9103 29.0023 27.6837 29.861 28.1416L33.7693 30.2261C35.0256 30.8961 35.8103 32.204 35.8103 33.6279C35.8103 36.183 33.739 38.2543 31.1839 38.2543H18.6264C16.0713 38.2543 14 36.183 14 33.6279C14 32.204 14.7848 30.8961 16.0411 30.2261Z" fill="#FF7400"/>
<path d="M21.4355 27.8447V24.8706L24.9054 26.3577L28.3752 24.8706V27.8447L24.9054 31.3146L21.4355 27.8447Z" fill="white"/>
<path d="M21.4353 26.1492V23.8794H28.375V26.1492C28.375 26.8878 28.7821 27.5663 29.4338 27.9139L33.7693 30.2262C35.0256 30.8962 35.8103 32.2041 35.8103 33.628C35.8103 36.1831 33.739 38.2544 31.1839 38.2544H18.6264C16.0713 38.2544 14 36.1831 14 33.628C14 32.2041 14.7848 30.8962 16.0411 30.2262L20.3765 27.9139C21.0282 27.5663 21.4353 26.8878 21.4353 26.1492Z" stroke="#261204" stroke-width="1.5"/>
<path d="M23.6779 10.75H26.1319C28.5989 10.75 30.5989 12.7499 30.5989 15.217V18.3312C30.5989 21.5098 28.9312 24.4553 26.2056 26.0907C26.1079 26.1493 26.0148 26.194 25.9255 26.2253C25.4855 26.3794 25.1718 26.4425 24.8847 26.4438C24.6013 26.445 24.293 26.3861 23.867 26.2246C23.7954 26.1975 23.7186 26.1593 23.6349 26.109L23.249 26.7522L23.6349 26.109C20.8903 24.4623 19.2109 21.4962 19.2109 18.2955V15.217C19.2109 12.7499 21.2109 10.75 23.6779 10.75Z" fill="white" stroke="#261204" stroke-width="1.5"/>
<path d="M21.1213 14.2293L20.6646 14.1151L20.3632 14.4768L19.2449 15.8188C19.5562 12.9682 21.9715 10.75 24.9049 10.75C27.8383 10.75 30.2536 12.9682 30.5649 15.8188L29.4466 14.4768L29.1452 14.1151L28.6885 14.2293L27.1484 14.6143C25.6754 14.9826 24.1344 14.9826 22.6614 14.6143L21.1213 14.2293Z" fill="#261204" stroke="#261204" stroke-width="1.5"/>
<circle cx="30.8534" cy="34.289" r="1.72845" stroke="#261204" stroke-width="1.5"/>
<path d="M20.9397 35.7762V35.7762C21.761 35.7762 22.4268 35.1104 22.4268 34.2892V33.7935C22.4268 32.8552 21.4563 32.0183 20.624 31.4732C19.9091 31.005 18.9962 31.005 18.2813 31.4732C17.4491 32.0183 16.4785 32.8552 16.4785 33.7935V34.2892C16.4785 35.1104 17.1443 35.7762 17.9656 35.7762V35.7762" stroke="#261204" stroke-width="1.5" stroke-linecap="round"/>
<path d="M19.4526 31.3145V28.3403" stroke="#261204" stroke-width="1.5"/>
<path d="M30.8535 32.8015V28.8359" stroke="#261204" stroke-width="1.5"/>
<path d="M24.905 38.75V31.6922M24.905 31.6922L28.8705 27.3491M24.905 31.6922L20.9395 27.3491" stroke="#261204" stroke-width="1.5"/>
</svg>
