<svg width="23" height="26" viewBox="0 0 23 26" fill="none" xmlns="http://www.w3.org/2000/svg">
<mask id="path-1-inside-1_227_108" fill="white">
<path fill-rule="evenodd" clip-rule="evenodd" d="M0.108161 8.04138C-0.56196 3.35057 1.91468 0 6.62301 0C8.43673 0 10.1182 0.578762 11.5001 1.56541C12.882 0.578762 14.5634 0 16.3772 0C21.0855 0 23.5621 3.35057 22.892 8.04138C22.7063 9.34109 22.0705 10.4833 21.4648 11.3151C20.7456 12.3026 20.1368 13.4043 19.933 14.6088C19.2212 18.8162 18.0866 21.544 15.6735 24.8657C15.146 25.5919 14.0265 25.2641 13.9372 24.371L13.0606 15.6049C12.9488 14.4869 12.3759 13.4792 11.5001 12.8112C10.6242 13.4792 10.0514 14.4869 9.93962 15.6049L9.06302 24.371C8.97371 25.2641 7.85417 25.5919 7.32664 24.8657C4.9136 21.544 3.77901 18.8162 3.06718 14.6088C2.86339 13.4043 2.25454 12.3026 1.53539 11.3151C0.929637 10.4833 0.293835 9.34109 0.108161 8.04138Z"/>
</mask>
<path fill-rule="evenodd" clip-rule="evenodd" d="M0.108161 8.04138C-0.56196 3.35057 1.91468 0 6.62301 0C8.43673 0 10.1182 0.578762 11.5001 1.56541C12.882 0.578762 14.5634 0 16.3772 0C21.0855 0 23.5621 3.35057 22.892 8.04138C22.7063 9.34109 22.0705 10.4833 21.4648 11.3151C20.7456 12.3026 20.1368 13.4043 19.933 14.6088C19.2212 18.8162 18.0866 21.544 15.6735 24.8657C15.146 25.5919 14.0265 25.2641 13.9372 24.371L13.0606 15.6049C12.9488 14.4869 12.3759 13.4792 11.5001 12.8112C10.6242 13.4792 10.0514 14.4869 9.93962 15.6049L9.06302 24.371C8.97371 25.2641 7.85417 25.5919 7.32664 24.8657C4.9136 21.544 3.77901 18.8162 3.06718 14.6088C2.86339 13.4043 2.25454 12.3026 1.53539 11.3151C0.929637 10.4833 0.293835 9.34109 0.108161 8.04138Z" fill="#FF7400"/>
<path d="M0.108161 8.04138L-1.38278 8.25437L0.108161 8.04138ZM11.5001 1.56541L10.625 2.79114L11.5001 3.41595L12.3752 2.79114L11.5001 1.56541ZM22.892 8.04138L21.4011 7.82839V7.82839L22.892 8.04138ZM21.4648 11.3151L22.6823 12.2017L22.6823 12.2017L21.4648 11.3151ZM19.933 14.6088L21.418 14.86L19.933 14.6088ZM15.6735 24.8657L16.892 25.7509L15.6735 24.8657ZM13.9372 24.371L12.4386 24.5208L13.9372 24.371ZM13.0606 15.6049L14.5592 15.4551L13.0606 15.6049ZM11.5001 12.8112L12.4135 11.6137L11.5001 10.9171L10.5867 11.6137L11.5001 12.8112ZM9.93962 15.6049L8.44102 15.4551L9.93962 15.6049ZM9.06302 24.371L10.5616 24.5208L9.06302 24.371ZM7.32664 24.8657L6.10814 25.7509H6.10814L7.32664 24.8657ZM3.06718 14.6088L4.55215 14.3576L3.06718 14.6088ZM1.53539 11.3151L0.317929 12.2017H0.31793L1.53539 11.3151ZM6.62301 -1.50607C3.89644 -1.50607 1.62673 -0.521572 0.166465 1.32854C-1.27574 3.15577 -1.76007 5.61336 -1.38278 8.25437L1.5991 7.82839C1.30627 5.77858 1.72519 4.21549 2.53087 3.19473C3.31847 2.19685 4.64125 1.50607 6.62301 1.50607V-1.50607ZM12.3752 0.339682C10.7482 -0.821933 8.76297 -1.50607 6.62301 -1.50607V1.50607C8.1105 1.50607 9.4881 1.97946 10.625 2.79114L12.3752 0.339682ZM12.3752 2.79114C13.5121 1.97946 14.8897 1.50607 16.3772 1.50607V-1.50607C14.2372 -1.50607 12.252 -0.821933 10.625 0.339682L12.3752 2.79114ZM16.3772 1.50607C18.3589 1.50607 19.6817 2.19685 20.4693 3.19473C21.275 4.21549 21.6939 5.77858 21.4011 7.82839L24.383 8.25437C24.7602 5.61336 24.2759 3.15577 22.8337 1.32854C21.3735 -0.521572 19.1037 -1.50607 16.3772 -1.50607V1.50607ZM21.4011 7.82839C21.2637 8.79024 20.7773 9.70068 20.2473 10.4285L22.6823 12.2017C23.3638 11.2658 24.149 9.89194 24.383 8.25437L21.4011 7.82839ZM20.2473 10.4285C19.4652 11.5025 18.7073 12.8252 18.448 14.3576L21.418 14.86C21.5663 13.9834 22.0261 13.1027 22.6823 12.2017L20.2473 10.4285ZM18.448 14.3576C17.7735 18.3446 16.7265 20.8537 14.455 23.9806L16.892 25.7509C19.4466 22.2343 20.6689 19.2879 21.418 14.86L18.448 14.3576ZM14.455 23.9806C14.5108 23.9038 14.6081 23.8257 14.7357 23.7852C14.8542 23.7475 14.9665 23.752 15.0579 23.7784C15.2468 23.8328 15.4145 24.0083 15.4358 24.2211L12.4386 24.5208C12.6565 26.7001 15.4978 27.6702 16.892 25.7509L14.455 23.9806ZM15.4358 24.2211L14.5592 15.4551L11.562 15.7548L12.4386 24.5208L15.4358 24.2211ZM14.5592 15.4551C14.4054 13.9176 13.6177 12.5322 12.4135 11.6137L10.5867 14.0087C11.1342 14.4263 11.4921 15.0562 11.562 15.7548L14.5592 15.4551ZM11.4382 15.7548C11.5081 15.0562 11.866 14.4263 12.4135 14.0087L10.5867 11.6137C9.3825 12.5322 8.59477 13.9176 8.44102 15.4551L11.4382 15.7548ZM10.5616 24.5208L11.4382 15.7548L8.44102 15.4551L7.56442 24.2211L10.5616 24.5208ZM6.10814 25.7509C7.5024 27.6702 10.3437 26.7001 10.5616 24.5208L7.56442 24.2211C7.5857 24.0083 7.75342 23.8328 7.94231 23.7784C8.03371 23.752 8.14598 23.7475 8.2645 23.7852C8.39205 23.8257 8.48941 23.9038 8.54514 23.9806L6.10814 25.7509ZM1.58221 14.86C2.33132 19.2879 3.55354 22.2343 6.10814 25.7509L8.54514 23.9806C6.27367 20.8537 5.22669 18.3446 4.55215 14.3576L1.58221 14.86ZM0.31793 12.2017C0.974095 13.1027 1.43389 13.9834 1.58221 14.86L4.55215 14.3576C4.2929 12.8252 3.53498 11.5025 2.75285 10.4285L0.31793 12.2017ZM-1.38278 8.25437C-1.14884 9.89194 -0.363576 11.2658 0.317929 12.2017L2.75285 10.4285C2.22285 9.70068 1.73651 8.79024 1.5991 7.82839L-1.38278 8.25437Z" fill="#261204" mask="url(#path-1-inside-1_227_108)"/>
<path d="M4.97535 8.28836C3.41275 5.92537 5.50886 3.52513 7.83329 4.59203" stroke="white" stroke-width="1.5" stroke-linecap="round"/>
</svg>
