<svg width="34" height="34" viewBox="0 0 34 34" fill="none" xmlns="http://www.w3.org/2000/svg">
<circle opacity="0.1" cx="17" cy="17" r="17" fill="#261204"/>
<rect x="10.0625" y="11.0625" width="13.875" height="13.875" rx="2.4375" stroke="#5B4C41" stroke-width="1.125"/>
<path d="M9.5 20.8203C9.5 20.4529 9.63482 20.0983 9.87889 19.8238L11.3858 18.1284C11.9801 17.4599 13.0235 17.4567 13.6219 18.1215L15.3069 19.9938C15.6086 20.329 16.1358 20.3241 16.4312 19.9833L19.6949 16.2174C20.2651 15.5595 21.2736 15.5236 21.8891 16.1391L24.0607 18.3107C24.342 18.592 24.5 18.9735 24.5 19.3713V22.5C24.5 24.1569 23.1569 25.5 21.5 25.5H12.5C10.8431 25.5 9.5 24.1569 9.5 22.5V20.8203Z" fill="#5B4C41"/>
<circle cx="14.75" cy="14.25" r="1.5" fill="#5B4C41"/>
</svg>
