<svg width="31" height="43" viewBox="0 0 31 43" fill="none" xmlns="http://www.w3.org/2000/svg">
<path d="M29.5414 15.7546C29.5414 22.6131 24.9818 28.3478 18.8551 29.9657C18.4456 30.0738 18.1827 30.3542 18.0548 30.5073C17.9027 30.6896 17.7724 30.9023 17.6613 31.1091C17.437 31.5267 17.2146 32.0653 17.0007 32.652C16.5694 33.8346 16.1207 35.3579 15.7174 36.8442C15.5772 37.3608 15.4417 37.8758 15.3136 38.3742C15.1854 37.8758 15.0499 37.3608 14.9097 36.8442C14.5064 35.3579 14.0577 33.8346 13.6265 32.652C13.4125 32.0653 13.1901 31.5267 12.9658 31.1091C12.8547 30.9023 12.7244 30.6896 12.5723 30.5073C12.4445 30.3542 12.1815 30.0738 11.772 29.9657C5.64535 28.3478 1.08567 22.6131 1.08567 15.7546C1.08567 7.6239 7.48457 1.08567 15.3136 1.08567C23.1426 1.08567 29.5414 7.6239 29.5414 15.7546Z" fill="#F23737" stroke="#F23737" stroke-width="2.12726"/>
<circle cx="15.3508" cy="15.7679" r="9.80155" fill="white"/>
</svg>
