<svg width="17" height="25" viewBox="0 0 17 25" fill="none" xmlns="http://www.w3.org/2000/svg">
<rect x="2.79082" y="0.75" width="11.2551" height="4.87755" rx="1.25" fill="white" stroke="#261204" stroke-width="1.5"/>
<path d="M6.57336 1.32172V5.14389" stroke="#261204" stroke-width="1.5"/>
<path d="M10.5065 1.32172V5.14389" stroke="#261204" stroke-width="1.5"/>
<path d="M16.0714 21.1734V9.0986C16.0714 7.40793 14.7009 6.03737 13.0102 6.03737H3.82653C2.13586 6.03737 0.765306 7.40793 0.765306 9.0986V21.1734C0.765306 22.8641 2.13586 24.2346 3.82653 24.2346H13.0102C14.7009 24.2346 16.0714 22.8641 16.0714 21.1734Z" fill="#FF7400" stroke="#261204" stroke-width="1.5"/>
<path d="M16.0714 18.199V12.2676C16.0714 11.704 15.6146 11.2472 15.051 11.2472H1.78571C1.22216 11.2472 0.765306 11.704 0.765306 12.2676V18.199C0.765306 18.7626 1.22216 19.2194 1.78571 19.2194H15.051C15.6146 19.2194 16.0714 18.7626 16.0714 18.199Z" fill="#261204" stroke="#261204" stroke-width="1.5"/>
<path d="M6.12354 18.7822L8.47214 15.0491L5.94059 14.9218L9.64591 11.3983L8.63934 13.3636L11.4425 13.5047L6.12354 18.7822Z" fill="white"/>
</svg>
