<svg width="25" height="26" viewBox="0 0 25 26" fill="none" xmlns="http://www.w3.org/2000/svg">
<path d="M6.78715 7.49474V7.49474C8.89184 7.49474 10.598 9.20093 10.598 11.3056V20.1977" stroke="black" stroke-width="1.5" stroke-linecap="round"/>
<path d="M17.9657 7.49474V7.49474C15.861 7.49474 14.1549 9.20093 14.1549 11.3056V20.1977" stroke="black" stroke-width="1.5" stroke-linecap="round"/>
<mask id="path-3-outside-1_227_75" maskUnits="userSpaceOnUse" x="-0.460483" y="-0.508118" width="9.14612" height="16.2598" fill="black">
<rect fill="white" x="-0.460483" y="-0.508118" width="9.14612" height="16.2598"/>
<path fill-rule="evenodd" clip-rule="evenodd" d="M6.20499 4.12829C6.80123 3.53394 6.80275 2.56877 6.2084 1.97253C5.61405 1.3763 4.64888 1.37477 4.05264 1.96912C2.51665 3.50026 1.52416 5.44454 1.52416 7.62668C1.52416 9.80882 2.51665 11.7531 4.05264 13.2842C4.64888 13.8786 5.61405 13.8771 6.2084 13.2808C6.80275 12.6846 6.80123 11.7194 6.20499 11.1251C5.41006 10.3327 4.90773 9.47893 4.69314 8.60836L4.73005 8.60836C5.2913 8.60836 5.74628 8.15337 5.74628 7.59212C5.74628 7.03087 5.2913 6.57589 4.73005 6.57589L4.7108 6.57589C4.93454 5.72926 5.43111 4.89973 6.20499 4.12829Z"/>
</mask>
<path fill-rule="evenodd" clip-rule="evenodd" d="M6.20499 4.12829C6.80123 3.53394 6.80275 2.56877 6.2084 1.97253C5.61405 1.3763 4.64888 1.37477 4.05264 1.96912C2.51665 3.50026 1.52416 5.44454 1.52416 7.62668C1.52416 9.80882 2.51665 11.7531 4.05264 13.2842C4.64888 13.8786 5.61405 13.8771 6.2084 13.2808C6.80275 12.6846 6.80123 11.7194 6.20499 11.1251C5.41006 10.3327 4.90773 9.47893 4.69314 8.60836L4.73005 8.60836C5.2913 8.60836 5.74628 8.15337 5.74628 7.59212C5.74628 7.03087 5.2913 6.57589 4.73005 6.57589L4.7108 6.57589C4.93454 5.72926 5.43111 4.89973 6.20499 4.12829Z" fill="#FF7400"/>
<path d="M6.2084 1.97253L5.12882 3.04871L5.12882 3.04871L6.2084 1.97253ZM6.20499 4.12829L5.12882 3.04871L6.20499 4.12829ZM4.05264 1.96912L5.12882 3.04871L5.12882 3.04871L4.05264 1.96912ZM4.05264 13.2842L2.97647 14.3638L2.97647 14.3638L4.05264 13.2842ZM6.2084 13.2808L7.28798 14.357L7.28799 14.357L6.2084 13.2808ZM6.20499 11.1251L7.28116 10.0455L6.20499 11.1251ZM4.69314 8.60836L4.69314 7.084L2.74743 7.084L3.21309 8.97317L4.69314 8.60836ZM4.73005 6.57589L4.73005 5.05153L4.73005 6.57589ZM4.7108 6.57589L3.23704 6.18641L2.73126 8.10024L4.7108 8.10024L4.7108 6.57589ZM5.12882 3.04871L5.12882 3.04871L7.28116 5.20788C8.47364 4.01917 8.47669 2.08884 7.28798 0.896359L5.12882 3.04871ZM5.12882 3.04871L5.12882 3.04871L7.28798 0.896359C6.09928 -0.296118 4.16894 -0.299172 2.97647 0.889538L5.12882 3.04871ZM3.04852 7.62668C3.04852 5.93395 3.81396 4.35941 5.12882 3.04871L2.97647 0.889538C1.21934 2.64111 -0.00019059 4.95514 -0.000190706 7.62668L3.04852 7.62668ZM5.12882 12.2047C3.81396 10.894 3.04852 9.31941 3.04852 7.62668L-0.000190706 7.62668C-0.000190823 10.2982 1.21934 12.6123 2.97647 14.3638L5.12882 12.2047ZM5.12882 12.2047L5.12882 12.2047L2.97647 14.3638C4.16894 15.5525 6.09928 15.5495 7.28798 14.357L5.12882 12.2047ZM5.12882 12.2047L5.12882 12.2047L7.28799 14.357C8.47669 13.1645 8.47364 11.2342 7.28116 10.0455L5.12882 12.2047ZM3.21309 8.97317C3.50615 10.1621 4.17437 11.2532 5.12882 12.2047L7.28116 10.0455C6.64575 9.41208 6.30931 8.79573 6.1732 8.24354L3.21309 8.97317ZM4.73005 7.084L4.69314 7.084L4.69314 10.1327L4.73005 10.1327L4.73005 7.084ZM4.22193 7.59212C4.22193 7.3115 4.44942 7.084 4.73005 7.084L4.73005 10.1327C6.13317 10.1327 7.27064 8.99525 7.27064 7.59212L4.22193 7.59212ZM4.73005 8.10024C4.44942 8.10024 4.22193 7.87275 4.22193 7.59212L7.27064 7.59212C7.27064 6.18899 6.13317 5.05153 4.73005 5.05153L4.73005 8.10024ZM4.7108 8.10024L4.73005 8.10024L4.73005 5.05153L4.7108 5.05153L4.7108 8.10024ZM5.12882 3.04871C4.19971 3.97488 3.54177 5.03334 3.23704 6.18641L6.18455 6.96536C6.32731 6.42518 6.66251 5.82457 7.28116 5.20788L5.12882 3.04871Z" fill="black" mask="url(#path-3-outside-1_227_75)"/>
<mask id="path-5-outside-2_227_75" maskUnits="userSpaceOnUse" x="16.3144" y="-0.508118" width="9.14612" height="16.2598" fill="black">
<rect fill="white" x="16.3144" y="-0.508118" width="9.14612" height="16.2598"/>
<path fill-rule="evenodd" clip-rule="evenodd" d="M18.795 4.12829C18.1988 3.53394 18.1972 2.56877 18.7916 1.97253C19.386 1.3763 20.3511 1.37477 20.9474 1.96912C22.4833 3.50026 23.4758 5.44454 23.4758 7.62668C23.4758 9.80882 22.4833 11.7531 20.9474 13.2842C20.3511 13.8786 19.386 13.8771 18.7916 13.2808C18.1972 12.6846 18.1988 11.7194 18.795 11.1251C19.5899 10.3327 20.0923 9.47893 20.3069 8.60836L20.27 8.60836C19.7087 8.60836 19.2537 8.15337 19.2537 7.59212C19.2537 7.03087 19.7087 6.57589 20.27 6.57589L20.2892 6.57589C20.0655 5.72926 19.5689 4.89973 18.795 4.12829Z"/>
</mask>
<path fill-rule="evenodd" clip-rule="evenodd" d="M18.795 4.12829C18.1988 3.53394 18.1972 2.56877 18.7916 1.97253C19.386 1.3763 20.3511 1.37477 20.9474 1.96912C22.4833 3.50026 23.4758 5.44454 23.4758 7.62668C23.4758 9.80882 22.4833 11.7531 20.9474 13.2842C20.3511 13.8786 19.386 13.8771 18.7916 13.2808C18.1972 12.6846 18.1988 11.7194 18.795 11.1251C19.5899 10.3327 20.0923 9.47893 20.3069 8.60836L20.27 8.60836C19.7087 8.60836 19.2537 8.15337 19.2537 7.59212C19.2537 7.03087 19.7087 6.57589 20.27 6.57589L20.2892 6.57589C20.0655 5.72926 19.5689 4.89973 18.795 4.12829Z" fill="#FF7400"/>
<path d="M18.7916 1.97253L19.8712 3.04871L19.8712 3.04871L18.7916 1.97253ZM18.795 4.12829L19.8712 3.04871L18.795 4.12829ZM20.9474 1.96912L19.8712 3.04871L19.8712 3.04871L20.9474 1.96912ZM20.9474 13.2842L22.0235 14.3638L22.0235 14.3638L20.9474 13.2842ZM18.7916 13.2808L17.712 14.357L17.712 14.357L18.7916 13.2808ZM18.795 11.1251L17.7188 10.0455L18.795 11.1251ZM20.3069 8.60836L20.3069 7.084L22.2526 7.084L21.7869 8.97317L20.3069 8.60836ZM20.2892 6.57589L21.763 6.18641L22.2687 8.10024L20.2892 8.10024L20.2892 6.57589ZM19.8712 3.04871L19.8712 3.04871L17.7188 5.20788C16.5264 4.01917 16.5233 2.08884 17.712 0.896359L19.8712 3.04871ZM19.8712 3.04871L19.8712 3.04871L17.712 0.896359C18.9007 -0.296118 20.8311 -0.299172 22.0235 0.889538L19.8712 3.04871ZM21.9515 7.62668C21.9515 5.93395 21.186 4.35941 19.8712 3.04871L22.0235 0.889538C23.7807 2.64111 25.0002 4.95514 25.0002 7.62668L21.9515 7.62668ZM19.8712 12.2047C21.186 10.894 21.9515 9.31941 21.9515 7.62668L25.0002 7.62668C25.0002 10.2982 23.7807 12.6123 22.0235 14.3638L19.8712 12.2047ZM19.8712 12.2047L19.8712 12.2047L22.0235 14.3638C20.8311 15.5525 18.9007 15.5495 17.712 14.357L19.8712 12.2047ZM19.8712 12.2047L19.8712 12.2047L17.712 14.357C16.5233 13.1645 16.5264 11.2342 17.7188 10.0455L19.8712 12.2047ZM21.7869 8.97317C21.4938 10.1621 20.8256 11.2532 19.8712 12.2047L17.7188 10.0455C18.3542 9.41208 18.6907 8.79573 18.8268 8.24354L21.7869 8.97317ZM20.27 7.084L20.3069 7.084L20.3069 10.1327L20.27 10.1327L20.27 7.084ZM20.7781 7.59212C20.7781 7.3115 20.5506 7.084 20.27 7.084L20.27 10.1327C18.8668 10.1327 17.7294 8.99525 17.7294 7.59212L20.7781 7.59212ZM20.27 8.10024C20.5506 8.10024 20.7781 7.87275 20.7781 7.59212L17.7294 7.59212C17.7294 6.18899 18.8668 5.05153 20.27 5.05153L20.27 8.10024ZM20.2892 8.10024L20.27 8.10024L20.27 5.05153L20.2892 5.05153L20.2892 8.10024ZM19.8712 3.04871C20.8003 3.97488 21.4582 5.03334 21.763 6.18641L18.8154 6.96536C18.6727 6.42518 18.3375 5.82457 17.7188 5.20788L19.8712 3.04871Z" fill="black" mask="url(#path-5-outside-2_227_75)"/>
<path fill-rule="evenodd" clip-rule="evenodd" d="M14.1051 24.3702C14.1051 24.1514 14.2401 23.9577 14.4352 23.8588C15.581 23.2784 16.3511 22.1983 16.3511 20.9617C16.3511 19.1114 14.6269 17.6114 12.5 17.6114C10.3731 17.6114 8.64892 19.1114 8.64892 20.9617C8.64892 22.2583 9.49568 23.3829 10.7344 23.9398C10.9239 24.025 11.0564 24.2076 11.0564 24.4153C11.0564 24.6858 11.2756 24.905 11.5461 24.905H13.5703C13.8657 24.905 14.1051 24.6656 14.1051 24.3702Z" fill="white"/>
<path d="M10.7344 23.9398L11.0469 23.2447L10.7344 23.9398ZM15.5889 20.9617C15.5889 21.8615 15.0277 22.7043 14.0908 23.1789L14.7797 24.5387C16.1343 23.8525 17.1133 22.535 17.1133 20.9617H15.5889ZM12.5 18.3736C14.3092 18.3736 15.5889 19.6286 15.5889 20.9617H17.1133C17.1133 18.5942 14.9447 16.8493 12.5 16.8493V18.3736ZM9.4111 20.9617C9.4111 19.6286 10.6909 18.3736 12.5 18.3736V16.8493C10.0554 16.8493 7.88675 18.5942 7.88675 20.9617H9.4111ZM11.0469 23.2447C10.0288 22.787 9.4111 21.9042 9.4111 20.9617H7.88675C7.88675 22.6125 8.96253 23.9789 10.4219 24.635L11.0469 23.2447ZM13.5703 24.1428H11.5461V25.6672H13.5703V24.1428ZM10.2942 24.4153C10.2942 25.1067 10.8547 25.6672 11.5461 25.6672V24.1428C11.6966 24.1428 11.8186 24.2648 11.8186 24.4153H10.2942ZM10.4219 24.635C10.372 24.6126 10.2942 24.5434 10.2942 24.4153H11.8186C11.8186 23.8717 11.4758 23.4375 11.0469 23.2447L10.4219 24.635ZM13.5703 25.6672C14.2866 25.6672 14.8673 25.0865 14.8673 24.3702H13.3429C13.3429 24.2446 13.4447 24.1428 13.5703 24.1428V25.6672ZM14.0908 23.1789C13.6745 23.3898 13.3429 23.8269 13.3429 24.3702H14.8673C14.8673 24.476 14.8057 24.5256 14.7797 24.5387L14.0908 23.1789Z" fill="black"/>
</svg>
