<svg width="20" height="20" viewBox="0 0 20 20" fill="none" xmlns="http://www.w3.org/2000/svg">
<path d="M0 15.2287C0 9.51832 2.78611 4.16715 7.4642 0.892491L7.70615 0.723128C9.08343 -0.240968 10.9166 -0.24097 12.2938 0.723126L12.5358 0.892489C17.2139 4.16715 20 9.51832 20 15.2287C20 17.3764 18.2589 19.1174 16.1112 19.1174H15.3383C13.4052 19.1174 11.7486 17.7349 11.4028 15.833L10.9839 13.5287C10.7848 12.4339 9.21519 12.4339 9.01613 13.5287L8.59717 15.833C8.25136 17.7349 6.59484 19.1174 4.66169 19.1174H3.88878C1.74107 19.1174 0 17.3764 0 15.2287Z" fill="#261204"/>
</svg>
