<svg width="21" height="13" viewBox="0 0 21 13" fill="none" xmlns="http://www.w3.org/2000/svg">
<mask id="path-1-inside-1_227_4511" fill="white">
<path fill-rule="evenodd" clip-rule="evenodd" d="M0 6.36943C1.97436 2.58421 5.93547 0 10.5002 0C15.0648 0 19.026 2.58421 21.0003 6.36943C19.026 10.1547 15.0648 12.7389 10.5002 12.7389C5.93547 12.7389 1.97436 10.1547 0 6.36943Z"/>
</mask>
<path fill-rule="evenodd" clip-rule="evenodd" d="M0 6.36943C1.97436 2.58421 5.93547 0 10.5002 0C15.0648 0 19.026 2.58421 21.0003 6.36943C19.026 10.1547 15.0648 12.7389 10.5002 12.7389C5.93547 12.7389 1.97436 10.1547 0 6.36943Z" fill="#5B4C41"/>
<path d="M0 6.36943L-1.39502 5.64179L-1.77456 6.36943L-1.39502 7.09707L0 6.36943ZM21.0003 6.36943L22.3953 7.09707L22.7749 6.36943L22.3953 5.64179L21.0003 6.36943ZM1.39502 7.09707C3.10896 3.81111 6.54453 1.57339 10.5002 1.57339V-1.57339C5.32641 -1.57339 0.839749 1.3573 -1.39502 5.64179L1.39502 7.09707ZM10.5002 1.57339C14.4558 1.57339 17.8914 3.81111 19.6053 7.09707L22.3953 5.64179C20.1606 1.3573 15.6739 -1.57339 10.5002 -1.57339V1.57339ZM19.6053 5.64179C17.8914 8.92775 14.4558 11.1655 10.5002 11.1655V14.3122C15.6739 14.3122 20.1606 11.3816 22.3953 7.09707L19.6053 5.64179ZM10.5002 11.1655C6.54453 11.1655 3.10896 8.92775 1.39502 5.64179L-1.39502 7.09707C0.839749 11.3816 5.32641 14.3122 10.5002 14.3122V11.1655Z" fill="#5B4C41" mask="url(#path-1-inside-1_227_4511)"/>
<circle cx="10.4994" cy="6.36928" r="3.44461" stroke="white" stroke-width="1.5"/>
</svg>
