<svg width="20" height="20" viewBox="0 0 20 20" fill="none" xmlns="http://www.w3.org/2000/svg">
<mask id="path-1-inside-1_227_2152" fill="white">
<path fill-rule="evenodd" clip-rule="evenodd" d="M10.665 0C11.4604 0 12.1053 0.64488 12.1053 1.44033C12.1053 2.72343 13.6566 3.36611 14.5639 2.45882C15.1263 1.89638 16.0382 1.89638 16.6007 2.45882L17.5412 3.39939C18.1036 3.9618 18.1036 4.87364 17.5412 5.43606C16.634 6.34329 17.2767 7.89453 18.5597 7.89453C19.3551 7.89453 20 8.53934 20 9.33476V10.6646C20 11.4601 19.3551 12.1051 18.5595 12.1051C17.2762 12.1051 16.6336 13.6568 17.5411 14.5643C18.1037 15.1269 18.1037 16.0391 17.5411 16.6017L16.601 17.5418C16.0385 18.1043 15.1264 18.1042 14.564 17.5417C13.6567 16.6345 12.1053 17.2768 12.1053 18.5599C12.1053 19.3552 11.4605 20 10.6651 20H9.33502C8.53958 20 7.89474 19.3552 7.89474 18.5597C7.89474 17.2766 6.34327 16.634 5.43594 17.5413C4.87345 18.1038 3.96144 18.1039 3.39895 17.5414L2.45868 16.6011C1.89616 16.0386 1.8962 15.1265 2.45872 14.564C3.36609 13.6566 2.72356 12.1051 1.44035 12.1051C0.644865 12.1051 0 11.4602 0 10.6647V9.33461C0 8.53928 0.644836 7.89453 1.44017 7.89453C2.72304 7.89453 3.36571 6.34349 2.45859 5.43637C1.89625 4.87403 1.89625 3.9623 2.45859 3.39996L3.39927 2.45928C3.96172 1.89683 4.87364 1.89683 5.43609 2.45928C6.34339 3.36658 7.89474 2.72368 7.89474 1.44056C7.89474 0.645032 8.53964 0 9.33517 0H10.665ZM10 7C8.34315 7 7 8.34315 7 10C7 11.6569 8.34315 13 10 13C11.6569 13 13 11.6569 13 10C13 8.34315 11.6569 7 10 7Z"/>
</mask>
<path d="M14.5639 2.45882L13.5032 1.39816L13.5032 1.39816L14.5639 2.45882ZM16.6007 2.45882L15.54 3.51948V3.51948L16.6007 2.45882ZM17.5412 3.39939L18.6019 2.33873V2.33873L17.5412 3.39939ZM17.5412 5.43606L18.6019 6.49672V6.49672L17.5412 5.43606ZM17.5411 14.5643L18.6017 13.5036L18.6017 13.5036L17.5411 14.5643ZM17.5411 16.6017L16.4805 15.541L16.4805 15.541L17.5411 16.6017ZM16.601 17.5418L17.6616 18.6025H17.6616L16.601 17.5418ZM14.564 17.5417L13.5033 18.6024L14.564 17.5417ZM5.43594 17.5413L6.4966 18.602H6.4966L5.43594 17.5413ZM3.39895 17.5414L2.33829 18.602L2.33829 18.602L3.39895 17.5414ZM2.45868 16.6011L3.51934 15.5404L3.51934 15.5404L2.45868 16.6011ZM2.45872 14.564L1.39806 13.5033L1.39806 13.5033L2.45872 14.564ZM1.44017 7.89453L1.44017 6.39453H1.44017V7.89453ZM2.45859 5.43637L1.39793 6.49703L1.39793 6.49703L2.45859 5.43637ZM2.45859 3.39996L1.39793 2.3393L1.39793 2.3393L2.45859 3.39996ZM3.39927 2.45928L2.33861 1.39862V1.39862L3.39927 2.45928ZM5.43609 2.45928L4.37543 3.51994L5.43609 2.45928ZM13.6053 1.44033C13.6053 -0.183489 12.2889 -1.5 10.665 -1.5V1.5C10.6319 1.5 10.6053 1.47325 10.6053 1.44033H13.6053ZM13.5032 1.39816C13.4977 1.4037 13.4994 1.40058 13.5094 1.39542C13.519 1.39047 13.5302 1.38676 13.541 1.38489C13.5512 1.38311 13.5586 1.38341 13.5626 1.38387C13.5663 1.38431 13.568 1.38498 13.5684 1.38518C13.5689 1.38537 13.5705 1.38608 13.5735 1.38839C13.5766 1.39086 13.582 1.39584 13.588 1.40434C13.5943 1.41329 13.5995 1.42376 13.6028 1.43403C13.6062 1.44473 13.6053 1.44816 13.6053 1.44033H10.6053C10.6053 4.05956 13.7721 5.37188 15.6245 3.51948L13.5032 1.39816ZM17.6613 1.39816C16.5131 0.249932 14.6515 0.249934 13.5032 1.39816L15.6245 3.51948C15.6012 3.54283 15.5634 3.54283 15.54 3.51948L17.6613 1.39816ZM18.6019 2.33873L17.6613 1.39816L15.54 3.51948L16.4806 4.46005L18.6019 2.33873ZM18.6019 6.49672C19.7501 5.34852 19.7501 3.48692 18.6019 2.33873L16.4806 4.46005C16.4572 4.43667 16.4572 4.39877 16.4806 4.37539L18.6019 6.49672ZM18.5597 6.39453C18.5519 6.39453 18.5553 6.39358 18.566 6.39699C18.5763 6.40027 18.5868 6.4055 18.5957 6.41181C18.6042 6.4178 18.6092 6.42321 18.6117 6.42633C18.614 6.42926 18.6147 6.43092 18.6149 6.4314C18.6151 6.43187 18.6158 6.43355 18.6162 6.43728C18.6167 6.44125 18.617 6.44863 18.6152 6.4589C18.6133 6.46971 18.6096 6.48085 18.6047 6.49046C18.5995 6.50047 18.5964 6.50224 18.6019 6.49672L16.4806 4.37539C14.6282 6.22781 15.9407 9.39453 18.5597 9.39453V6.39453ZM21.5 9.33476C21.5 7.71083 20.1835 6.39453 18.5597 6.39453V9.39453C18.5268 9.39453 18.5 9.36785 18.5 9.33476H21.5ZM21.5 10.6646V9.33476H18.5V10.6646H21.5ZM18.5595 13.6051C20.1835 13.6051 21.5 12.2886 21.5 10.6646H18.5C18.5 10.6317 18.5266 10.6051 18.5595 10.6051V13.6051ZM18.6017 13.5036C18.5962 13.4981 18.5993 13.4998 18.6044 13.5097C18.6093 13.5193 18.613 13.5303 18.6149 13.5411C18.6167 13.5513 18.6164 13.5586 18.6159 13.5625C18.6155 13.5662 18.6148 13.5678 18.6146 13.5683C18.6144 13.5687 18.6137 13.5703 18.6114 13.5733C18.609 13.5764 18.604 13.5818 18.5955 13.5878C18.5865 13.5941 18.5761 13.5993 18.5658 13.6026C18.5551 13.606 18.5517 13.6051 18.5595 13.6051V10.6051C15.9393 10.6051 14.6284 13.7729 16.4804 15.6249L18.6017 13.5036ZM18.6018 17.6623C19.7503 16.5139 19.75 14.6519 18.6017 13.5036L16.4804 15.6249C16.4573 15.6018 16.4572 15.5643 16.4805 15.541L18.6018 17.6623ZM17.6616 18.6025L18.6018 17.6623L16.4805 15.541L15.5403 16.4812L17.6616 18.6025ZM13.5033 18.6024C14.6515 19.7505 16.5133 19.7509 17.6616 18.6025L15.5403 16.4812C15.5638 16.4577 15.6014 16.4579 15.6246 16.4811L13.5033 18.6024ZM13.6053 18.5599C13.6053 18.5521 13.6062 18.5555 13.6028 18.5663C13.5995 18.5766 13.5942 18.5871 13.5879 18.5961C13.5819 18.6046 13.5765 18.6096 13.5733 18.6121C13.5704 18.6144 13.5687 18.6151 13.5682 18.6153C13.5678 18.6155 13.5661 18.6162 13.5624 18.6166C13.5585 18.6171 13.5511 18.6174 13.5409 18.6156C13.5302 18.6138 13.5191 18.6101 13.5095 18.6051C13.4995 18.6 13.4978 18.5969 13.5033 18.6024L15.6246 16.4811C13.7729 14.6294 10.6053 15.9398 10.6053 18.5599H13.6053ZM10.6651 21.5C12.2889 21.5 13.6053 20.1837 13.6053 18.5599H10.6053C10.6053 18.5268 10.6321 18.5 10.6651 18.5V21.5ZM9.33502 21.5H10.6651V18.5H9.33502V21.5ZM6.39474 18.5597C6.39474 20.1836 7.71115 21.5 9.33502 21.5V18.5C9.368 18.5 9.39474 18.5267 9.39474 18.5597H6.39474ZM6.4966 18.602C6.50215 18.5965 6.5004 18.5996 6.49043 18.6047C6.48085 18.6097 6.46975 18.6134 6.45898 18.6152C6.44874 18.617 6.44139 18.6167 6.43745 18.6162C6.43375 18.6158 6.43209 18.6151 6.43162 18.6149C6.43116 18.6147 6.4295 18.614 6.42657 18.6117C6.42345 18.6093 6.41803 18.6043 6.41203 18.5958C6.40572 18.5868 6.40048 18.5763 6.3972 18.566C6.39378 18.5553 6.39474 18.5519 6.39474 18.5597H9.39474C9.39474 15.94 6.2274 14.6286 4.37528 16.4807L6.4966 18.602ZM2.33829 18.602C3.48661 19.7504 5.34837 19.7502 6.4966 18.602L4.37528 16.4807C4.39854 16.4574 4.43628 16.4574 4.45961 16.4807L2.33829 18.602ZM1.39802 17.6618L2.33829 18.602L4.45961 16.4807L3.51934 15.5404L1.39802 17.6618ZM1.39806 13.5033C0.24981 14.6516 0.24965 16.5134 1.39802 17.6618L3.51934 15.5404C3.54266 15.5638 3.54259 15.6014 3.51938 15.6246L1.39806 13.5033ZM1.44035 13.6051C1.44818 13.6051 1.44474 13.606 1.43404 13.6026C1.42375 13.5993 1.41327 13.5941 1.40431 13.5878C1.39581 13.5818 1.39081 13.5764 1.38835 13.5732C1.38604 13.5703 1.38533 13.5687 1.38515 13.5682C1.38496 13.5677 1.38429 13.5661 1.38386 13.5624C1.38339 13.5585 1.3831 13.5511 1.38487 13.5409C1.38673 13.5301 1.39043 13.519 1.39537 13.5095C1.40051 13.4995 1.40361 13.4978 1.39806 13.5033L3.51938 15.6246C5.37147 13.7726 4.06024 10.6051 1.44035 10.6051V13.6051ZM-1.5 10.6647C-1.5 12.2886 -0.183562 13.6051 1.44035 13.6051V10.6051C1.47329 10.6051 1.5 10.6318 1.5 10.6647H-1.5ZM-1.5 9.33461V10.6647H1.5V9.33461H-1.5ZM1.44017 6.39453C-0.183471 6.39453 -1.5 7.71073 -1.5 9.33461H1.5C1.5 9.36782 1.47314 9.39453 1.44017 9.39453V6.39453ZM1.39793 6.49703C1.40344 6.50254 1.4003 6.50074 1.39512 6.49072C1.39015 6.48108 1.38643 6.46992 1.38455 6.45908C1.38277 6.44879 1.38307 6.44139 1.38354 6.4374C1.38398 6.43365 1.38466 6.43196 1.38486 6.43147C1.38506 6.43098 1.38578 6.42931 1.3881 6.42637C1.39057 6.42324 1.39557 6.41782 1.40408 6.41183C1.41303 6.40552 1.42352 6.40028 1.43381 6.39699C1.44452 6.39358 1.44798 6.39453 1.44017 6.39453L1.44017 9.39453C4.05892 9.39453 5.37166 6.22812 3.51925 4.37571L1.39793 6.49703ZM1.39793 2.3393C0.249807 3.48742 0.249805 5.3489 1.39793 6.49703L3.51925 4.37571C3.5427 4.39916 3.5427 4.43717 3.51925 4.46062L1.39793 2.3393ZM2.33861 1.39862L1.39793 2.3393L3.51925 4.46062L4.45993 3.51994L2.33861 1.39862ZM6.49675 1.39862C5.34851 0.250382 3.48685 0.250382 2.33861 1.39862L4.45993 3.51994C4.4366 3.54328 4.39876 3.54328 4.37543 3.51994L6.49675 1.39862ZM6.39474 1.44056C6.39474 1.4484 6.39378 1.44497 6.39718 1.4343C6.40045 1.42404 6.40568 1.41359 6.41197 1.40467C6.41794 1.39619 6.42333 1.39122 6.42643 1.38877C6.42935 1.38647 6.43098 1.38578 6.43144 1.38559C6.4319 1.3854 6.43357 1.38472 6.43729 1.38429C6.44125 1.38382 6.44863 1.38352 6.4589 1.3853C6.46972 1.38717 6.48087 1.39088 6.49048 1.39585C6.50049 1.40102 6.50227 1.40414 6.49675 1.39862L4.37543 3.51994C6.22817 5.37268 9.39474 4.05934 9.39474 1.44056H6.39474ZM9.33517 -1.5C7.71104 -1.5 6.39474 -0.183219 6.39474 1.44056H9.39474C9.39474 1.47328 9.36824 1.5 9.33517 1.5V-1.5ZM10.665 -1.5H9.33517V1.5H10.665V-1.5ZM8.5 10C8.5 9.17157 9.17157 8.5 10 8.5V5.5C7.51472 5.5 5.5 7.51472 5.5 10H8.5ZM10 11.5C9.17157 11.5 8.5 10.8284 8.5 10H5.5C5.5 12.4853 7.51472 14.5 10 14.5V11.5ZM11.5 10C11.5 10.8284 10.8284 11.5 10 11.5V14.5C12.4853 14.5 14.5 12.4853 14.5 10H11.5ZM10 8.5C10.8284 8.5 11.5 9.17157 11.5 10H14.5C14.5 7.51472 12.4853 5.5 10 5.5V8.5Z" fill="#887A7A" mask="url(#path-1-inside-1_227_2152)"/>
</svg>
