<svg width="21" height="25" viewBox="0 0 21 25" fill="none" xmlns="http://www.w3.org/2000/svg">
<path d="M15.9532 14.2747V5.5043L11.2685 0.759674H3.79837C2.12014 0.759674 0.759674 2.12014 0.759674 3.79837V16.9661C0.759674 18.6443 2.12015 20.0047 3.79837 20.0047H10.465" stroke="#5B4C41" stroke-width="1.5"/>
<path d="M11.13 1.29926V4.48563C11.13 5.04504 11.5835 5.49853 12.1429 5.49853H15.234" stroke="#5B4C41" stroke-width="1.5" stroke-linecap="square"/>
<path d="M4.03972 5.01256H7.58487" stroke="#5B4C41" stroke-width="1.5" stroke-linecap="round"/>
<path d="M4.03972 8.55771H12.4746" stroke="#5B4C41" stroke-width="1.5" stroke-linecap="round"/>
<path d="M4.03972 12.1029H12.4746" stroke="#5B4C41" stroke-width="1.5" stroke-linecap="round"/>
<path d="M20.2289 19.1932C20.2289 21.9807 17.9692 24.2404 15.1817 24.2404C12.3941 24.2404 10.1344 21.9807 10.1344 19.1932C10.1344 16.4057 12.3941 14.146 15.1817 14.146C17.9692 14.146 20.2289 16.4057 20.2289 19.1932Z" stroke="#5B4C41" stroke-width="1.5" stroke-linecap="round"/>
<path d="M13.6623 18.8204L15.0324 17.3296C15.1127 17.2423 15.2505 17.2423 15.3307 17.3296L16.701 18.8204" stroke="#5B4C41" stroke-width="1.5" stroke-linecap="round"/>
<path d="M15.1816 17.9532V21.2188" stroke="#5B4C41" stroke-width="1.5" stroke-linecap="round"/>
</svg>
