<svg width="160" height="236" viewBox="0 0 160 236" fill="none" xmlns="http://www.w3.org/2000/svg">
<mask id="mask0_227_1387" style="mask-type:alpha" maskUnits="userSpaceOnUse" x="0" y="0" width="160" height="236">
<path opacity="0.9" d="M0 20C0 8.95431 8.95431 0 20 0H140C151.046 0 160 8.95431 160 20V216C160 227.046 151.046 236 140 236H20C8.95431 236 0 227.046 0 216V20Z" fill="white"/>
</mask>
<g mask="url(#mask0_227_1387)">
<path opacity="0.9" d="M0 20C0 8.95431 8.95431 0 20 0H140C151.046 0 160 8.9543 160 20V216C160 227.046 151.046 236 140 236H20C8.95431 236 0 227.046 0 216V20Z" fill="white"/>
<path opacity="0.9" d="M23 36C15.8203 36 10 30.1797 10 23C10 15.8203 15.8203 10 23 10L42 10C49.1797 10 55 15.8203 55 23C55 30.1797 49.1797 36 42 36L23 36Z" fill="#FFAA50"/>
<path d="M18.288 21.2V20.168H20.216V26H19.064V21.2H18.288ZM21.2744 24.864V23.984L23.8904 20.24H25.1944V23.888H25.8984V24.864H25.1944V26H24.0744V24.864H21.2744ZM24.1464 21.44L22.5064 23.888H24.1464V21.44ZM26.4835 21.6C26.4835 21.1947 26.6008 20.8773 26.8355 20.648C27.0755 20.4187 27.3822 20.304 27.7555 20.304C28.1288 20.304 28.4328 20.4187 28.6675 20.648C28.9075 20.8773 29.0275 21.1947 29.0275 21.6C29.0275 22.0107 28.9075 22.3307 28.6675 22.56C28.4328 22.7893 28.1288 22.904 27.7555 22.904C27.3822 22.904 27.0755 22.7893 26.8355 22.56C26.6008 22.3307 26.4835 22.0107 26.4835 21.6ZM31.6195 20.4L28.4755 26H27.3875L30.5235 20.4H31.6195ZM27.7475 20.976C27.4542 20.976 27.3075 21.184 27.3075 21.6C27.3075 22.0213 27.4542 22.232 27.7475 22.232C27.8915 22.232 28.0035 22.1813 28.0835 22.08C28.1635 21.9733 28.2035 21.8133 28.2035 21.6C28.2035 21.184 28.0515 20.976 27.7475 20.976ZM29.9955 24.792C29.9955 24.3813 30.1128 24.064 30.3475 23.84C30.5875 23.6107 30.8942 23.496 31.2675 23.496C31.6408 23.496 31.9422 23.6107 32.1715 23.84C32.4062 24.064 32.5235 24.3813 32.5235 24.792C32.5235 25.2027 32.4062 25.5227 32.1715 25.752C31.9422 25.9813 31.6408 26.096 31.2675 26.096C30.8888 26.096 30.5822 25.9813 30.3475 25.752C30.1128 25.5227 29.9955 25.2027 29.9955 24.792ZM31.2595 24.168C30.9555 24.168 30.8035 24.376 30.8035 24.792C30.8035 25.2133 30.9555 25.424 31.2595 25.424C31.5582 25.424 31.7075 25.2133 31.7075 24.792C31.7075 24.376 31.5582 24.168 31.2595 24.168ZM37.8706 26.056C37.3479 26.056 36.8679 25.9333 36.4306 25.688C35.9932 25.4427 35.6466 25.104 35.3906 24.672C35.1346 24.2347 35.0066 23.7413 35.0066 23.192C35.0066 22.648 35.1346 22.16 35.3906 21.728C35.6466 21.2907 35.9932 20.9493 36.4306 20.704C36.8679 20.4587 37.3479 20.336 37.8706 20.336C38.3986 20.336 38.8786 20.4587 39.3106 20.704C39.7479 20.9493 40.0919 21.2907 40.3426 21.728C40.5986 22.16 40.7266 22.648 40.7266 23.192C40.7266 23.7413 40.5986 24.2347 40.3426 24.672C40.0919 25.104 39.7479 25.4427 39.3106 25.688C38.8732 25.9333 38.3932 26.056 37.8706 26.056ZM37.8706 25.056C38.2066 25.056 38.5026 24.9813 38.7586 24.832C39.0146 24.6773 39.2146 24.4587 39.3586 24.176C39.5026 23.8933 39.5746 23.5653 39.5746 23.192C39.5746 22.8187 39.5026 22.4933 39.3586 22.216C39.2146 21.9333 39.0146 21.7173 38.7586 21.568C38.5026 21.4187 38.2066 21.344 37.8706 21.344C37.5346 21.344 37.2359 21.4187 36.9746 21.568C36.7186 21.7173 36.5186 21.9333 36.3746 22.216C36.2306 22.4933 36.1586 22.8187 36.1586 23.192C36.1586 23.5653 36.2306 23.8933 36.3746 24.176C36.5186 24.4587 36.7186 24.6773 36.9746 24.832C37.2359 24.9813 37.5346 25.056 37.8706 25.056ZM43.5918 22.488H42.8158V26H41.6798V22.488H41.1758V21.568H41.6798V21.344C41.6798 20.8 41.8345 20.4 42.1438 20.144C42.4531 19.888 42.9198 19.768 43.5438 19.784V20.728C43.2718 20.7227 43.0825 20.768 42.9758 20.864C42.8691 20.96 42.8158 21.1333 42.8158 21.384V21.568H43.5918V22.488ZM46.3496 22.488H45.5736V26H44.4376V22.488H43.9336V21.568H44.4376V21.344C44.4376 20.8 44.5923 20.4 44.9016 20.144C45.211 19.888 45.6776 19.768 46.3016 19.784V20.728C46.0296 20.7227 45.8403 20.768 45.7336 20.864C45.627 20.96 45.5736 21.1333 45.5736 21.384V21.568H46.3496V22.488Z" fill="#261204"/>
<path opacity="0.9" d="M123 220C123 208.402 132.402 199 144 199H164V224C164 232.837 156.837 240 148 240H123V220Z" fill="#261204" stroke="#F8F6F4" stroke-width="8"/>
<path d="M144.073 214V224.147" stroke="white" stroke-width="1.5" stroke-linecap="round"/>
<path d="M149.147 219.074L139 219.074" stroke="white" stroke-width="1.5" stroke-linecap="round"/>
</g>
</svg>
