<svg width="20" height="22" viewBox="0 0 20 22" fill="none" xmlns="http://www.w3.org/2000/svg">
<path d="M1.90292 7.47605C2.0879 5.81123 3.4951 4.55172 5.17017 4.55172H14.1114C15.7865 4.55172 17.1937 5.81123 17.3787 7.47605L18.5026 17.591C18.7189 19.5383 17.1946 21.2414 15.2353 21.2414H4.04629C2.08699 21.2414 0.562672 19.5383 0.779041 17.591L1.90292 7.47605Z" stroke="#5B4C41" stroke-width="1.5"/>
<path d="M13.4776 6.54931L13.3222 4.20409C13.1938 2.26543 11.5838 0.758621 9.64093 0.758621V0.758621C7.69803 0.758621 6.08807 2.26543 5.95962 4.20409L5.80424 6.54931" stroke="#5B4C41" stroke-width="1.5" stroke-linecap="round"/>
<path d="M12.2046 11.3442L7.07711 16.4717" stroke="#5B4C41" stroke-width="1.5" stroke-linecap="round"/>
<path d="M7.077 11.3442L12.2045 16.4717" stroke="#5B4C41" stroke-width="1.5" stroke-linecap="round"/>
</svg>
