<svg width="13" height="12" viewBox="0 0 13 12" fill="none" xmlns="http://www.w3.org/2000/svg">
<path d="M0.521222 4.94855C0.521222 3.50924 1.68802 2.34244 3.12733 2.34244H9.87267C11.312 2.34244 12.4788 3.50924 12.4788 4.94855V8.44389C12.4788 9.88321 11.312 11.05 9.87267 11.05H3.12733C1.68802 11.05 0.521222 9.88321 0.521222 8.44389V4.94855Z" stroke="#797979"/>
<path d="M9.10051 2.47122V2.47122C9.10051 1.39427 8.22746 0.521222 7.15051 0.521222H5.85051C4.77355 0.521222 3.90051 1.39427 3.90051 2.47122V2.47122" stroke="#797979"/>
<path d="M12.35 6.37071L6.84794 7.89906C6.62029 7.9623 6.37971 7.9623 6.15206 7.89906L0.65 6.37071" stroke="#797979" stroke-linecap="round"/>
<path d="M6.5 4.02216L6.5 6.12038" stroke="#797979" stroke-linecap="round"/>
<path d="M7.54397 5.07173H5.45486" stroke="#797979" stroke-linecap="round"/>
</svg>
