<svg width="18" height="18" viewBox="0 0 18 18" fill="none" xmlns="http://www.w3.org/2000/svg">
<rect x="0.75" y="2.3999" width="16.5" height="14.7" rx="3.25" stroke="#5B4C41" stroke-width="1.5"/>
<path d="M0 5.6499C0 3.44076 1.79086 1.6499 4 1.6499H14C16.2091 1.6499 18 3.44076 18 5.6499V7.0499H0V5.6499Z" fill="#5B4C41"/>
<path d="M5.40039 9.75L3.60039 9.75" stroke="#5B4C41" stroke-width="1.5" stroke-linecap="round"/>
<path d="M5.40039 13.3501L3.60039 13.3501" stroke="#5B4C41" stroke-width="1.5" stroke-linecap="round"/>
<path d="M9.90039 9.75L8.10039 9.75" stroke="#5B4C41" stroke-width="1.5" stroke-linecap="round"/>
<path d="M14.4004 9.75L12.6004 9.75" stroke="#5B4C41" stroke-width="1.5" stroke-linecap="round"/>
<path d="M9.90039 13.3501L8.10039 13.3501" stroke="#5B4C41" stroke-width="1.5" stroke-linecap="round"/>
<path d="M14.4004 13.3501L12.6004 13.3501" stroke="#5B4C41" stroke-width="1.5" stroke-linecap="round"/>
<path d="M4.5 0.75V4.35" stroke="#5B4C41" stroke-width="1.5" stroke-linecap="round"/>
<path d="M5.25 2.38672V1.63672H3.75V2.38672H5.25ZM3.75 3.04442C3.75 3.45863 4.08579 3.79442 4.5 3.79442C4.91421 3.79442 5.25 3.45863 5.25 3.04442H3.75ZM3.75 2.38672V3.04442H5.25V2.38672H3.75Z" fill="white"/>
<path d="M13.5 0.75V4.35" stroke="#5B4C41" stroke-width="1.5" stroke-linecap="round"/>
<path d="M14.25 2.38672V1.63672H12.75V2.38672H14.25ZM12.75 3.04439C12.75 3.4586 13.0858 3.79439 13.5 3.79439C13.9142 3.79439 14.25 3.4586 14.25 3.04439H12.75ZM12.75 2.38672V3.04439H14.25V2.38672H12.75Z" fill="white"/>
</svg>
