<svg width="135" height="128" viewBox="0 0 135 128" fill="none" xmlns="http://www.w3.org/2000/svg">
<circle opacity="0.1" cx="62" cy="62" r="62" fill="#261204"/>
<circle cx="62" cy="62" r="54" fill="#261204"/>
<circle cx="112" cy="105" r="20.5" fill="#3EB048" stroke="white" stroke-width="5"/>
<path d="M119.476 100.513L110.513 109.476L106 104.963" stroke="white" stroke-width="4" stroke-linecap="round"/>
<path d="M75 48.5V41C75 33.8203 69.1797 28 62 28V28C54.8203 28 49 33.8203 49 41L49 60" stroke="white" stroke-width="9"/>
<path d="M75 48.5L75 41C75 33.8203 69.1797 28 62 28V28" stroke="#E4E4E4" stroke-width="9"/>
<path d="M37 59.5455C37 57.0351 39.0351 55 41.5455 55H82.4545C84.9649 55 87 57.0351 87 59.5455V80C87 93.8071 75.8071 105 62 105C48.1929 105 37 93.8071 37 80V59.5455Z" fill="#FFAC66"/>
<path d="M87 80V59.5455C87 57.0351 84.9649 55 82.4545 55H62V105C75.8071 105 87 93.8071 87 80Z" fill="#E2904B"/>
<path fill-rule="evenodd" clip-rule="evenodd" d="M64.5 81.3799C64.5 80.2075 65.2338 79.1885 66.0912 78.3889C67.2656 77.2936 68 75.7326 68 74C68 70.6863 65.3137 68 62 68C58.6863 68 56 70.6863 56 74C56 75.7326 56.7344 77.2936 57.9088 78.3889C58.7662 79.1885 59.5 80.2075 59.5 81.3799V87C59.5 88.3807 60.6193 89.5 62 89.5C63.3807 89.5 64.5 88.3807 64.5 87V81.3799Z" fill="#5B4C41"/>
<path d="M66.0912 78.3889C67.2656 77.2936 68 75.7326 68 74C68 70.6863 65.3137 68 62 68V89.5C63.3807 89.5 64.5 88.3807 64.5 87V81.3799C64.5 80.2075 65.2338 79.1885 66.0912 78.3889Z" fill="#4A382A"/>
</svg>
