<svg width="20" height="20" viewBox="0 0 20 20" fill="none" xmlns="http://www.w3.org/2000/svg">
<rect x="0.75" y="0.75" width="18.5" height="18.5" rx="3.25" stroke="#FF7400" stroke-width="1.5"/>
<path d="M0.75 16.4761C0.75 15.9733 0.886638 15.48 1.1453 15.0489L2.87758 12.1618C3.69367 10.8016 5.62322 10.6903 6.59034 11.9475L8.01059 13.7939C8.7628 14.7717 10.2636 14.6851 10.8983 13.6272L13.9491 8.54253C14.7504 7.20699 16.6336 7.06993 17.6199 8.27536L18.5154 9.36983C18.9904 9.95048 19.25 10.6776 19.25 11.4279V16C19.25 17.7949 17.7949 19.25 16 19.25H3.52393C1.99193 19.25 0.75 18.0081 0.75 16.4761Z" stroke="#FF7400" stroke-width="1.5"/>
<circle cx="8" cy="6" r="2.25" stroke="#FF7400" stroke-width="1.5"/>
</svg>
