<svg width="20" height="21" viewBox="0 0 20 21" fill="none" xmlns="http://www.w3.org/2000/svg">
<path d="M0.75 10C0.75 8.75736 1.75736 7.75 3 7.75H7.47529C8.71793 7.75 9.72529 8.75736 9.72529 10V20.25H3C1.75736 20.25 0.75 19.2426 0.75 18V10Z" stroke="#261204" stroke-width="1.5"/>
<path d="M9.75 3C9.75 1.75736 10.7574 0.75 12 0.75H17C18.2426 0.75 19.25 1.75736 19.25 3V18C19.25 19.2426 18.2426 20.25 17 20.25H9.75V3Z" stroke="#261204" stroke-width="1.5"/>
<path d="M6.94707 20.118V14.8729C6.94707 13.9286 6.18154 13.1631 5.23721 13.1631V13.1631C4.29287 13.1631 3.52734 13.9286 3.52734 14.8729V20.118" stroke="#261204" stroke-width="1.5"/>
<path d="M12.75 5.19141C12.75 4.50105 13.3096 3.94141 14 3.94141H15C15.6904 3.94141 16.25 4.50105 16.25 5.19141V8.80852C16.25 9.49888 15.6904 10.0585 15 10.0585H14C13.3096 10.0585 12.75 9.49888 12.75 8.80852V5.19141Z" stroke="#261204" stroke-width="1.5"/>
<path d="M12.75 14.424C12.75 13.7336 13.3096 13.174 14 13.174H15C15.6904 13.174 16.25 13.7336 16.25 14.424V15.424C16.25 16.1143 15.6904 16.674 15 16.674H14C13.3096 16.674 12.75 16.1143 12.75 15.424V14.424Z" stroke="#261204" stroke-width="1.5"/>
</svg>
