<svg width="23" height="27" viewBox="0 0 23 27" fill="none" xmlns="http://www.w3.org/2000/svg">
<path d="M18.7173 19.8005L18.9261 20.2876C19.3836 21.3551 18.85 22.5877 17.7585 22.9846L10.8807 25.4858C9.80735 25.8761 8.62816 25.2743 8.31439 24.1762C8.07287 23.3308 7.30022 22.748 6.42105 22.748H4.15878C2.98086 22.748 2.05224 21.7452 2.14259 20.5708L2.39585 17.2784C2.4396 16.7096 2.1089 16.1783 1.57925 15.9665C0.781854 15.6475 0.504549 14.6587 1.01984 13.9716L2.55917 11.9192C2.82172 11.5691 2.96363 11.1433 2.9636 10.7057L2.96346 8.41404C2.46919 2.97707 10.872 -1.96544 18.2858 2.4828C24.5379 6.234 21.9105 13.3567 20.2629 15.8281L18.8935 17.8823C18.5144 18.4509 18.4481 19.1724 18.7173 19.8005Z" fill="#FF7400"/>
<path d="M3.95198 14.3458C4.70697 13.8424 5.94888 13.2879 7.19492 13.2823C9.85248 13.2703 11.1661 16.417 12.3546 18.794V18.794C12.75 19.5848 14.0021 22.4187 14.8259 23.7367" stroke="white" stroke-width="1.5" stroke-linecap="round"/>
<path d="M12.3549 24.7247C10.3778 21.2648 8.40073 15.3335 4.94084 17.8047" stroke="white" stroke-width="1.5" stroke-linecap="round"/>
<path d="M18.7173 19.8005L18.9261 20.2876C19.3836 21.3551 18.85 22.5877 17.7585 22.9846L10.8807 25.4858C9.80735 25.8761 8.62816 25.2743 8.31439 24.1762C8.07287 23.3308 7.30022 22.748 6.42105 22.748H4.15878C2.98086 22.748 2.05224 21.7452 2.14259 20.5708L2.39585 17.2784C2.4396 16.7096 2.1089 16.1783 1.57925 15.9665C0.781854 15.6475 0.504549 14.6587 1.01984 13.9716L2.55917 11.9192C2.82172 11.5691 2.96363 11.1433 2.9636 10.7057L2.96346 8.41404C2.46919 2.97707 10.872 -1.96544 18.2858 2.4828C24.5379 6.234 21.9105 13.3567 20.2629 15.8281L18.8935 17.8823C18.5144 18.4509 18.4481 19.1724 18.7173 19.8005Z" stroke="#261204" stroke-width="1.5" stroke-linecap="round"/>
<path d="M13.7667 11.008C13.3439 8.90899 16.0474 7.74275 17.2266 9.52515C18.7809 11.8743 16.3088 15.8298 14.3316 15.8298C13.3431 15.8298 12.8492 14.8399 13.3433 13.8514" stroke="#261204" stroke-width="1.5" stroke-linecap="round"/>
</svg>
