<svg width="21" height="21" viewBox="0 0 21 21" fill="none" xmlns="http://www.w3.org/2000/svg">
<path d="M14.3045 6.51767H14.1644L14.0329 6.56636L12.271 7.2189V2.08565C12.271 1.36573 12.8546 0.78212 13.5746 0.78212H18.7887C19.5086 0.78212 20.0922 1.36573 20.0922 2.08565V5.21413C20.0922 5.93406 19.5086 6.51767 18.7887 6.51767H14.3045Z" stroke="#887A7A" stroke-width="1.5"/>
<circle cx="6.85577" cy="11.0678" r="4.07562" stroke="#887A7A" stroke-width="1.5"/>
<path d="M0.78212 19.9254C0.78212 18.8597 1.37429 17.8266 2.46824 17.0306C3.56145 16.2353 5.11026 15.7193 6.85609 15.7193C8.60193 15.7193 10.1507 16.2353 11.2439 17.0306C12.3379 17.8266 12.9301 18.8597 12.9301 19.9254V20.2179H6.85609H0.78212V19.9254Z" stroke="#887A7A" stroke-width="1.5"/>
</svg>
