<svg width="12" height="12" viewBox="0 0 12 12" fill="none" xmlns="http://www.w3.org/2000/svg">
<path d="M1.70568 0.175953C2.00918 -0.102095 2.48911 -0.0441972 2.71778 0.298052L4.3569 2.75136C4.64965 3.18951 4.57893 3.77572 4.19038 4.13168L3.1017 5.12907C3.06628 5.16152 3.05809 5.21468 3.08153 5.25661C4.02477 6.94408 4.67198 7.67585 6.31583 8.78722C6.35553 8.81406 6.40908 8.81049 6.44442 8.77812L7.53328 7.78056C7.92183 7.4246 8.51197 7.40536 8.92287 7.73526L11.2236 9.58243C11.5446 9.84012 11.5603 10.3233 11.2568 10.6013C9.69377 12.0333 7.40496 12.522 5.65632 11.3236C3.55678 9.88479 1.74681 7.90916 0.496902 5.69195C-0.544098 3.84532 0.142627 1.60794 1.70568 0.175953Z" fill="#5B4C41"/>
</svg>
