<svg width="16" height="20" viewBox="0 0 16 20" fill="none" xmlns="http://www.w3.org/2000/svg">
<path d="M0.75 17L0.75 3C0.75 1.75736 1.75736 0.75 3 0.75L10.7561 0.75L15.25 5.24152L15.25 14.0452V17C15.25 18.2426 14.2426 19.25 13 19.25H10.2205H3C1.75736 19.25 0.75 18.2426 0.75 17Z" stroke="#5B4C41" stroke-width="1.5"/>
<path d="M10.2383 1.33398V4.47978C10.2383 5.03206 10.686 5.47978 11.2383 5.47978L14.29 5.47978" stroke="#5B4C41" stroke-width="1.5" stroke-linecap="square"/>
<path d="M4 10L12 10" stroke="#5B4C41" stroke-width="1.5" stroke-linecap="round"/>
<path d="M4 5L8 5" stroke="#5B4C41" stroke-width="1.5" stroke-linecap="round"/>
<path d="M6 3L6 7" stroke="#5B4C41" stroke-width="1.5" stroke-linecap="round"/>
<path d="M4 13L12 13" stroke="#5B4C41" stroke-width="1.5" stroke-linecap="round"/>
<path d="M4 16L12 16" stroke="#5B4C41" stroke-width="1.5" stroke-linecap="round"/>
</svg>
