<svg width="20" height="20" viewBox="0 0 20 20" fill="none" xmlns="http://www.w3.org/2000/svg">
<rect x="5.75" y="13.0753" width="2.52405" height="2.52405" rx="1.26203" stroke="#887A7A" stroke-width="1.5"/>
<rect x="11.75" y="12.75" width="2.5" height="5.5" rx="1.25" stroke="#887A7A" stroke-width="1.5"/>
<path d="M2.46533 10.3807V15.2939C2.46533 16.9508 3.80848 18.2939 5.46533 18.2939H14.5342C16.191 18.2939 17.5342 16.9508 17.5342 15.2939V10.3807" stroke="#887A7A" stroke-width="1.5"/>
<path d="M2.57491 1.70036C2.71273 1.14218 3.21352 0.75 3.78846 0.75H16.2115C16.7865 0.75 17.2873 1.14218 17.4251 1.70036L19.0423 8.25H0.957709L2.57491 1.70036Z" stroke="#887A7A" stroke-width="1.5"/>
<path d="M4.75391 9C4.75391 10.1046 3.85848 11 2.75391 11C1.64934 11 0.753906 10.1046 0.753906 9" stroke="#887A7A" stroke-width="1.5"/>
<path d="M9.75391 9C9.75391 10.1046 8.85848 11 7.75391 11C6.64934 11 5.75391 10.1046 5.75391 9" stroke="#887A7A" stroke-width="1.5"/>
<path d="M14.5 9C14.5 10.1046 13.6046 11 12.5 11C11.3954 11 10.5 10.1046 10.5 9" stroke="#887A7A" stroke-width="1.5"/>
<path d="M19.2461 9C19.2461 10.1046 18.3507 11 17.2461 11C16.1415 11 15.2461 10.1046 15.2461 9" stroke="#887A7A" stroke-width="1.5"/>
</svg>
