<svg width="12" height="11" viewBox="0 0 12 11" fill="none" xmlns="http://www.w3.org/2000/svg">
<path d="M4.74395 0.715769C5.05394 -0.238278 6.40366 -0.238276 6.71365 0.715771L7.35624 2.69346C7.49487 3.12013 7.89247 3.409 8.34109 3.409H10.4206C11.4237 3.409 11.8408 4.69266 11.0292 5.28229L9.3469 6.50457C8.98396 6.76826 8.83209 7.23567 8.97072 7.66233L9.61331 9.64002C9.9233 10.5941 8.83135 11.3874 8.01979 10.7978L6.33747 9.5755C5.97453 9.31181 5.48307 9.31181 5.12013 9.5755L3.4378 10.7978C2.62624 11.3874 1.5343 10.5941 1.84428 9.64002L2.48687 7.66233C2.62551 7.23567 2.47364 6.76826 2.1107 6.50457L0.42837 5.28229C-0.383191 4.69266 0.0338978 3.409 1.03704 3.409H3.11651C3.56513 3.409 3.96273 3.12012 4.10136 2.69346L4.74395 0.715769Z" fill="#FFAB51"/>
</svg>
