<svg width="375" height="198" viewBox="0 0 375 198" fill="none" xmlns="http://www.w3.org/2000/svg">
<path fill-rule="evenodd" clip-rule="evenodd" d="M0 0H375V142V190C375 163.755 353.937 142.43 327.794 142.006L327 142H48L47.2062 141.994C21.0627 141.57 0 120.245 0 94V0Z" fill="#3A2228"/>
<mask id="mask0_15_184920" style="mask-type:alpha" maskUnits="userSpaceOnUse" x="-1" y="-1" width="377" height="191">
<path fill-rule="evenodd" clip-rule="evenodd" d="M0 0H375V142V190C375 163.755 353.937 142.43 327.794 142.006L327 142H48L47.2062 141.994C21.0627 141.57 0 120.245 0 94V0Z" fill="white"/>
<path d="M375 0H375.5V-0.5H375V0ZM0 0V-0.5H-0.5V0H0ZM327.794 142.006L327.802 141.506L327.798 141.506L327.794 142.006ZM327 142L327.004 141.5H327V142ZM48 142L47.9959 142.5H48V142ZM47.2062 141.994L47.1981 142.494L47.2022 142.494L47.2062 141.994ZM375 -0.5H0V0.5H375V-0.5ZM375.5 142V0H374.5V142H375.5ZM374.5 142V190H375.5V142H374.5ZM375.5 190C375.5 163.482 354.218 141.935 327.802 141.506L327.786 142.506C353.657 142.926 374.5 164.029 374.5 190H375.5ZM327.798 141.506L327.004 141.5L326.996 142.5L327.79 142.506L327.798 141.506ZM48 142.5H327V141.5H48V142.5ZM47.2022 142.494L47.9959 142.5L48.0041 141.5L47.2103 141.494L47.2022 142.494ZM-0.5 94C-0.5 120.518 20.7821 142.065 47.1981 142.493L47.2143 141.494C21.3433 141.074 0.5 119.971 0.5 94H-0.5ZM-0.5 0V94H0.5V0H-0.5Z" fill="white"/>
</mask>
<g mask="url(#mask0_15_184920)">
<g style="mix-blend-mode:saturation">
<path d="M159.862 0L282.759 212H317.738L298.347 178.551L293.595 181.283L188.504 0H159.862Z" fill="#A77366"/>
<path d="M57.716 0L152.886 164.17L127.61 178.705L146.911 212H256.744L133.847 0H57.716Z" fill="#CA987E"/>
<path d="M133.847 0L256.744 212H282.759L159.862 0H133.847Z" fill="#D5AC94"/>
<path d="M323.632 164.013L351.45 212H375V209.948L342.186 153.344L323.632 164.013Z" fill="#D5AC94"/>
<path d="M261.88 0L282.886 36.2361L290.886 31.6355L272.547 0H261.88Z" fill="#A77366"/>
<path d="M194.84 0L298.347 178.551L323.632 164.012L228.552 0H194.84Z" fill="#D5AC94"/>
<path d="M0 212L38 212L0 147L0 212Z" fill="#F2E4D9"/>
<path d="M188.504 0L293.594 181.283L298.347 178.551L194.84 0H188.504Z" fill="#CA987E"/>
<path d="M228.553 0L323.631 164.012L342.186 153.344L276.444 39.9391L282.887 36.2361L261.88 0H228.553Z" fill="#A77366"/>
<path d="M290.886 31.6353L356.626 145.04L348.627 149.64L374.999 195.133V64.9727L339.477 3.69592L290.886 31.6353Z" fill="#E9D2C2"/>
<path d="M342.186 153.344L375 209.948V195.133L348.627 149.639L342.186 153.344Z" fill="#E9D2C2"/>
<path d="M356.627 145.04L290.886 31.636L282.886 36.2356L348.628 149.64L356.627 145.04Z" fill="#F2E4D9"/>
<path d="M282.886 36.2356L276.444 39.9396L342.186 153.344L348.627 149.64L282.886 36.2356Z" fill="#F2E4D9"/>
<path d="M0 0V133.973L45.2327 212H69.7042L127.609 178.705L24.0139 0H0Z" fill="#D5AC94"/>
<path d="M48 130.53L96 212H126.5L73.5523 116L48 130.53Z" fill="#F2E4D9"/>
<path d="M24.0135 0L127.61 178.705L152.886 164.17L57.7157 0H24.0135Z" fill="#DFBFAB"/>
</g>
</g>
</svg>
