<svg width="22" height="25" viewBox="0 0 22 25" fill="none" xmlns="http://www.w3.org/2000/svg">
<path d="M19.2964 12.7357C19.2964 15.0376 18.2474 17.9502 16.5086 20.2912C14.764 22.64 12.4545 24.2482 10.0241 24.2482C7.59367 24.2482 5.28417 22.64 3.53952 20.2912C1.80073 17.9502 0.751806 15.0376 0.751806 12.7357C0.751806 8.23141 4.82792 4.45063 10.0241 4.45063C15.2202 4.45063 19.2964 8.23141 19.2964 12.7357Z" fill="#FF7400" stroke="black" stroke-width="1.5"/>
<mask id="path-2-outside-1_227_120" maskUnits="userSpaceOnUse" x="3.9646" y="-0.946121" width="13.0313" height="12.0289" fill="black">
<rect fill="white" x="3.9646" y="-0.946121" width="13.0313" height="12.0289"/>
<path fill-rule="evenodd" clip-rule="evenodd" d="M13.8326 4.32671C14.0393 4.73626 14.1557 5.19915 14.1557 5.68923C14.1557 7.36168 12.7999 8.71747 11.1275 8.71747C9.45502 8.71747 8.09923 7.36168 8.09923 5.68923C8.09923 5.31185 8.16826 4.95059 8.29438 4.61739L6.97183 3.21922L8.06417 2.18595L9.18242 3.36814C9.70856 2.92676 10.387 2.66098 11.1275 2.66098C11.7379 2.66098 12.3062 2.84162 12.7818 3.15237L13.4313 2.0611L14.7234 2.83014L13.8326 4.32671Z"/>
</mask>
<path fill-rule="evenodd" clip-rule="evenodd" d="M13.8326 4.32671C14.0393 4.73626 14.1557 5.19915 14.1557 5.68923C14.1557 7.36168 12.7999 8.71747 11.1275 8.71747C9.45502 8.71747 8.09923 7.36168 8.09923 5.68923C8.09923 5.31185 8.16826 4.95059 8.29438 4.61739L6.97183 3.21922L8.06417 2.18595L9.18242 3.36814C9.70856 2.92676 10.387 2.66098 11.1275 2.66098C11.7379 2.66098 12.3062 2.84162 12.7818 3.15237L13.4313 2.0611L14.7234 2.83014L13.8326 4.32671Z" fill="white"/>
<path d="M13.8326 4.32671L12.5405 3.55768L12.1183 4.26711L12.4903 5.00415L13.8326 4.32671ZM8.29438 4.61739L9.70062 5.14969L10.0341 4.26857L9.38673 3.58413L8.29438 4.61739ZM6.97183 3.21922L5.93856 2.12687L4.84622 3.16014L5.87948 4.25248L6.97183 3.21922ZM8.06417 2.18595L9.15651 1.15269L8.12325 0.0603446L7.03091 1.09361L8.06417 2.18595ZM9.18242 3.36814L8.09007 4.4014L9.06351 5.4305L10.1488 4.5201L9.18242 3.36814ZM12.7818 3.15237L11.9593 4.41108L13.2719 5.26879L14.0739 3.9214L12.7818 3.15237ZM13.4313 2.0611L14.2003 0.769036L12.9083 4.06288e-06L12.1392 1.29207L13.4313 2.0611ZM14.7234 2.83014L16.0154 3.59917L16.7845 2.3071L15.4924 1.53807L14.7234 2.83014ZM12.4903 5.00415C12.5933 5.20842 12.6521 5.43979 12.6521 5.68923H15.6593C15.6593 4.95851 15.4853 4.2641 15.175 3.64927L12.4903 5.00415ZM12.6521 5.68923C12.6521 6.53126 11.9695 7.21386 11.1275 7.21386V10.2211C13.6303 10.2211 15.6593 8.1921 15.6593 5.68923H12.6521ZM11.1275 7.21386C10.2854 7.21386 9.60284 6.53126 9.60284 5.68923H6.59562C6.59562 8.1921 8.6246 10.2211 11.1275 10.2211V7.21386ZM9.60284 5.68923C9.60284 5.49649 9.63789 5.31542 9.70062 5.14969L6.88814 4.08509C6.69863 4.58575 6.59562 5.1272 6.59562 5.68923H9.60284ZM9.38673 3.58413L8.06417 2.18595L5.87948 4.25248L7.20204 5.65066L9.38673 3.58413ZM8.00509 4.31156L9.09743 3.2783L7.03091 1.09361L5.93856 2.12687L8.00509 4.31156ZM6.97183 3.21922L8.09007 4.4014L10.2748 2.33487L9.15651 1.15269L6.97183 3.21922ZM10.1488 4.5201C10.4143 4.29739 10.7534 4.16459 11.1275 4.16459V1.15737C10.0206 1.15737 9.00288 1.55614 8.21606 2.21618L10.1488 4.5201ZM11.1275 4.16459C11.437 4.16459 11.7208 4.25526 11.9593 4.41108L13.6043 1.89366C12.8916 1.42798 12.0389 1.15737 11.1275 1.15737V4.16459ZM14.0739 3.9214L14.7234 2.83014L12.1392 1.29207L11.4897 2.38334L14.0739 3.9214ZM12.6623 3.35317L13.9543 4.1222L15.4924 1.53807L14.2003 0.769036L12.6623 3.35317ZM13.4313 2.0611L12.5405 3.55768L15.1247 5.09574L16.0154 3.59917L13.4313 2.0611Z" fill="black" mask="url(#path-2-outside-1_227_120)"/>
<path d="M13.4699 11.0933V12.444C13.4699 13.3628 12.8056 14.1469 11.8993 14.2979C10.7537 14.4889 9.71083 13.6054 9.71083 12.444V9.64325C9.71083 8.84568 10.0277 8.08078 10.5916 7.51682L12.5891 5.51938C13.153 4.95542 13.9179 4.63858 14.7155 4.63858H17.5036C17.7372 4.63858 17.97 4.66724 18.1967 4.72391L19.1701 4.96725C19.8702 5.14229 20.3614 5.7714 20.3614 6.49312C20.3614 6.91026 20.1957 7.31031 19.9007 7.60528L19.7349 7.77111C19.3338 8.17225 18.7897 8.39762 18.2224 8.39762H16.1656C15.6334 8.39762 15.1131 8.55515 14.6703 8.85036C13.9203 9.35032 13.4699 10.192 13.4699 11.0933Z" fill="#FF7400"/>
<path d="M9.00799 8.52133C9.77621 5.74067 12.3243 3.69883 15.3494 3.69883H19.3532C20.5557 3.69883 21.4876 4.74998 21.3436 5.94376L21.1782 7.31502C21.0667 8.23894 20.3341 8.96469 19.4092 9.06746L15.3494 9.51854C14.8304 9.51854 14.5227 9.91042 14.4096 10.4583L13.9313 12.85C13.8451 13.2808 13.4669 13.5908 13.0277 13.5908C12.4461 13.5908 12.01 13.0588 12.124 12.4886L12.5301 10.4583C12.8885 8.90377 13.8292 7.88655 15.3494 7.63903C16.4741 7.45589 17.9923 7.20078 18.706 7.08046C18.9577 7.03804 19.17 6.87159 19.2721 6.63772C19.4905 6.13793 19.1243 5.57834 18.5789 5.57834H15.3494C13.5988 5.57834 12.0717 6.53569 11.2633 7.95541C10.4799 9.3312 10.182 10.9801 9.30375 12.2974L8.37669 13.688C8.23167 13.9055 7.98753 14.0362 7.72609 14.0362C7.10157 14.0362 6.72907 13.3401 7.07549 12.8205L7.78554 11.7554C8.42816 10.7915 8.69949 9.63798 9.00799 8.52133Z" fill="black"/>
<path d="M7.6315 18.4871C8.80153 18.8357 11.4594 18.7084 12.7309 15.4111" stroke="white" stroke-width="1.5" stroke-linecap="round"/>
<path d="M10.8073 20.956C10.5878 19.6605 10.7567 18.644 11.1165 17.8627" stroke="white" stroke-width="1.5" stroke-linecap="round"/>
</svg>
