<svg width="23" height="23" viewBox="0 0 23 23" fill="none" xmlns="http://www.w3.org/2000/svg">
<path d="M16.0455 0.75H15.2955V1.5C15.2955 2.08994 14.8172 2.56818 14.2273 2.56818H7.86364C5.94319 2.56818 4.38636 4.12501 4.38636 6.04545C4.38636 7.9659 5.94319 9.52273 7.86364 9.52273H18.7727C18.8606 9.52273 18.9318 9.59395 18.9318 9.68182C18.9318 9.76968 18.8606 9.84091 18.7727 9.84091H4.22727C2.30683 9.84091 0.75 11.3977 0.75 13.3182C0.75 15.2386 2.30683 16.7955 4.22727 16.7955H16.0455C16.1333 16.7955 16.2045 16.8667 16.2045 16.9545C16.2045 17.0424 16.1333 17.1136 16.0455 17.1136H9.68182C7.2593 17.1136 5.29545 19.0775 5.29545 21.5V22.25H6.04545H7.86364H8.61364V21.5C8.61364 20.9101 9.09188 20.4318 9.68182 20.4318H16.0455C17.9659 20.4318 19.5227 18.875 19.5227 16.9545C19.5227 15.0341 17.9659 13.4773 16.0455 13.4773H4.22727C4.13941 13.4773 4.06818 13.406 4.06818 13.3182C4.06818 13.2303 4.13941 13.1591 4.22727 13.1591H18.7727C20.6932 13.1591 22.25 11.6023 22.25 9.68182C22.25 7.76137 20.6932 6.20455 18.7727 6.20455H7.86364C7.77577 6.20455 7.70455 6.13332 7.70455 6.04545C7.70455 5.95759 7.77577 5.88636 7.86364 5.88636H14.2273C16.6498 5.88636 18.6136 3.92252 18.6136 1.5V0.75H17.8636H16.0455Z" fill="#FF7400" stroke="#261204" stroke-width="1.5" stroke-linecap="square"/>
<path d="M12.8636 6.95459H18.7727C20.279 6.95459 21.5 8.17563 21.5 9.68186C21.5 11.1881 20.279 12.4091 18.7727 12.4091H4.22727C3.7252 12.4091 3.31818 12.8162 3.31818 13.3182C3.31818 13.8203 3.7252 14.2273 4.22727 14.2273H11.0455V16.0455H4.22727C2.72104 16.0455 1.5 14.8245 1.5 13.3182C1.5 11.812 2.72104 10.591 4.22727 10.591H18.7727C19.2748 10.591 19.6818 10.1839 19.6818 9.68186C19.6818 9.17979 19.2748 8.77277 18.7727 8.77277H12.8636V6.95459Z" fill="white"/>
</svg>
