<svg width="19" height="20" viewBox="0 0 19 20" fill="none" xmlns="http://www.w3.org/2000/svg">
<path d="M15.2118 12.0597V5.67667C15.2118 5.41364 15.1081 5.1612 14.9233 4.97404L11.0464 1.04746C10.8585 0.857158 10.6022 0.750041 10.3348 0.750041H3.75021C2.09326 0.750041 0.750041 2.09326 0.750041 3.75021V16.068C0.750041 17.725 2.09147 19.0682 3.74841 19.0682C6.38362 19.0682 10.1275 19.0682 12.2998 19.0682" stroke="#887A7A" stroke-width="1.5"/>
<path d="M10.6207 1.26362V4.26058C10.6207 4.8129 11.0684 5.26064 11.6208 5.26064H14.527" stroke="#887A7A" stroke-width="1.5" stroke-linecap="square"/>
<path d="M3.87228 4.79787H7.24668" stroke="#887A7A" stroke-width="1.5" stroke-linecap="round"/>
<path d="M3.87228 8.17245H11.9009" stroke="#887A7A" stroke-width="1.5" stroke-linecap="round"/>
<path d="M17.4582 15.3886C17.4582 17.5212 15.7294 19.25 13.5968 19.25C11.4642 19.25 9.7354 17.5212 9.7354 15.3886C9.7354 13.256 11.4642 11.5272 13.5968 11.5272C15.7294 11.5272 17.4582 13.256 17.4582 15.3886Z" stroke="#887A7A" stroke-width="1.5" stroke-linecap="round"/>
<path d="M13.4978 13.8201V15.8837L14.3965 16.7824" stroke="#887A7A" stroke-width="1.5" stroke-linecap="round"/>
</svg>
