<svg width="15" height="21" viewBox="0 0 15 21" fill="none" xmlns="http://www.w3.org/2000/svg">
<path d="M7.47873 16.732C7.37328 16.3853 7.26549 16.0546 7.15897 15.7625C7.05134 15.4674 6.93247 15.1764 6.80492 14.9389C6.74219 14.8221 6.65888 14.6831 6.55196 14.5551C6.46886 14.4555 6.25081 14.2119 5.88616 14.1156C3.13284 13.3885 1.06687 10.8034 1.06687 7.69411C1.06687 4.00523 3.96591 1.06687 7.47873 1.06687C10.9916 1.06687 13.8906 4.00523 13.8906 7.69411C13.8906 10.8034 11.8246 13.3885 9.07131 14.1156C8.70665 14.2119 8.4886 14.4555 8.4055 14.5551C8.29858 14.6831 8.21527 14.8221 8.15255 14.9389C8.02499 15.1764 7.90612 15.4674 7.79849 15.7625C7.69197 16.0546 7.58418 16.3853 7.47873 16.732Z" fill="#B6B6B6" stroke="#B6B6B6" stroke-width="2.12726"/>
<circle cx="7.49719" cy="7.70056" r="4.78682" fill="white"/>
</svg>
