<svg width="16" height="20" viewBox="0 0 16 20" fill="none" xmlns="http://www.w3.org/2000/svg">
<path d="M0.850385 10.8241L1.46677 11.2613L1.46677 11.2613L0.850385 10.8241ZM7.83799 0.97204L8.45438 1.40921L8.45438 1.40921L7.83799 0.97204ZM1.19863 11.6154L1.29265 10.8656L1.19863 11.6154ZM7.36165 12.3883L8.11146 12.4823L8.20548 11.7325L7.45567 11.6385L7.36165 12.3883ZM7.48427 19.0279L6.86788 18.5907L7.48427 19.0279ZM14.4719 9.17584L13.8555 8.73866L13.8555 8.73866L14.4719 9.17584ZM7.96061 7.61169L7.2108 7.51767L7.11678 8.26748L7.86659 8.3615L7.96061 7.61169ZM1.46677 11.2613L8.45438 1.40921L7.22161 0.534865L0.233997 10.3869L1.46677 11.2613ZM1.29265 10.8656C1.48158 10.8893 1.57692 11.106 1.46677 11.2613L0.233997 10.3869C-0.316764 11.1635 0.159977 12.2468 1.1046 12.3653L1.29265 10.8656ZM7.45567 11.6385L1.29265 10.8656L1.1046 12.3653L7.26762 13.1381L7.45567 11.6385ZM7.32328 18.7678L8.11146 12.4823L6.61184 12.2942L5.82366 18.5798L7.32328 18.7678ZM6.86788 18.5907C6.89459 18.5531 6.94594 18.5126 7.01334 18.495C7.07335 18.4792 7.12571 18.4866 7.16463 18.5017C7.20354 18.5168 7.2471 18.5468 7.28073 18.5989C7.31849 18.6575 7.32902 18.722 7.32328 18.7678L5.82366 18.5798C5.66071 19.8792 7.34299 20.5334 8.10065 19.4651L6.86788 18.5907ZM13.8555 8.73866L6.86788 18.5907L8.10065 19.4651L15.0883 9.61301L13.8555 8.73866ZM14.0296 9.13432C13.8407 9.11063 13.7453 8.89397 13.8555 8.73866L15.0883 9.61301C15.639 8.83647 15.1623 7.75315 14.2177 7.6347L14.0296 9.13432ZM7.86659 8.3615L14.0296 9.13432L14.2177 7.6347L8.05464 6.86188L7.86659 8.3615ZM7.99898 1.23215L7.2108 7.51767L8.71042 7.70572L9.4986 1.4202L7.99898 1.23215ZM8.45438 1.40921C8.42767 1.44687 8.37632 1.48734 8.30892 1.505C8.24891 1.52073 8.19655 1.51339 8.15764 1.49826C8.11872 1.48313 8.07516 1.45317 8.04153 1.40103C8.00377 1.34249 7.99324 1.27796 7.99898 1.23215L9.4986 1.4202C9.66155 0.120722 7.97927 -0.533398 7.22161 0.534866L8.45438 1.40921Z" fill="#FF7400"/>
</svg>
