<svg width="25" height="25" viewBox="0 0 25 25" fill="none" xmlns="http://www.w3.org/2000/svg">
<path d="M11.7256 17.862L11.8918 18.5995L11.7256 17.862C10.1646 18.2137 8.73543 19.0011 7.60397 20.1325L4.06038 23.6761C3.30464 24.4319 2.07933 24.4319 1.32358 23.6761C0.567834 22.9204 0.567835 21.6951 1.32358 20.9393L4.86716 17.3957C5.99863 16.2643 6.78595 14.8351 7.13773 13.2741L7.20096 12.9935C7.53116 11.5282 8.2702 10.1867 9.33227 9.1246L16.7412 1.71564C18.0207 0.436186 20.0951 0.436186 21.3745 1.71564L23.2841 3.62517C24.5635 4.90462 24.5635 6.97901 23.2841 8.25846L15.8751 15.6674C14.813 16.7295 13.4715 17.4685 12.0062 17.7987L11.7256 17.862Z" fill="#FF7400" stroke="#261204" stroke-width="1.5"/>
<rect x="1.06922" width="3.85376" height="7.04309" rx="1.25" transform="matrix(0.712815 0.712815 0.712815 -0.712815 9.84438 10.8836)" fill="white" stroke="#261204" stroke-width="1.5"/>
<path d="M13.3491 9.36725L15.6327 11.6509" stroke="#261204" stroke-width="1.5"/>
<path d="M1.32312 20.9392L3.00354 19.2588L5.74035 21.9956L4.05992 23.676C3.30418 24.4318 2.07887 24.4318 1.32312 23.676C0.567376 22.9203 0.567376 21.695 1.32312 20.9392Z" fill="white" stroke="#261204" stroke-width="1.5"/>
<path d="M21.3745 1.71564L23.2841 3.62517C24.5635 4.90462 24.5635 6.97901 23.2841 8.25846L22.9471 8.59539L16.4043 2.05256L16.7412 1.71564C18.0207 0.436186 20.0951 0.436186 21.3745 1.71564Z" fill="#261204" stroke="#261204" stroke-width="1.5"/>
</svg>
