<svg width="20" height="9" viewBox="0 0 20 9" fill="none" xmlns="http://www.w3.org/2000/svg">
<path d="M20 7.14269C20 7.72492 19.481 8.17016 18.9056 8.08163L14.7805 7.44701C14.0438 7.33367 13.5 6.69977 13.5 5.95439V3.82889C13.5 3.78263 13.4674 3.74218 13.4224 3.7315C10.7257 3.09177 9.34355 3.06694 6.57736 3.73133C6.53249 3.74211 6.5 3.7825 6.5 3.82865V5.95439C6.5 6.69977 5.95617 7.33367 5.21945 7.44701L1.09443 8.08163C0.518974 8.17016 0 7.72492 0 7.14269C0 4.14413 1.67738 1.28999 4.59811 0.611229C8.10498 -0.203743 11.895 -0.203743 15.4019 0.61123C18.3226 1.28999 20 4.14413 20 7.14269Z" fill="white"/>
</svg>
