<svg width="27" height="16" viewBox="0 0 27 16" fill="none" xmlns="http://www.w3.org/2000/svg">
<path fill-rule="evenodd" clip-rule="evenodd" d="M3.71094 6.88363C5.94431 3.23358 10.1186 0.777838 14.8995 0.777838C19.6806 0.777838 23.8549 3.23367 26.0882 6.88383C23.8549 10.5339 19.6806 12.9896 14.8996 12.9896C10.1186 12.9896 5.94428 10.5338 3.71094 6.88363Z" fill="white"/>
<path d="M3.71094 6.88363L3.04745 6.47766L2.79905 6.88362L3.04744 7.28959L3.71094 6.88363ZM26.0882 6.88383L26.7517 7.2898L27.0001 6.88384L26.7517 6.47787L26.0882 6.88383ZM4.37443 7.2896C6.46495 3.87301 10.3865 1.55568 14.8995 1.55568V0C9.85065 0 5.42366 2.59414 3.04745 6.47766L4.37443 7.2896ZM14.8995 1.55568C19.4126 1.55568 23.3343 3.8731 25.4247 7.28979L26.7517 6.47787C24.3756 2.59424 19.9485 0 14.8995 0V1.55568ZM25.4248 6.47786C23.3342 9.89445 19.4127 12.2118 14.8996 12.2118V13.7675C19.9485 13.7675 24.3755 11.1733 26.7517 7.2898L25.4248 6.47786ZM14.8996 12.2118C10.3865 12.2118 6.46493 9.89437 4.37443 6.47767L3.04744 7.28959C5.42362 11.1732 9.85068 13.7675 14.8996 13.7675V12.2118Z" fill="#261204"/>
<circle cx="14.8991" cy="6.88373" r="5.35589" fill="#FF7400" stroke="#261204" stroke-width="1.5"/>
<circle cx="14.8994" cy="6.88366" r="1.69236" stroke="#261204" stroke-width="1.5"/>
<path d="M5.11358 13.0185C5.07869 14.2155 4.08004 15.1576 2.88302 15.1227C1.68601 15.0878 0.743929 14.0891 0.778822 12.8921C0.78587 12.6503 0.928024 12.1622 1.22622 11.4687C1.50923 10.8105 1.88744 10.0672 2.27144 9.36108C2.55909 8.83212 2.84643 8.33048 3.09327 7.91002C3.31521 8.34415 3.57283 8.86167 3.82918 9.40649C4.1714 10.1338 4.50567 10.8978 4.74987 11.5714C5.00715 12.2811 5.12063 12.7767 5.11358 13.0185Z" fill="#FF7400" stroke="#261204" stroke-width="1.5"/>
</svg>
