<svg width="18" height="21" viewBox="0 0 18 21" fill="none" xmlns="http://www.w3.org/2000/svg">
<path d="M4.71006 2.77899H3.76946C2.10401 2.77899 0.753891 4.12911 0.753891 5.79456L0.753891 17.2306C0.753891 18.896 2.10401 20.2462 3.76946 20.2462H13.563C15.2285 20.2462 16.5786 18.896 16.5786 17.2306L16.5786 5.79456C16.5786 4.12911 15.2285 2.77899 13.563 2.77899L12.6224 2.77899" stroke="#887A7A" stroke-width="1.5"/>
<path d="M7.15853 0.753891L10.1741 0.753891C11.4232 0.753891 12.4358 1.76648 12.4358 3.01557C12.4358 4.26465 11.4232 5.27724 10.1741 5.27724L7.15853 5.27724C5.90944 5.27724 4.89686 4.26465 4.89686 3.01557C4.89686 1.76648 5.90944 0.753891 7.15853 0.753891Z" stroke="#887A7A" stroke-width="1.5"/>
<path d="M4.64556 9.2921L12.6871 9.2921" stroke="#887A7A" stroke-width="1.5" stroke-linecap="round"/>
<path d="M4.64556 12.3077L12.6871 12.3077" stroke="#887A7A" stroke-width="1.5" stroke-linecap="round"/>
<path d="M4.64556 15.3232L12.6871 15.3232" stroke="#887A7A" stroke-width="1.5" stroke-linecap="round"/>
</svg>
