<svg width="27" height="25" viewBox="0 0 27 25" fill="none" xmlns="http://www.w3.org/2000/svg">
<path d="M0.854226 18.7861C0.207361 14.6788 2.66111 10.7158 6.62615 9.46406C7.80761 9.09108 8.88427 9.32614 9.38598 10.0947C10.1357 11.2432 10.7643 12.8582 11.2409 14.6908C11.8726 17.1197 11.1482 19.3263 9.61689 20.9686C8.07372 22.6237 5.70588 23.7036 3.10244 23.7814C2.27101 23.8063 1.55079 23.209 1.42139 22.3874L0.854226 18.7861Z" fill="#FF7400" stroke="#261204" stroke-width="1.5"/>
<path d="M26.1439 18.7288C26.7943 14.6636 24.3744 10.7338 20.4516 9.48472C19.2272 9.09486 18.1058 9.3363 17.5866 10.1416C16.8493 11.2852 16.2292 12.8768 15.756 14.6784C15.1183 17.1058 15.8374 19.3141 17.3646 20.9602C18.9037 22.6191 21.2689 23.7048 23.8721 23.789C24.7035 23.8159 25.4252 23.2205 25.5566 22.3991L26.1439 18.7288Z" fill="#FF7400" stroke="#261204" stroke-width="1.5"/>
<path fill-rule="evenodd" clip-rule="evenodd" d="M10.3683 3.12862C10.3683 1.40073 11.7691 0 13.497 0C15.2248 0 16.6256 1.40073 16.6256 3.12862V8.34845C16.6256 9.83726 17.3938 11.2207 18.6577 12.0076L20.3088 13.0358C21.6371 13.8629 21.938 15.668 20.9497 16.8812C20.1238 17.8951 18.6729 18.1369 17.5629 17.4456L15.9853 16.4633C14.462 15.5148 12.5319 15.5148 11.0086 16.4633L9.43105 17.4456C8.32098 18.1369 6.87014 17.8951 6.04423 16.8812C5.05597 15.668 5.3568 13.8629 6.6851 13.0358L8.33626 12.0076C9.60008 11.2207 10.3683 9.83726 10.3683 8.34846V3.12862Z" fill="#FF7400"/>
<path d="M11.3706 5.03671H15.6115" stroke="#261204" stroke-width="1.5" stroke-linecap="round"/>
<path d="M11.3706 8.81489H15.6115" stroke="#261204" stroke-width="1.5" stroke-linecap="round"/>
<path fill-rule="evenodd" clip-rule="evenodd" d="M10.3683 3.12862C10.3683 1.40073 11.7691 0 13.497 0C15.2248 0 16.6256 1.40073 16.6256 3.12862V8.34845C16.6256 9.83726 17.3938 11.2207 18.6577 12.0076L20.3088 13.0358C21.6371 13.8629 21.938 15.668 20.9497 16.8812C20.1238 17.8951 18.6729 18.1369 17.5629 17.4456L15.9853 16.4633C14.462 15.5148 12.5319 15.5148 11.0086 16.4633L9.43105 17.4456C8.32098 18.1369 6.87014 17.8951 6.04423 16.8812C5.05597 15.668 5.3568 13.8629 6.6851 13.0358L8.33626 12.0076C9.60008 11.2207 10.3683 9.83726 10.3683 8.34846V3.12862ZM13.497 1.87717C12.8058 1.87717 12.2455 2.43746 12.2455 3.12862V10.0902C12.2455 11.1441 11.7017 12.1234 10.807 12.6805L7.72092 14.6021C7.27521 14.8797 7.26667 15.5255 7.70488 15.8147C7.93978 15.9698 8.24346 15.9738 8.48238 15.825L10.8332 14.3612C12.4639 13.3458 14.53 13.3458 16.1607 14.3612L18.5115 15.825C18.7505 15.9738 19.0541 15.9698 19.289 15.8147C19.7272 15.5255 19.7187 14.8797 19.273 14.6021L16.1869 12.6805C15.2922 12.1234 14.7484 11.1441 14.7484 10.0902V3.12862C14.7484 2.43747 14.1881 1.87717 13.497 1.87717Z" fill="#261204"/>
<path d="M3.85318 17.2054C3.86907 17.8952 4.34915 19.4383 6.14228 20.0931" stroke="white" stroke-width="1.5" stroke-linecap="round"/>
<path d="M23.1385 17.2054C23.1226 17.8952 22.6425 19.4383 20.8494 20.0931" stroke="white" stroke-width="1.5" stroke-linecap="round"/>
</svg>
