<svg width="20" height="21" viewBox="0 0 20 21" fill="none" xmlns="http://www.w3.org/2000/svg">
<path d="M17.7817 13.7449V15.6059C17.7817 17.2899 16.4166 18.655 14.7326 18.655H12.8457" stroke="#887A7A" stroke-width="1.5"/>
<path d="M0.762283 9.95404C0.762283 9.37267 1.1569 8.86548 1.72042 8.72256L2.4187 8.54546C3.2216 8.34182 4.0015 8.94862 4.0015 9.77694V12.6946C4.0015 13.5229 3.2216 14.1297 2.4187 13.9261L1.72042 13.749C1.1569 13.6061 0.762283 13.0989 0.762283 12.5175V9.95404Z" stroke="#887A7A" stroke-width="1.5"/>
<path d="M12.2874 17.5692C12.8924 17.5692 13.3806 18.0637 13.373 18.6686C13.3655 19.2628 12.8817 19.7405 12.2874 19.7405L9.61944 19.7405C9.02519 19.7405 8.54136 19.2628 8.53387 18.6686C8.52625 18.0637 9.0145 17.5692 9.61944 17.5692L12.2874 17.5692Z" stroke="#887A7A" stroke-width="1.5"/>
<path d="M19.2377 9.95404C19.2377 9.37267 18.8431 8.86548 18.2796 8.72256L17.5813 8.54546C16.7784 8.34182 15.9985 8.94862 15.9985 9.77694V12.6946C15.9985 13.5229 16.7784 14.1297 17.5813 13.9261L18.2796 13.749C18.8431 13.6061 19.2377 13.0989 19.2377 12.5175V9.95404Z" stroke="#887A7A" stroke-width="1.5"/>
<path d="M17.6183 8.38064C17.6183 4.17314 14.2075 0.762283 9.99999 0.762283C5.79249 0.762283 2.38164 4.17314 2.38164 8.38064" stroke="#887A7A" stroke-width="1.5" stroke-linecap="round"/>
</svg>
