<svg width="50" height="50" viewBox="0 0 50 50" fill="none" xmlns="http://www.w3.org/2000/svg">
<circle cx="25" cy="25" r="24" stroke="#FFC9C9" stroke-width="2"/>
<path d="M22.1179 16.7009L23.7358 16.1999C23.9275 16.1405 24.1269 16.1104 24.3275 16.1104H26.2267C26.4481 16.1104 26.6681 16.1471 26.8774 16.2192L28.1394 16.6534C28.7417 16.8607 29.2093 17.3425 29.3984 17.9508L29.865 19.4512C30.0063 19.9057 29.9809 20.3958 29.7933 20.8333L29.0976 22.4555L28.3332 24.8384C28.2337 25.1486 28.2114 25.4784 28.2684 25.7992L28.6819 28.1263C28.7237 28.3616 28.7155 28.6031 28.658 28.8351L28.0108 31.4428C27.8402 32.13 26.901 32.222 26.6005 31.5809C26.5744 31.5252 26.5415 31.473 26.5027 31.4253L26.2238 31.0828C25.6585 30.3886 24.5637 30.5161 24.173 31.3215C23.6763 32.3454 22.1735 32.1969 21.8868 31.0957L21.3281 28.95C21.2482 28.6432 21.2424 28.3219 21.3111 28.0124L21.7944 25.8362C21.8709 25.492 21.855 25.1338 21.7484 24.7977L21.2066 23.09L20.2684 20.9189C20.0572 20.4302 20.0496 19.8775 20.2472 19.3832L20.8524 17.869C21.0764 17.3087 21.5415 16.8794 22.1179 16.7009Z" fill="#FF7400"/>
<path d="M24.8709 25.0727L23.1797 19.2832H27.0549L24.8709 25.0727Z" fill="white"/>
<path d="M24.9473 18.9636H27.0694L35.6872 16.8525C37.0334 16.5227 38.6826 16.8918 38.8316 18.2697C38.9439 19.3089 38.4823 20.5592 36.675 21.7298" stroke="#261204" stroke-width="1.5" stroke-linecap="round"/>
<path d="M25.0537 18.9636H22.9316L14.3138 16.8525C12.9676 16.5227 11.3183 16.8918 11.1694 18.2697C11.057 19.3089 11.5187 20.5592 13.326 21.7298" stroke="#261204" stroke-width="1.5" stroke-linecap="round"/>
<path d="M36.4417 21.9523C36.5642 22.5782 36.0149 23.5299 34.7796 23.8365C33.5444 24.1431 32.6904 23.5397 32.5679 22.9138C32.4453 22.288 32.9946 21.3363 34.2299 21.0297C35.4651 20.7231 36.3191 21.3265 36.4417 21.9523Z" fill="#FF7400" stroke="#261204" stroke-width="1.5"/>
<path d="M13.5593 21.9523C13.4367 22.5782 13.9861 23.5299 15.2213 23.8365C16.4566 24.1431 17.3105 23.5397 17.4331 22.9138C17.5557 22.288 17.0064 21.3363 15.7711 21.0297C14.5359 20.7231 13.6819 21.3265 13.5593 21.9523Z" fill="#FF7400" stroke="#261204" stroke-width="1.5"/>
<path d="M30.0521 21.8373L30.6512 22.2885L30.0521 21.8373ZM28.9223 23.337L28.3233 22.8857L28.9223 23.337ZM29.1041 29.291L28.3943 29.0488L29.1041 29.291ZM26.1119 35.7354C25.9781 36.1274 26.1874 36.5536 26.5794 36.6874C26.9714 36.8212 27.3977 36.6119 27.5315 36.2199L26.1119 35.7354ZM28.7918 26.6876L29.4241 26.2843L28.7918 26.6876ZM30.5514 20.5572L31.2978 20.6307V20.6307L30.5514 20.5572ZM29.4531 21.386L28.3233 22.8857L29.5214 23.7883L30.6512 22.2885L29.4531 21.386ZM28.3943 29.0488L26.1119 35.7354L27.5315 36.2199L29.8139 29.5333L28.3943 29.0488ZM24 16.75H26.4208V15.25H24V16.75ZM28.1594 27.0909C28.5313 27.6739 28.6177 28.3944 28.3943 29.0488L29.8139 29.5333C30.1846 28.4474 30.0411 27.2518 29.4241 26.2843L28.1594 27.0909ZM28.3233 22.8857C27.3966 24.1159 27.3312 25.7923 28.1594 27.0909L29.4241 26.2843C28.9325 25.5135 28.9713 24.5185 29.5214 23.7883L28.3233 22.8857ZM29.805 20.4837C29.7728 20.8111 29.651 21.1233 29.4531 21.386L30.6512 22.2885C31.0149 21.8058 31.2386 21.2322 31.2978 20.6307L29.805 20.4837ZM31.2978 20.6307C31.5815 17.7483 29.317 15.25 26.4208 15.25V16.75C28.4305 16.75 30.0019 18.4836 29.805 20.4837L31.2978 20.6307Z" fill="#261204"/>
<path d="M23.3561 36.0639L20.9241 29.2997C20.6099 28.4259 20.7183 27.4557 21.2177 26.6728V26.6728C21.8719 25.647 21.8203 24.3228 21.0882 23.351L19.9479 21.8373C19.6671 21.4645 19.4943 21.0216 19.4486 20.5572V20.5572C19.2083 18.116 21.1262 16 23.5792 16H26" stroke="#261204" stroke-width="1.5"/>
<path d="M26.7906 35.9998V32.7034C26.7906 31.8754 26.5252 31.0693 26.0333 30.4033L25.9937 30.3496C25.5294 29.721 24.5893 29.721 24.125 30.3496L24.0854 30.4033C23.5935 31.0693 23.3281 31.8754 23.3281 32.7034V35.9998" stroke="#261204" stroke-width="1.5" stroke-linecap="round"/>
<path d="M27.125 19.0892L26.651 20.2565C26.3739 20.9387 26.2315 21.6681 26.2315 22.4045L26.2315 22.5987C26.2315 23.1739 26.0461 23.7338 25.7028 24.1954V24.1954C25.3818 24.627 24.7355 24.627 24.4146 24.1954V24.1954C24.0713 23.7338 23.8859 23.1739 23.8859 22.5987L23.8859 22.4637C23.8859 21.69 23.7195 20.9253 23.398 20.2215L22.8807 19.0892" stroke="#261204" stroke-width="1.5" stroke-linecap="round"/>
<path d="M25.0586 24.6221V29.4628" stroke="#261204" stroke-width="1.5" stroke-linecap="round"/>
</svg>
