<svg width="50" height="50" viewBox="0 0 50 50" fill="none" xmlns="http://www.w3.org/2000/svg">
<circle cx="25" cy="25" r="24" stroke="#FFC9C9" stroke-width="2"/>
<path d="M23.0475 13.2832L24.6923 14.1416L27.2667 13.7125L28.84 15.0712H29.9126L31.9865 15.5718L32.8446 18.0747L34.9899 20.6491L34.4893 23.152L35.4905 26.0124L34.9899 28.3723L32.8446 29.9455L33.4882 31.7333L32.8446 33.6641L30.5562 34.2362L29.1975 35.8094H26.2656L24.6923 34.2362L23.0475 35.8094H20.5446L19.2575 34.2362H17.9702L16.4686 32.949V29.9455L14.3232 27.3711L14.8238 23.724V20.6491L16.8261 18.3607L17.9702 15.5718L20.5446 15.0712L23.0475 13.2832Z" fill="#FF7400"/>
<path d="M20.8139 15.3627C21.023 14.7709 21.3816 14.2534 21.8689 13.9057C22.8469 13.2079 24.0448 13.407 24.8389 14.2964" stroke="#261204" stroke-width="1.5" stroke-linecap="round"/>
<path d="M22.1373 18.2996C22.1609 16.5094 21.0056 15.0345 19.557 15.0054C18.1084 14.9762 16.915 16.4039 16.8914 18.1941" stroke="#261204" stroke-width="1.5" stroke-linecap="round"/>
<path d="M16.8917 18.2996C15.4437 18.7499 14.5652 20.5656 14.9296 22.3551C15.294 24.1446 16.7632 25.2302 18.2112 24.7799" stroke="#261204" stroke-width="1.5" stroke-linecap="round"/>
<path d="M16.763 30.0704C15.7507 29.7696 14.8787 28.8603 14.5076 27.5563C14.0887 26.0846 14.4221 24.5114 15.2589 23.4776" stroke="#261204" stroke-width="1.5" stroke-linecap="round"/>
<path d="M19.1033 34.1517C18.018 34.6234 16.8287 33.9186 16.447 32.5773C16.1991 31.706 16.3529 30.7805 16.7886 30.1096" stroke="#261204" stroke-width="1.5" stroke-linecap="round"/>
<path d="M19.0113 30.2577C19.7011 29.5887 20.6992 29.7373 21.2406 30.5898C21.49 30.9825 21.599 31.456 21.5766 31.9179" stroke="white" stroke-width="1.5" stroke-linecap="round"/>
<path d="M20.4786 29.898C19.7192 29.3562 19.459 28.1561 19.8974 27.2176C20.0994 26.7853 20.4143 26.4839 20.7696 26.3375" stroke="white" stroke-width="1.5" stroke-linecap="round"/>
<path d="M19.1034 20.0112C18.8157 21.338 19.4528 22.7018 20.5264 23.0573C21.1526 23.2646 21.789 23.0832 22.2677 22.6327" stroke="white" stroke-width="1.5" stroke-linecap="round"/>
<path d="M23.6556 20.0112C24.1754 20.1828 24.6124 20.605 24.8765 21.1668" stroke="#261204" stroke-width="1.5" stroke-linecap="round"/>
<path d="M19.1267 34.1877C20.0196 36.0988 21.9969 36.7536 23.5434 35.6502C25.0898 34.5468 25.6196 32.1031 24.7268 30.192C24.2528 29.1774 23.473 28.5169 22.6144 28.2856" stroke="#261204" stroke-width="1.5" stroke-linecap="round"/>
<path d="M28.9488 15.3622C28.7397 14.7703 28.3812 14.2529 27.8938 13.9052C26.8929 13.191 25.6616 13.4163 24.8686 14.3597" stroke="#261204" stroke-width="1.5" stroke-linecap="round"/>
<path d="M27.6254 18.2991C27.6018 16.5089 28.7571 15.034 30.2057 15.0049C31.6543 14.9758 32.8477 16.4034 32.8713 18.1937" stroke="#261204" stroke-width="1.5" stroke-linecap="round"/>
<path d="M32.871 18.2991C34.319 18.7494 35.1975 20.5651 34.8331 22.3546C34.4687 24.1441 32.9995 25.2297 31.5515 24.7794" stroke="#261204" stroke-width="1.5" stroke-linecap="round"/>
<path d="M32.9997 30.0704C34.012 29.7696 34.884 28.8603 35.2551 27.5563C35.674 26.0846 35.3406 24.5114 34.5038 23.4776" stroke="#261204" stroke-width="1.5" stroke-linecap="round"/>
<path d="M30.6589 34.1512C31.7442 34.623 32.9335 33.9181 33.3152 32.5768C33.5631 31.7055 33.4093 30.78 32.9736 30.1091" stroke="#261204" stroke-width="1.5" stroke-linecap="round"/>
<path d="M30.7509 30.2568C30.0611 29.5877 29.063 29.7363 28.5216 30.5888C28.2722 30.9815 28.1632 31.455 28.1856 31.9169" stroke="white" stroke-width="1.5" stroke-linecap="round"/>
<path d="M29.2841 29.898C30.0435 29.3562 30.3037 28.1561 29.8653 27.2176C29.6633 26.7853 29.3484 26.4839 28.9931 26.3375" stroke="white" stroke-width="1.5" stroke-linecap="round"/>
<path d="M30.6588 20.0103C30.9465 21.337 30.3094 22.7008 29.2358 23.0563C28.6096 23.2637 27.9732 23.0822 27.4945 22.6317" stroke="white" stroke-width="1.5" stroke-linecap="round"/>
<path d="M26.107 25.8584C25.5695 26.0358 25.1207 26.4812 24.8599 27.0717" stroke="#261204" stroke-width="1.5" stroke-linecap="round"/>
<path d="M30.6357 34.187C29.7429 36.0981 27.7655 36.7529 26.2191 35.6495C25.625 35.2256 25.1809 34.6037 24.9099 33.8903" stroke="#261204" stroke-width="1.5" stroke-linecap="round"/>
<path d="M24.8677 14.3125V30.6656" stroke="#261204" stroke-width="1.5"/>
</svg>
