<svg width="25" height="25" viewBox="0 0 25 25" fill="none" xmlns="http://www.w3.org/2000/svg">
<path d="M6.06103 18.939L0.969981 24.03" stroke="#261204" stroke-width="1.87679" stroke-linecap="round"/>
<path d="M22.2297 2.76994L19.5297 5.46988" stroke="#261204" stroke-width="1.87679" stroke-linecap="round"/>
<path d="M15.2485 1.18869L23.8111 9.75131L13.9281 19.6343C11.5636 21.9988 7.72998 21.9988 5.36548 19.6343C3.00097 17.2698 3.00097 13.4362 5.36548 11.0717L15.2485 1.18869Z" fill="#FF7400"/>
<path d="M13.6797 5.91996L15.481 7.72127" stroke="white" stroke-width="1.87679" stroke-linecap="round"/>
<path d="M9.17988 10.4199L10.9812 12.2212" stroke="white" stroke-width="1.87679" stroke-linecap="round"/>
<path d="M15.2485 2.56054L22.4393 9.75131L13.2422 18.9484C11.2565 20.9341 8.03708 20.9341 6.0514 18.9484C4.06572 16.9627 4.06572 13.7433 6.0514 11.7576L15.2485 2.56054Z" stroke="#261204" stroke-width="1.87679"/>
<path d="M11.4301 8.16988L14.13 10.8698" stroke="#261204" stroke-width="1.87679" stroke-linecap="round"/>
<path d="M6.96201 12.5722L9.66195 15.2721" stroke="#261204" stroke-width="1.87679" stroke-linecap="round"/>
<path d="M20.4297 0.970003L24.0297 4.56992" stroke="#261204" stroke-width="1.87679" stroke-linecap="round"/>
</svg>
