<svg width="17" height="21" viewBox="0 0 17 21" fill="none" xmlns="http://www.w3.org/2000/svg">
<circle cx="8.49418" cy="19.4289" r="1.57108" fill="#5B4C41"/>
<path d="M2.64626 6.63346C2.64626 3.40374 5.26446 0.785541 8.49418 0.785541C11.7239 0.785541 14.3421 3.40374 14.3421 6.63346V7.31135C14.3421 7.80984 14.4379 8.30368 14.6244 8.76598L16.0547 12.3118C16.4966 13.4074 15.9111 14.6471 14.7843 15.0018L14.0827 15.2227C10.445 16.3679 6.54334 16.3679 2.90567 15.2227L2.20407 15.0018L1.96819 15.7511L2.20407 15.0018C1.07725 14.6471 0.491787 13.4074 0.933698 12.3118L2.36394 8.76599C2.55041 8.30368 2.64626 7.80984 2.64626 7.31135V6.63346Z" stroke="#5B4C41" stroke-width="1.5"/>
</svg>
