<svg width="22" height="27" viewBox="0 0 22 27" fill="none" xmlns="http://www.w3.org/2000/svg">
<mask id="mask0_227_172" style="mask-type:alpha" maskUnits="userSpaceOnUse" x="0" y="0" width="22" height="27">
<path d="M19.3516 7.55829L8.51457 0.176109C8.10231 -0.104717 7.54722 -0.0450299 7.2041 0.317021L0.275002 7.62827C-0.097693 8.02152 -0.0961297 8.63663 0.303447 9.00254C1.97422 10.5325 5.13079 12.956 7.76454 14.2648C8.41949 14.5902 8.65183 15.4997 8.33205 16.1574C7.86812 17.1117 7.58021 18.3647 8.12042 19.5633C8.74097 20.9402 7.96262 23.4722 7.10843 25.4398C6.77082 26.2175 7.41624 27.1198 8.25357 26.9868L17.4251 25.5299C17.8248 25.4664 18.1484 25.1738 18.2495 24.7819C18.9993 21.8774 20.3982 16.4549 21.1098 13.6847C21.8781 10.694 20.7453 8.47055 19.3516 7.55829Z" fill="#FF7400"/>
</mask>
<g mask="url(#mask0_227_172)">
<path d="M19.3516 7.55829L8.51457 0.176109C8.10231 -0.104717 7.54722 -0.0450299 7.2041 0.317021L0.275002 7.62827C-0.097693 8.02152 -0.0961297 8.63663 0.303447 9.00254C1.97422 10.5325 5.13079 12.956 7.76454 14.2648C8.41949 14.5902 8.65183 15.4997 8.33205 16.1574C7.86812 17.1117 7.58021 18.3647 8.12042 19.5633C8.74097 20.9402 7.96262 23.4722 7.10843 25.4398C6.77082 26.2175 7.41624 27.1198 8.25357 26.9868L17.4251 25.5299C17.8248 25.4664 18.1484 25.1738 18.2495 24.7819C18.9993 21.8774 20.3982 16.4549 21.1098 13.6847C21.8781 10.694 20.7453 8.47055 19.3516 7.55829Z" fill="#FF7400"/>
<path fill-rule="evenodd" clip-rule="evenodd" d="M10.491 11.9754C10.7499 13.0579 11.8606 13.8863 12.9719 13.8257C14.0833 13.765 14.7744 12.8383 14.5156 11.7558C14.4986 11.6847 14.55 11.6148 14.6231 11.6108C15.7344 11.5501 16.4256 10.6234 16.1667 9.54095C15.9079 8.45845 14.7972 7.63006 13.6858 7.6907L13.1344 7.72079C12.4212 7.75969 11.717 7.54714 11.1445 7.12015L4.16244 1.91293C3.4696 1.39621 2.48905 1.53898 1.97233 2.23183C1.45561 2.92467 1.59838 3.90521 2.29123 4.42194L9.18652 9.56443C9.75904 9.99141 10.1636 10.6057 10.3297 11.3004L10.491 11.9754Z" fill="white"/>
<path fill-rule="evenodd" clip-rule="evenodd" d="M11.3389 18.3482C10.8629 17.5238 11.1454 16.4696 11.9698 15.9936C12.7943 15.5176 13.8485 15.8001 14.3245 16.6245C14.3578 16.6821 14.4315 16.7019 14.489 16.6687C15.3135 16.1927 16.3677 16.4752 16.8437 17.2996C17.3197 18.1241 17.0372 19.1783 16.2128 19.6543L15.9738 19.7923C15.2731 20.1968 14.7619 20.8631 14.5525 21.6445L12.9286 27.7048C12.7175 28.4929 11.9073 28.9607 11.1191 28.7495C10.3309 28.5383 9.86318 27.7281 10.0744 26.94L11.7206 20.7962C11.93 20.0147 11.8204 19.1821 11.4158 18.4815L11.3389 18.3482Z" fill="white"/>
<path d="M18.9223 8.18856L18.9222 8.18866L18.9339 8.19635C20.0172 8.90543 21.0699 10.775 20.3712 13.495C19.6597 16.2646 18.2609 21.6867 17.5111 24.5913C17.4863 24.6875 17.4071 24.7606 17.3054 24.7768L8.13393 26.2337C8.03537 26.2493 7.9347 26.2124 7.85603 26.1048C7.77473 25.9936 7.75811 25.8583 7.80796 25.7435C8.24623 24.7339 8.67509 23.5578 8.91334 22.4388C9.1439 21.356 9.23127 20.1721 8.81567 19.25C8.40676 18.3427 8.60322 17.3438 9.01789 16.4909C9.26759 15.9773 9.29362 15.3904 9.14713 14.8772C9.00014 14.3622 8.659 13.8577 8.10391 13.5818C5.55519 12.3153 2.45745 9.94098 0.818472 8.44012C0.75479 8.3818 0.72859 8.25829 0.828517 8.15285L7.75761 0.841605C7.84339 0.751091 7.98217 0.73617 8.08523 0.806376L8.51457 0.176109L8.08523 0.806376L18.9223 8.18856Z" stroke="#261204" stroke-width="1.5" stroke-linecap="round"/>
<path d="M16.799 12.8645L15.4019 14.3331C15.1326 14.6162 15.27 15.0847 15.6495 15.1774L17.4596 15.6198C17.8243 15.7089 18.1565 15.3855 18.0772 15.0185L17.6643 13.1075C17.5781 12.7084 17.0804 12.5687 16.799 12.8645Z" fill="white"/>
</g>
</svg>
