<svg width="24" height="24" viewBox="0 0 24 24" fill="none" xmlns="http://www.w3.org/2000/svg">
<path d="M2.75 18.1112C2.75 12.6456 5.41671 7.5238 9.8943 4.38948L10.1362 4.22012C11.2553 3.43679 12.7447 3.43679 13.8638 4.22012L14.1057 4.38948C18.5833 7.5238 21.25 12.6456 21.25 18.1112C21.25 19.8447 19.8447 21.25 18.1112 21.25H17.3383C15.7676 21.25 14.4217 20.1267 14.1407 18.5814L13.7218 16.2771C13.3734 14.3612 10.6266 14.3612 10.2782 16.2771L9.85927 18.5814C9.5783 20.1267 8.23237 21.25 6.66169 21.25H5.88878C4.15528 21.25 2.75 19.8447 2.75 18.1112Z" stroke="#887A7A" stroke-width="1.5"/>
</svg>
