<svg width="30" height="30" viewBox="0 0 30 30" fill="none" xmlns="http://www.w3.org/2000/svg">
<path d="M9.37842 10V10C11.4495 10 13.1284 11.6789 13.1284 13.75V22.5" stroke="black" stroke-width="1.5" stroke-linecap="round"/>
<path d="M20.3784 10V10C18.3074 10 16.6284 11.6789 16.6284 13.75V22.5" stroke="black" stroke-width="1.5" stroke-linecap="round"/>
<mask id="path-3-outside-1_227_75" maskUnits="userSpaceOnUse" x="2.24658" y="2.125" width="9" height="16" fill="black">
<rect fill="white" x="2.24658" y="2.125" width="9" height="16"/>
<path fill-rule="evenodd" clip-rule="evenodd" d="M8.80556 6.68734C9.39227 6.10248 9.39378 5.15273 8.80892 4.56602C8.22406 3.97931 7.27431 3.9778 6.6876 4.56266C5.17615 6.06934 4.19952 7.98256 4.19952 10.1298C4.19952 12.2771 5.17615 14.1903 6.6876 15.697C7.27431 16.2819 8.22406 16.2804 8.80892 15.6936C9.39378 15.1069 9.39227 14.1572 8.80556 13.5723C8.02333 12.7926 7.52903 11.9525 7.31787 11.0958L7.35418 11.0958C7.90647 11.0958 8.35418 10.6481 8.35418 10.0958C8.35418 9.54354 7.90647 9.09583 7.35418 9.09583L7.33524 9.09583C7.55541 8.26273 8.04405 7.44645 8.80556 6.68734Z"/>
</mask>
<path fill-rule="evenodd" clip-rule="evenodd" d="M8.80556 6.68734C9.39227 6.10248 9.39378 5.15273 8.80892 4.56602C8.22406 3.97931 7.27431 3.9778 6.6876 4.56266C5.17615 6.06934 4.19952 7.98256 4.19952 10.1298C4.19952 12.2771 5.17615 14.1903 6.6876 15.697C7.27431 16.2819 8.22406 16.2804 8.80892 15.6936C9.39378 15.1069 9.39227 14.1572 8.80556 13.5723C8.02333 12.7926 7.52903 11.9525 7.31787 11.0958L7.35418 11.0958C7.90647 11.0958 8.35418 10.6481 8.35418 10.0958C8.35418 9.54354 7.90647 9.09583 7.35418 9.09583L7.33524 9.09583C7.55541 8.26273 8.04405 7.44645 8.80556 6.68734Z" fill="#FF7400"/>
<path d="M8.80892 4.56602L7.74658 5.625L7.74658 5.625L8.80892 4.56602ZM8.80556 6.68734L7.74658 5.625L8.80556 6.68734ZM6.6876 4.56266L7.74658 5.625L7.74658 5.625L6.6876 4.56266ZM6.6876 15.697L5.62862 16.7593L5.62862 16.7593L6.6876 15.697ZM8.80892 15.6936L9.87125 16.7526L9.87126 16.7526L8.80892 15.6936ZM8.80556 13.5723L9.86454 12.51L8.80556 13.5723ZM7.31787 11.0958L7.31787 9.59583L5.40325 9.59583L5.86146 11.4548L7.31787 11.0958ZM7.35418 9.09583L7.35418 7.59583L7.35418 9.09583ZM7.33524 9.09583L5.88503 8.71257L5.38733 10.5958L7.33524 10.5958L7.33524 9.09583ZM7.74658 5.625L7.74658 5.625L9.86454 7.74967C11.038 6.57996 11.041 4.68046 9.87125 3.50704L7.74658 5.625ZM7.74658 5.625L7.74658 5.625L9.87125 3.50704C8.70154 2.33361 6.80204 2.33061 5.62862 3.50033L7.74658 5.625ZM5.69952 10.1298C5.69952 8.46415 6.45273 6.91476 7.74658 5.625L5.62862 3.50033C3.89957 5.22392 2.69952 7.50097 2.69952 10.1298L5.69952 10.1298ZM7.74658 14.6347C6.45273 13.3449 5.69952 11.7955 5.69952 10.1298L2.69952 10.1298C2.69952 12.7587 3.89957 15.0358 5.62862 16.7593L7.74658 14.6347ZM7.74658 14.6347L7.74658 14.6347L5.62862 16.7593C6.80205 17.9291 8.70154 17.9261 9.87125 16.7526L7.74658 14.6347ZM7.74658 14.6347L7.74658 14.6347L9.87126 16.7526C11.041 15.5792 11.038 13.6797 9.86454 12.51L7.74658 14.6347ZM5.86146 11.4548C6.14984 12.6248 6.80738 13.6984 7.74658 14.6347L9.86454 12.51C9.23928 11.8867 8.90821 11.2802 8.77428 10.7368L5.86146 11.4548ZM7.35418 9.59583L7.31787 9.59583L7.31787 12.5958L7.35418 12.5958L7.35418 9.59583ZM6.85418 10.0958C6.85418 9.81968 7.07804 9.59583 7.35418 9.59583L7.35418 12.5958C8.73489 12.5958 9.85418 11.4765 9.85418 10.0958L6.85418 10.0958ZM7.35418 10.5958C7.07804 10.5958 6.85418 10.372 6.85418 10.0958L9.85418 10.0958C9.85418 8.71511 8.73489 7.59583 7.35418 7.59583L7.35418 10.5958ZM7.33524 10.5958L7.35418 10.5958L7.35418 7.59583L7.33524 7.59583L7.33524 10.5958ZM7.74658 5.625C6.83232 6.53638 6.18489 7.57792 5.88503 8.71257L8.78545 9.47908C8.92593 8.94753 9.25578 8.35652 9.86454 7.74967L7.74658 5.625Z" fill="black" mask="url(#path-3-outside-1_227_75)"/>
<mask id="path-5-outside-2_227_75" maskUnits="userSpaceOnUse" x="18.7534" y="2.125" width="9" height="16" fill="black">
<rect fill="white" x="18.7534" y="2.125" width="9" height="16"/>
<path fill-rule="evenodd" clip-rule="evenodd" d="M21.1944 6.68734C20.6077 6.10248 20.6062 5.15273 21.1911 4.56602C21.7759 3.97931 22.7257 3.9778 23.3124 4.56266C24.8238 6.06934 25.8005 7.98256 25.8005 10.1298C25.8005 12.2771 24.8238 14.1903 23.3124 15.697C22.7257 16.2819 21.7759 16.2804 21.1911 15.6936C20.6062 15.1069 20.6077 14.1572 21.1944 13.5723C21.9767 12.7926 22.471 11.9525 22.6821 11.0958L22.6458 11.0958C22.0935 11.0958 21.6458 10.6481 21.6458 10.0958C21.6458 9.54354 22.0935 9.09583 22.6458 9.09583L22.6648 9.09583C22.4446 8.26273 21.956 7.44645 21.1944 6.68734Z"/>
</mask>
<path fill-rule="evenodd" clip-rule="evenodd" d="M21.1944 6.68734C20.6077 6.10248 20.6062 5.15273 21.1911 4.56602C21.7759 3.97931 22.7257 3.9778 23.3124 4.56266C24.8238 6.06934 25.8005 7.98256 25.8005 10.1298C25.8005 12.2771 24.8238 14.1903 23.3124 15.697C22.7257 16.2819 21.7759 16.2804 21.1911 15.6936C20.6062 15.1069 20.6077 14.1572 21.1944 13.5723C21.9767 12.7926 22.471 11.9525 22.6821 11.0958L22.6458 11.0958C22.0935 11.0958 21.6458 10.6481 21.6458 10.0958C21.6458 9.54354 22.0935 9.09583 22.6458 9.09583L22.6648 9.09583C22.4446 8.26273 21.956 7.44645 21.1944 6.68734Z" fill="#FF7400"/>
<path d="M21.1911 4.56602L22.2534 5.625L22.2534 5.625L21.1911 4.56602ZM21.1944 6.68734L22.2534 5.625L21.1944 6.68734ZM23.3124 4.56266L22.2534 5.625L22.2534 5.625L23.3124 4.56266ZM23.3124 15.697L24.3714 16.7593L24.3714 16.7593L23.3124 15.697ZM21.1911 15.6936L20.1287 16.7526L20.1287 16.7526L21.1911 15.6936ZM21.1944 13.5723L20.1355 12.51L21.1944 13.5723ZM22.6821 11.0958L22.6821 9.59583L24.5968 9.59583L24.1385 11.4548L22.6821 11.0958ZM22.6648 9.09583L24.115 8.71257L24.6127 10.5958L22.6648 10.5958L22.6648 9.09583ZM22.2534 5.625L22.2534 5.625L20.1355 7.74967C18.962 6.57996 18.959 4.68046 20.1287 3.50704L22.2534 5.625ZM22.2534 5.625L22.2534 5.625L20.1287 3.50704C21.2985 2.33361 23.198 2.33061 24.3714 3.50033L22.2534 5.625ZM24.3005 10.1298C24.3005 8.46415 23.5473 6.91476 22.2534 5.625L24.3714 3.50033C26.1004 5.22392 27.3005 7.50097 27.3005 10.1298L24.3005 10.1298ZM22.2534 14.6347C23.5473 13.3449 24.3005 11.7955 24.3005 10.1298L27.3005 10.1298C27.3005 12.7587 26.1004 15.0358 24.3714 16.7593L22.2534 14.6347ZM22.2534 14.6347L22.2534 14.6347L24.3714 16.7593C23.198 17.9291 21.2985 17.9261 20.1287 16.7526L22.2534 14.6347ZM22.2534 14.6347L22.2534 14.6347L20.1287 16.7526C18.959 15.5792 18.962 13.6797 20.1355 12.51L22.2534 14.6347ZM24.1385 11.4548C23.8502 12.6248 23.1926 13.6984 22.2534 14.6347L20.1355 12.51C20.7607 11.8867 21.0918 11.2802 21.2257 10.7368L24.1385 11.4548ZM22.6458 9.59583L22.6821 9.59583L22.6821 12.5958L22.6458 12.5958L22.6458 9.59583ZM23.1458 10.0958C23.1458 9.81968 22.922 9.59583 22.6458 9.59583L22.6458 12.5958C21.2651 12.5958 20.1458 11.4765 20.1458 10.0958L23.1458 10.0958ZM22.6458 10.5958C22.922 10.5958 23.1458 10.372 23.1458 10.0958L20.1458 10.0958C20.1458 8.71511 21.2651 7.59583 22.6458 7.59583L22.6458 10.5958ZM22.6648 10.5958L22.6458 10.5958L22.6458 7.59583L22.6648 7.59583L22.6648 10.5958ZM22.2534 5.625C23.1677 6.53638 23.8151 7.57792 24.115 8.71257L21.2145 9.47908C21.0741 8.94753 20.7442 8.35652 20.1355 7.74967L22.2534 5.625Z" fill="black" mask="url(#path-5-outside-2_227_75)"/>
<path fill-rule="evenodd" clip-rule="evenodd" d="M16.5795 26.6059C16.5795 26.3906 16.7123 26.1999 16.9043 26.1026C18.0318 25.5315 18.7896 24.4686 18.7896 23.2518C18.7896 21.4311 17.0929 19.9551 15 19.9551C12.9071 19.9551 11.2104 21.4311 11.2104 23.2518C11.2104 24.5277 12.0437 25.6344 13.2626 26.1824C13.4491 26.2662 13.5795 26.4458 13.5795 26.6503C13.5795 26.9164 13.7952 27.1321 14.0613 27.1321H16.0532C16.3439 27.1321 16.5795 26.8965 16.5795 26.6059Z" fill="white"/>
<path d="M13.2626 26.1824L13.5701 25.4983L13.2626 26.1824ZM18.0396 23.2518C18.0396 24.1372 17.4873 24.9665 16.5654 25.4336L17.2433 26.7717C18.5762 26.0964 19.5396 24.8 19.5396 23.2518H18.0396ZM15 20.7051C16.7803 20.7051 18.0396 21.94 18.0396 23.2518H19.5396C19.5396 20.9221 17.4056 19.2051 15 19.2051V20.7051ZM11.9604 23.2518C11.9604 21.94 13.2198 20.7051 15 20.7051V19.2051C12.5944 19.2051 10.4604 20.9221 10.4604 23.2518H11.9604ZM13.5701 25.4983C12.5683 25.0479 11.9604 24.1793 11.9604 23.2518H10.4604C10.4604 24.8762 11.519 26.2208 12.9551 26.8664L13.5701 25.4983ZM16.0532 26.3821H14.0613V27.8821H16.0532V26.3821ZM12.8295 26.6503C12.8295 27.3306 13.381 27.8821 14.0613 27.8821V26.3821C14.2094 26.3821 14.3295 26.5022 14.3295 26.6503H12.8295ZM12.9551 26.8664C12.906 26.8443 12.8295 26.7763 12.8295 26.6503H14.3295C14.3295 26.1153 13.9922 25.688 13.5701 25.4983L12.9551 26.8664ZM16.0532 27.8821C16.7581 27.8821 17.3295 27.3107 17.3295 26.6059H15.8295C15.8295 26.4823 15.9296 26.3821 16.0532 26.3821V27.8821ZM16.5654 25.4336C16.1557 25.6411 15.8295 26.0712 15.8295 26.6059H17.3295C17.3295 26.71 17.2688 26.7587 17.2433 26.7717L16.5654 25.4336Z" fill="black"/>
</svg>
