<svg width="30" height="30" viewBox="0 0 30 30" fill="none" xmlns="http://www.w3.org/2000/svg">
<path d="M2.37228 21.2054C1.72616 17.1029 4.17707 13.1445 8.13752 11.8942C9.31762 11.5216 10.393 11.7564 10.8942 12.524C11.643 13.6712 12.2709 15.2844 12.747 17.1148C13.3779 19.541 12.6543 21.7449 11.1248 23.3854C9.58342 25.0386 7.21832 26.1172 4.6179 26.1949C3.78742 26.2198 3.06804 25.6232 2.93879 24.8025L2.37228 21.2054Z" fill="#FF7400" stroke="#261204" stroke-width="1.5"/>
<path d="M27.6327 21.1481C28.2824 17.0877 25.8653 13.1624 21.947 11.9148C20.724 11.5254 19.6039 11.7665 19.0853 12.5709C18.3489 13.7132 17.7295 15.303 17.2568 17.1025C16.6199 19.5271 17.3381 21.7328 18.8636 23.377C20.4009 25.034 22.7633 26.1184 25.3635 26.2025C26.1939 26.2294 26.9148 25.6346 27.0461 24.8142L27.6327 21.1481Z" fill="#FF7400" stroke="#261204" stroke-width="1.5"/>
<path fill-rule="evenodd" clip-rule="evenodd" d="M11.8754 5.56592C11.8754 3.84003 13.2745 2.44092 15.0004 2.44092C16.7263 2.44092 18.1254 3.84003 18.1254 5.56592V10.7797C18.1254 12.2668 18.8928 13.6486 20.1551 14.4346L21.8044 15.4616C23.1311 16.2878 23.4316 18.0908 22.4445 19.3026C21.6195 20.3153 20.1704 20.5568 19.0616 19.8664L17.4858 18.8852C15.9643 17.9377 14.0365 17.9377 12.5149 18.8852L10.9392 19.8664C9.8304 20.5568 8.38123 20.3153 7.55628 19.3026C6.56916 18.0908 6.86965 16.2878 8.1964 15.4616L9.84566 14.4346C11.108 13.6486 11.8754 12.2668 11.8754 10.7797V5.56592Z" fill="#FF7400"/>
<path d="M12.8765 7.47168H17.1125" stroke="#261204" stroke-width="1.5" stroke-linecap="round"/>
<path d="M12.8765 11.2456H17.1125" stroke="#261204" stroke-width="1.5" stroke-linecap="round"/>
<path fill-rule="evenodd" clip-rule="evenodd" d="M11.8754 5.56592C11.8754 3.84003 13.2745 2.44092 15.0004 2.44092C16.7263 2.44092 18.1254 3.84003 18.1254 5.56592V10.7797C18.1254 12.2668 18.8928 13.6486 20.1551 14.4346L21.8044 15.4616C23.1311 16.2878 23.4316 18.0908 22.4445 19.3026C21.6195 20.3153 20.1704 20.5568 19.0616 19.8664L17.4858 18.8852C15.9643 17.9377 14.0365 17.9377 12.5149 18.8852L10.9392 19.8664C9.8304 20.5568 8.38123 20.3153 7.55628 19.3026C6.56916 18.0908 6.86965 16.2878 8.1964 15.4616L9.84566 14.4346C11.108 13.6486 11.8754 12.2668 11.8754 10.7797V5.56592ZM15.0004 4.31592C14.31 4.31592 13.7504 4.87556 13.7504 5.56592V12.5194C13.7504 13.5721 13.2072 14.5503 12.3136 15.1067L9.23103 17.0262C8.78584 17.3034 8.7773 17.9484 9.215 18.2373C9.44963 18.3922 9.75297 18.3962 9.99161 18.2476L12.3397 16.7855C13.9685 15.7712 16.0322 15.7712 17.661 16.7855L20.0092 18.2476C20.2478 18.3962 20.5511 18.3922 20.7858 18.2373C21.2235 17.9484 21.2149 17.3034 20.7697 17.0262L17.6872 15.1067C16.7936 14.5503 16.2504 13.5721 16.2504 12.5194V5.56592C16.2504 4.87556 15.6907 4.31592 15.0004 4.31592Z" fill="#261204"/>
<path d="M5.36776 19.6263C5.38364 20.3152 5.86316 21.8566 7.65421 22.5106" stroke="white" stroke-width="1.5" stroke-linecap="round"/>
<path d="M24.6308 19.6263C24.6149 20.3152 24.1354 21.8566 22.3443 22.5106" stroke="white" stroke-width="1.5" stroke-linecap="round"/>
</svg>
