<svg width="31" height="30" viewBox="0 0 31 30" fill="none" xmlns="http://www.w3.org/2000/svg">
<mask id="path-1-inside-1_227_108" fill="white">
<path fill-rule="evenodd" clip-rule="evenodd" d="M4.15362 10.6212C3.48621 5.94936 5.95285 2.6123 10.6422 2.6123C12.4486 2.6123 14.1233 3.18873 15.4996 4.1714C16.876 3.18873 18.5506 2.6123 20.357 2.6123C25.0464 2.6123 27.513 5.94936 26.8456 10.6212C26.6607 11.9157 26.0274 13.0533 25.4241 13.8817C24.7079 14.8653 24.1015 15.9625 23.8985 17.1622C23.1895 21.3526 22.0595 24.0694 19.6562 27.3777C19.1308 28.101 18.0158 27.7745 17.9268 26.885L17.0538 18.1543C16.9424 17.0408 16.3719 16.0372 15.4996 15.3718C14.6273 16.0372 14.0568 17.0408 13.9454 18.1543L13.0724 26.885C12.9834 27.7745 11.8684 28.101 11.343 27.3777C8.93968 24.0694 7.80966 21.3526 7.1007 17.1622C6.89774 15.9625 6.29134 14.8653 5.5751 13.8817C4.97179 13.0533 4.33855 11.9157 4.15362 10.6212Z"/>
</mask>
<path fill-rule="evenodd" clip-rule="evenodd" d="M4.15362 10.6212C3.48621 5.94936 5.95285 2.6123 10.6422 2.6123C12.4486 2.6123 14.1233 3.18873 15.4996 4.1714C16.876 3.18873 18.5506 2.6123 20.357 2.6123C25.0464 2.6123 27.513 5.94936 26.8456 10.6212C26.6607 11.9157 26.0274 13.0533 25.4241 13.8817C24.7079 14.8653 24.1015 15.9625 23.8985 17.1622C23.1895 21.3526 22.0595 24.0694 19.6562 27.3777C19.1308 28.101 18.0158 27.7745 17.9268 26.885L17.0538 18.1543C16.9424 17.0408 16.3719 16.0372 15.4996 15.3718C14.6273 16.0372 14.0568 17.0408 13.9454 18.1543L13.0724 26.885C12.9834 27.7745 11.8684 28.101 11.343 27.3777C8.93968 24.0694 7.80966 21.3526 7.1007 17.1622C6.89774 15.9625 6.29134 14.8653 5.5751 13.8817C4.97179 13.0533 4.33855 11.9157 4.15362 10.6212Z" fill="#FF7400"/>
<path d="M4.15362 10.6212L2.6687 10.8334L4.15362 10.6212ZM15.4996 4.1714L14.628 5.39219L15.4996 6.01448L16.3712 5.39219L15.4996 4.1714ZM26.8456 10.6212L25.3607 10.4091V10.4091L26.8456 10.6212ZM25.4241 13.8817L26.6367 14.7648L26.6367 14.7648L25.4241 13.8817ZM23.8985 17.1622L25.3775 17.4124L23.8985 17.1622ZM19.6562 27.3777L20.8698 28.2593L19.6562 27.3777ZM17.9268 26.885L16.4343 27.0342L17.9268 26.885ZM17.0538 18.1543L18.5463 18.005L17.0538 18.1543ZM15.4996 15.3718L16.4093 14.1792L15.4996 13.4853L14.5899 14.1792L15.4996 15.3718ZM13.9454 18.1543L12.4529 18.005L13.9454 18.1543ZM13.0724 26.885L14.5649 27.0342L13.0724 26.885ZM11.343 27.3777L10.1294 28.2593H10.1294L11.343 27.3777ZM7.1007 17.1622L8.57969 16.912L7.1007 17.1622ZM5.5751 13.8817L4.36255 14.7648H4.36255L5.5751 13.8817ZM10.6422 1.1123C7.92662 1.1123 5.66607 2.09284 4.21169 3.93549C2.77531 5.75534 2.29293 8.20303 2.6687 10.8334L5.63855 10.4091C5.3469 8.36758 5.76413 6.81079 6.56656 5.79415C7.35099 4.8003 8.66843 4.1123 10.6422 4.1123V1.1123ZM16.3712 2.95062C14.7508 1.79369 12.7735 1.1123 10.6422 1.1123V4.1123C12.1237 4.1123 13.4957 4.58378 14.628 5.39219L16.3712 2.95062ZM16.3712 5.39219C17.5035 4.58378 18.8755 4.1123 20.357 4.1123V1.1123C18.2257 1.1123 16.2484 1.79369 14.628 2.95062L16.3712 5.39219ZM20.357 4.1123C22.3308 4.1123 23.6482 4.8003 24.4326 5.79415C25.2351 6.81079 25.6523 8.36758 25.3607 10.4091L28.3305 10.8334C28.7063 8.20303 28.2239 5.75534 26.7875 3.93549C25.3331 2.09284 23.0726 1.1123 20.357 1.1123V4.1123ZM25.3607 10.4091C25.2238 11.3671 24.7394 12.2739 24.2116 12.9987L26.6367 14.7648C27.3154 13.8327 28.0975 12.4643 28.3305 10.8334L25.3607 10.4091ZM24.2116 12.9987C23.4326 14.0684 22.6777 15.3858 22.4195 16.912L25.3775 17.4124C25.5252 16.5393 25.9831 15.6622 26.6367 14.7648L24.2116 12.9987ZM22.4195 16.912C21.7477 20.8829 20.7049 23.3819 18.4426 26.4961L20.8698 28.2593C23.4141 24.7569 24.6314 21.8224 25.3775 17.4124L22.4195 16.912ZM18.4426 26.4961C18.4981 26.4197 18.5951 26.3419 18.7221 26.3015C18.8402 26.264 18.952 26.2685 19.043 26.2947C19.2312 26.3489 19.3982 26.5237 19.4194 26.7357L16.4343 27.0342C16.6513 29.2047 19.4812 30.1709 20.8698 28.2593L18.4426 26.4961ZM19.4194 26.7357L18.5463 18.005L15.5612 18.3035L16.4343 27.0342L19.4194 26.7357ZM18.5463 18.005C18.3932 16.4737 17.6086 15.0939 16.4093 14.1792L14.5899 16.5645C15.1352 16.9804 15.4916 17.6078 15.5612 18.3035L18.5463 18.005ZM15.438 18.3035C15.5076 17.6078 15.864 16.9804 16.4093 16.5645L14.5899 14.1792C13.3906 15.094 12.606 16.4737 12.4529 18.005L15.438 18.3035ZM14.5649 27.0342L15.438 18.3035L12.4529 18.005L11.5798 26.7357L14.5649 27.0342ZM10.1294 28.2593C11.518 30.1709 14.3479 29.2047 14.5649 27.0342L11.5798 26.7357C11.601 26.5237 11.768 26.3489 11.9562 26.2947C12.0472 26.2685 12.159 26.264 12.2771 26.3015C12.4041 26.3419 12.5011 26.4197 12.5566 26.4961L10.1294 28.2593ZM5.62172 17.4124C6.36782 21.8224 7.5851 24.7569 10.1294 28.2593L12.5566 26.4961C10.2943 23.3819 9.2515 20.8829 8.57969 16.912L5.62172 17.4124ZM4.36255 14.7648C5.01606 15.6622 5.47401 16.5393 5.62172 17.4124L8.57969 16.912C8.32148 15.3858 7.56662 14.0684 6.78765 12.9987L4.36255 14.7648ZM2.6687 10.8334C2.9017 12.4643 3.68379 13.8327 4.36255 14.7648L6.78765 12.9987C6.25978 12.2739 5.7754 11.3671 5.63855 10.4091L2.6687 10.8334Z" fill="#261204" mask="url(#path-1-inside-1_227_108)"/>
<path d="M9.00118 10.8672C7.44488 8.51377 9.53254 6.12321 11.8476 7.18581" stroke="white" stroke-width="1.5" stroke-linecap="round"/>
</svg>
