<svg width="31" height="30" viewBox="0 0 31 30" fill="none" xmlns="http://www.w3.org/2000/svg">
<mask id="mask0_227_172" style="mask-type:alpha" maskUnits="userSpaceOnUse" x="4" y="2" width="22" height="27">
<path d="M23.1108 9.60963L12.4529 2.34947C12.0475 2.07328 11.5016 2.13198 11.1641 2.48805L4.34956 9.67845C3.98302 10.0652 3.98456 10.6701 4.37753 11.03C6.02069 12.5347 9.12508 14.9181 11.7153 16.2052C12.3594 16.5253 12.5879 17.4198 12.2734 18.0666C11.8172 19.0051 11.534 20.2374 12.0653 21.4162C12.6756 22.7703 11.9101 25.2604 11.07 27.1956C10.738 27.9605 11.3728 28.8478 12.1962 28.717L21.2161 27.2842C21.6093 27.2218 21.9275 26.934 22.027 26.5485C22.7643 23.692 24.1401 18.3592 24.84 15.6348C25.5956 12.6935 24.4815 10.5068 23.1108 9.60963Z" fill="#FF7400"/>
</mask>
<g mask="url(#mask0_227_172)">
<path d="M23.1108 9.60963L12.4529 2.34947C12.0475 2.07328 11.5016 2.13198 11.1641 2.48805L4.34956 9.67845C3.98302 10.0652 3.98456 10.6701 4.37753 11.03C6.02069 12.5347 9.12508 14.9181 11.7153 16.2052C12.3594 16.5253 12.5879 17.4198 12.2734 18.0666C11.8172 19.0051 11.534 20.2374 12.0653 21.4162C12.6756 22.7703 11.9101 25.2604 11.07 27.1956C10.738 27.9605 11.3728 28.8478 12.1962 28.717L21.2161 27.2842C21.6093 27.2218 21.9275 26.934 22.027 26.5485C22.7643 23.692 24.1401 18.3592 24.84 15.6348C25.5956 12.6935 24.4815 10.5068 23.1108 9.60963Z" fill="#FF7400"/>
<path fill-rule="evenodd" clip-rule="evenodd" d="M14.3967 13.9533C14.6513 15.0179 15.7436 15.8326 16.8366 15.7729C17.9296 15.7133 18.6093 14.8019 18.3548 13.7373C18.3381 13.6673 18.3886 13.5986 18.4605 13.5946C19.5535 13.535 20.2332 12.6236 19.9786 11.559C19.7241 10.4944 18.6317 9.67973 17.5387 9.73936L16.9964 9.76895C16.295 9.80721 15.6025 9.59817 15.0394 9.17825L8.17274 4.05709C7.49135 3.54891 6.52701 3.68933 6.01883 4.37072C5.51065 5.05211 5.65106 6.01645 6.33246 6.52463L13.1138 11.5821C13.6768 12.002 14.0747 12.6062 14.238 13.2894L14.3967 13.9533Z" fill="white"/>
<path fill-rule="evenodd" clip-rule="evenodd" d="M15.2306 20.2212C14.7625 19.4104 15.0403 18.3736 15.8511 17.9055C16.6619 17.4374 17.6987 17.7152 18.1668 18.526C18.1995 18.5826 18.272 18.6021 18.3287 18.5694C19.1395 18.1013 20.1763 18.3791 20.6444 19.1899C21.1125 20.0008 20.8347 21.0376 20.0239 21.5057L19.7888 21.6414C19.0998 22.0392 18.597 22.6945 18.391 23.463L16.7941 29.4231C16.5863 30.1982 15.7896 30.6583 15.0144 30.4506C14.2393 30.2429 13.7792 29.4461 13.987 28.6709L15.606 22.6287C15.8119 21.8602 15.7041 21.0413 15.3063 20.3523L15.2306 20.2212Z" fill="white"/>
<path d="M22.6886 10.2295L22.6885 10.2296L22.7001 10.2371C23.7654 10.9345 24.8008 12.7732 24.1136 15.4482C23.4138 18.1721 22.0382 23.5045 21.3008 26.3611C21.2763 26.4557 21.1985 26.5276 21.0985 26.5435L12.0786 27.9763C11.9816 27.9917 11.8826 27.9554 11.8053 27.8496C11.7253 27.7402 11.709 27.6072 11.758 27.4943C12.189 26.5014 12.6108 25.3447 12.8451 24.2442C13.0719 23.1792 13.1578 22.0149 12.7491 21.108C12.3469 20.2158 12.5401 19.2334 12.9479 18.3946C13.1935 17.8895 13.2191 17.3122 13.075 16.8075C12.9305 16.3011 12.595 15.8049 12.0491 15.5336C9.54247 14.288 6.49593 11.9529 4.88404 10.4769C4.82142 10.4195 4.79565 10.2981 4.89392 10.1944L11.7085 3.00396C11.7928 2.91495 11.9293 2.90027 12.0307 2.96932L12.4529 2.34947L12.0307 2.96932L22.6886 10.2295Z" stroke="#261204" stroke-width="1.5" stroke-linecap="round"/>
<path d="M20.6005 14.8281L19.2264 16.2725C18.9615 16.5509 19.0967 17.0116 19.47 17.1028L21.2501 17.5379C21.6088 17.6255 21.9355 17.3075 21.8575 16.9466L21.4514 15.0671C21.3666 14.6747 20.8772 14.5372 20.6005 14.8281Z" fill="white"/>
</g>
</svg>
