<svg width="31" height="30" viewBox="0 0 31 30" fill="none" xmlns="http://www.w3.org/2000/svg">
<path fill-rule="evenodd" clip-rule="evenodd" d="M6.04883 15.0836C8.20227 11.5641 12.2271 9.19629 16.837 9.19629C21.4469 9.19629 25.4719 11.5642 27.6253 15.0838C25.4718 18.6032 21.4469 20.971 16.8371 20.971C12.2272 20.971 8.20224 18.6031 6.04883 15.0836Z" fill="white"/>
<path d="M6.04883 15.0836L5.40908 14.6921L5.16958 15.0836L5.40908 15.475L6.04883 15.0836ZM27.6253 15.0838L28.265 15.4752L28.5045 15.0838L28.265 14.6923L27.6253 15.0838ZM6.68857 15.475C8.70427 12.1807 12.4855 9.94629 16.837 9.94629V8.44629C11.9688 8.44629 7.70026 10.9476 5.40908 14.6921L6.68857 15.475ZM16.837 9.94629C21.1886 9.94629 24.9698 12.1808 26.9855 15.4752L28.265 14.6923C25.9739 10.9477 21.7053 8.44629 16.837 8.44629V9.94629ZM26.9855 14.6923C24.9698 17.9866 21.1886 20.221 16.8371 20.221V21.721C21.7053 21.721 25.9738 19.2197 28.265 15.4752L26.9855 14.6923ZM16.8371 20.221C12.4855 20.221 8.70426 17.9865 6.68858 14.6921L5.40908 15.475C7.70022 19.2196 11.9688 21.721 16.8371 21.721V20.221Z" fill="#261204"/>
<circle cx="16.8366" cy="15.0837" r="5.13737" fill="#FF7400" stroke="#261204" stroke-width="1.5"/>
<circle cx="16.8364" cy="15.0835" r="1.60495" stroke="#261204" stroke-width="1.5"/>
<path d="M7.40128 20.9989C7.36763 22.153 6.40472 23.0614 5.25055 23.0278C4.09637 22.9941 3.18801 22.0312 3.22165 20.877C3.22845 20.6439 3.36551 20.1732 3.65303 19.5045C3.92592 18.8699 4.29059 18.1532 4.66085 17.4723C4.93821 16.9623 5.21526 16.4786 5.45327 16.0732C5.66726 16.4918 5.91566 16.9908 6.16284 17.5161C6.49281 18.2174 6.81512 18.9541 7.05058 19.6035C7.29866 20.2879 7.40807 20.7657 7.40128 20.9989Z" fill="#FF7400" stroke="#261204" stroke-width="1.5"/>
</svg>
