<svg width="30" height="30" viewBox="0 0 30 30" fill="none" xmlns="http://www.w3.org/2000/svg">
<path d="M22.5142 21.8336L22.7207 22.3154C23.1732 23.3712 22.6454 24.5903 21.5659 24.9828L14.7635 27.4566C13.7019 27.8426 12.5356 27.2475 12.2253 26.1613C11.9864 25.3253 11.2222 24.7488 10.3527 24.7488H8.11518C6.95016 24.7488 6.03172 23.757 6.12107 22.5954L6.37156 19.3391C6.41483 18.7766 6.08775 18.2511 5.56391 18.0416C4.77524 17.7261 4.50097 16.7481 5.01062 16.0685L6.53309 14.0386C6.79276 13.6924 6.93312 13.2712 6.93309 12.8385L6.93295 10.5719C6.4441 5.19446 14.7548 0.30609 22.0875 4.7056C28.2711 8.41571 25.6724 15.4604 24.0429 17.9047L22.6884 19.9364C22.3135 20.4988 22.248 21.2124 22.5142 21.8336Z" fill="#FF7400"/>
<path d="M7.91064 16.4386C8.65736 15.9408 9.88567 15.3923 11.1181 15.3868C13.7465 15.3749 15.0457 18.4871 16.2212 20.8381V20.8381C16.6123 21.6203 17.8507 24.4231 18.6655 25.7267" stroke="white" stroke-width="1.5" stroke-linecap="round"/>
<path d="M16.2215 26.7043C14.2661 23.2823 12.3107 17.416 8.88867 19.8602" stroke="white" stroke-width="1.5" stroke-linecap="round"/>
<path d="M22.5142 21.8336L22.7207 22.3154C23.1732 23.3712 22.6454 24.5903 21.5659 24.9828L14.7635 27.4566C13.7019 27.8426 12.5356 27.2475 12.2253 26.1613C11.9864 25.3253 11.2222 24.7488 10.3527 24.7488H8.11518C6.95016 24.7488 6.03172 23.757 6.12107 22.5954L6.37156 19.3391C6.41483 18.7766 6.08775 18.2511 5.56391 18.0416C4.77524 17.7261 4.50097 16.7481 5.01062 16.0685L6.53309 14.0386C6.79276 13.6924 6.93312 13.2712 6.93309 12.8385L6.93295 10.5719C6.4441 5.19446 14.7548 0.30609 22.0875 4.7056C28.2711 8.41571 25.6724 15.4604 24.0429 17.9047L22.6884 19.9364C22.3135 20.4988 22.248 21.2124 22.5142 21.8336Z" stroke="#261204" stroke-width="1.5" stroke-linecap="round"/>
<path d="M17.6179 13.1374C17.1997 11.0614 19.8735 9.90794 21.0399 11.6708C22.5771 13.9942 20.1321 17.9064 18.1765 17.9064C17.1989 17.9064 16.7104 16.9273 17.1991 15.9496" stroke="#261204" stroke-width="1.5" stroke-linecap="round"/>
</svg>
