<svg width="30" height="30" viewBox="0 0 30 30" fill="none" xmlns="http://www.w3.org/2000/svg">
<path d="M13.0475 3.2832L14.6923 4.1416L17.2667 3.71249L18.84 5.0712H19.9126L21.9865 5.57178L22.8446 8.07467L24.9899 10.6491L24.4893 13.152L25.4905 16.0124L24.9899 18.3723L22.8446 19.9455L23.4882 21.7333L22.8446 23.6641L20.5562 24.2362L19.1975 25.8094H16.2656L14.6923 24.2362L13.0475 25.8094H10.5446L9.25749 24.2362H7.97023L6.46855 22.949V19.9455L4.32324 17.3711L4.82375 13.724V10.6491L6.82612 8.36071L7.97023 5.57178L10.5446 5.0712L13.0475 3.2832Z" fill="#FF7400"/>
<path d="M10.8139 5.36274C11.023 4.77086 11.3816 4.2534 11.8689 3.9057C12.8469 3.20788 14.0448 3.40696 14.8389 4.29644" stroke="#261204" stroke-width="1.5" stroke-linecap="round"/>
<path d="M12.1373 8.29961C12.1609 6.50937 11.0056 5.03449 9.55703 5.00537C8.10841 4.97624 6.91498 6.40391 6.89141 8.19415" stroke="#261204" stroke-width="1.5" stroke-linecap="round"/>
<path d="M6.89168 8.2996C5.44368 8.7499 4.56523 10.5656 4.9296 12.3551C5.29397 14.1446 6.76319 15.2302 8.21119 14.7799" stroke="#261204" stroke-width="1.5" stroke-linecap="round"/>
<path d="M6.76299 20.0704C5.75074 19.7696 4.87869 18.8603 4.50756 17.5563C4.08873 16.0846 4.42208 14.5114 5.25894 13.4776" stroke="#261204" stroke-width="1.5" stroke-linecap="round"/>
<path d="M9.1033 24.1517C8.018 24.6234 6.82874 23.9186 6.44703 22.5773C6.19906 21.706 6.35288 20.7805 6.78863 20.1096" stroke="#261204" stroke-width="1.5" stroke-linecap="round"/>
<path d="M9.01129 20.2577C9.70109 19.5887 10.6992 19.7373 11.2406 20.5898C11.49 20.9825 11.599 21.456 11.5766 21.9179" stroke="white" stroke-width="1.5" stroke-linecap="round"/>
<path d="M10.4786 19.898C9.71916 19.3562 9.45897 18.1561 9.89742 17.2176C10.0994 16.7853 10.4143 16.4839 10.7696 16.3375" stroke="white" stroke-width="1.5" stroke-linecap="round"/>
<path d="M9.10339 10.0112C8.81572 11.338 9.45284 12.7018 10.5264 13.0573C11.1526 13.2646 11.789 13.0832 12.2677 12.6327" stroke="white" stroke-width="1.5" stroke-linecap="round"/>
<path d="M13.6556 10.0112C14.1754 10.1828 14.6124 10.605 14.8765 11.1668" stroke="#261204" stroke-width="1.5" stroke-linecap="round"/>
<path d="M9.12675 24.1877C10.0196 26.0988 11.9969 26.7536 13.5434 25.6502C15.0898 24.5468 15.6196 22.1031 14.7268 20.192C14.2528 19.1774 13.473 18.5169 12.6144 18.2856" stroke="#261204" stroke-width="1.5" stroke-linecap="round"/>
<path d="M18.9488 5.3622C18.7397 4.77032 18.3812 4.25286 17.8938 3.90516C16.8929 3.19096 15.6616 3.41627 14.8686 4.35968" stroke="#261204" stroke-width="1.5" stroke-linecap="round"/>
<path d="M17.6254 8.29912C17.6018 6.50888 18.7571 5.034 20.2057 5.00488C21.6543 4.97576 22.8477 6.40342 22.8713 8.19366" stroke="#261204" stroke-width="1.5" stroke-linecap="round"/>
<path d="M22.871 8.29911C24.319 8.74941 25.1975 10.5651 24.8331 12.3546C24.4687 14.1441 22.9995 15.2297 21.5515 14.7794" stroke="#261204" stroke-width="1.5" stroke-linecap="round"/>
<path d="M22.9997 20.0704C24.012 19.7696 24.884 18.8603 25.2551 17.5563C25.674 16.0846 25.3406 14.5114 24.5038 13.4776" stroke="#261204" stroke-width="1.5" stroke-linecap="round"/>
<path d="M20.6589 24.1512C21.7442 24.623 22.9335 23.9181 23.3152 22.5768C23.5631 21.7055 23.4093 20.78 22.9736 20.1091" stroke="#261204" stroke-width="1.5" stroke-linecap="round"/>
<path d="M20.7509 20.2568C20.0611 19.5877 19.063 19.7363 18.5216 20.5888C18.2722 20.9815 18.1632 21.455 18.1856 21.9169" stroke="white" stroke-width="1.5" stroke-linecap="round"/>
<path d="M19.2841 19.898C20.0435 19.3562 20.3037 18.1561 19.8653 17.2176C19.6633 16.7853 19.3484 16.4839 18.9931 16.3375" stroke="white" stroke-width="1.5" stroke-linecap="round"/>
<path d="M20.6588 10.0103C20.9465 11.337 20.3094 12.7008 19.2358 13.0563C18.6096 13.2637 17.9732 13.0822 17.4945 12.6317" stroke="white" stroke-width="1.5" stroke-linecap="round"/>
<path d="M16.107 15.8584C15.5695 16.0358 15.1207 16.4812 14.8599 17.0717" stroke="#261204" stroke-width="1.5" stroke-linecap="round"/>
<path d="M20.6357 24.187C19.7429 26.0981 17.7655 26.7529 16.2191 25.6495C15.625 25.2256 15.1809 24.6037 14.9099 23.8903" stroke="#261204" stroke-width="1.5" stroke-linecap="round"/>
<path d="M14.8677 4.3125V20.6656" stroke="#261204" stroke-width="1.5"/>
</svg>
