<svg width="31" height="30" viewBox="0 0 31 30" fill="none" xmlns="http://www.w3.org/2000/svg">
<path d="M23.9688 15.2647C23.9688 17.561 22.9223 20.4666 21.1877 22.802C19.4473 25.1452 17.1433 26.7495 14.7188 26.7495C12.2942 26.7495 9.99022 25.1452 8.24977 22.802C6.51515 20.4666 5.46875 17.561 5.46875 15.2647C5.46875 10.7712 9.53508 6.99951 14.7188 6.99951C19.9024 6.99951 23.9688 10.7712 23.9688 15.2647Z" fill="#FF7400" stroke="black" stroke-width="1.5"/>
<mask id="path-2-outside-1_227_120" maskUnits="userSpaceOnUse" x="8.67383" y="1.61572" width="13" height="12" fill="black">
<rect fill="white" x="8.67383" y="1.61572" width="13" height="12"/>
<path fill-rule="evenodd" clip-rule="evenodd" d="M18.5181 6.87589C18.7243 7.28445 18.8405 7.74623 18.8405 8.23513C18.8405 9.90356 17.4879 11.2561 15.8195 11.2561C14.1511 11.2561 12.7985 9.90356 12.7985 8.23513C12.7985 7.85865 12.8674 7.49827 12.9932 7.16587L11.6738 5.77105L12.7635 4.74027L13.8791 5.91962C14.404 5.4793 15.0808 5.21416 15.8195 5.21416C16.4285 5.21416 16.9954 5.39437 17.4698 5.70437L18.1178 4.61572L19.4067 5.38291L18.5181 6.87589Z"/>
</mask>
<path fill-rule="evenodd" clip-rule="evenodd" d="M18.5181 6.87589C18.7243 7.28445 18.8405 7.74623 18.8405 8.23513C18.8405 9.90356 17.4879 11.2561 15.8195 11.2561C14.1511 11.2561 12.7985 9.90356 12.7985 8.23513C12.7985 7.85865 12.8674 7.49827 12.9932 7.16587L11.6738 5.77105L12.7635 4.74027L13.8791 5.91962C14.404 5.4793 15.0808 5.21416 15.8195 5.21416C16.4285 5.21416 16.9954 5.39437 17.4698 5.70437L18.1178 4.61572L19.4067 5.38291L18.5181 6.87589Z" fill="white"/>
<path d="M18.5181 6.87589L17.2292 6.1087L16.8079 6.81643L17.179 7.5517L18.5181 6.87589ZM12.9932 7.16587L14.3961 7.69689L14.7288 6.81788L14.0829 6.13509L12.9932 7.16587ZM11.6738 5.77105L10.643 4.68133L9.55333 5.71212L10.5841 6.80184L11.6738 5.77105ZM12.7635 4.74027L13.8533 3.70949L12.8225 2.61977L11.7328 3.65055L12.7635 4.74027ZM13.8791 5.91962L12.7894 6.9504L13.7605 7.97702L14.8431 7.06881L13.8791 5.91962ZM17.4698 5.70437L16.6493 6.96005L17.9588 7.81571L18.7588 6.47155L17.4698 5.70437ZM18.1178 4.61572L18.885 3.32676L17.596 2.55957L16.8288 3.84854L18.1178 4.61572ZM19.4067 5.38291L20.6957 6.15009L21.4629 4.86113L20.1739 4.09394L19.4067 5.38291ZM17.179 7.5517C17.2818 7.75548 17.3405 7.98629 17.3405 8.23513H20.3405C20.3405 7.50617 20.1668 6.81343 19.8573 6.20007L17.179 7.5517ZM17.3405 8.23513C17.3405 9.07514 16.6595 9.7561 15.8195 9.7561V12.7561C18.3164 12.7561 20.3405 10.732 20.3405 8.23513H17.3405ZM15.8195 9.7561C14.9795 9.7561 14.2985 9.07514 14.2985 8.23513H11.2985C11.2985 10.732 13.3226 12.7561 15.8195 12.7561V9.7561ZM14.2985 8.23513C14.2985 8.04285 14.3335 7.86222 14.3961 7.69689L11.5903 6.63485C11.4013 7.13431 11.2985 7.67445 11.2985 8.23513H14.2985ZM14.0829 6.13509L12.7635 4.74027L10.5841 6.80184L11.9035 8.19665L14.0829 6.13509ZM12.7046 6.86077L13.7943 5.82999L11.7328 3.65055L10.643 4.68133L12.7046 6.86077ZM11.6738 5.77105L12.7894 6.9504L14.9688 4.88883L13.8533 3.70949L11.6738 5.77105ZM14.8431 7.06881C15.108 6.84664 15.4463 6.71416 15.8195 6.71416V3.71416C14.7152 3.71416 13.7 4.11197 12.9151 4.77042L14.8431 7.06881ZM15.8195 6.71416C16.1283 6.71416 16.4114 6.80461 16.6493 6.96005L18.2903 4.44868C17.5794 3.98412 16.7287 3.71416 15.8195 3.71416V6.71416ZM18.7588 6.47155L19.4067 5.38291L16.8288 3.84854L16.1809 4.93718L18.7588 6.47155ZM17.3506 5.90469L18.6396 6.67187L20.1739 4.09394L18.885 3.32676L17.3506 5.90469ZM18.1178 4.61572L17.2292 6.1087L19.8071 7.64307L20.6957 6.15009L18.1178 4.61572Z" fill="black" mask="url(#path-2-outside-1_227_120)"/>
<path d="M18.1562 13.6262V14.9736C18.1562 15.8902 17.4936 16.6725 16.5895 16.8231C15.4466 17.0136 14.4062 16.1323 14.4062 14.9736V12.1797C14.4062 11.384 14.7223 10.6209 15.2849 10.0583L17.2776 8.06569C17.8402 7.50308 18.6032 7.18701 19.3989 7.18701H22.1803C22.4134 7.18701 22.6456 7.2156 22.8717 7.27213L23.8427 7.51489C24.5412 7.68951 25.0312 8.3171 25.0312 9.03709C25.0312 9.45323 24.8659 9.85232 24.5717 10.1466L24.4062 10.312C24.0061 10.7122 23.4633 10.937 22.8974 10.937H20.8455C20.3146 10.937 19.7955 11.0942 19.3538 11.3887C18.6056 11.8874 18.1562 12.7271 18.1562 13.6262Z" fill="#FF7400"/>
<path d="M13.7051 11.0604C14.4715 8.28645 17.0135 6.24951 20.0312 6.24951H24.0255C25.225 6.24951 26.1547 7.29814 26.0111 8.48905L25.846 9.85702C25.7348 10.7787 25.004 11.5027 24.0813 11.6052L20.0312 12.0552C19.5135 12.0552 19.2066 12.4462 19.0938 12.9927L18.6166 15.3787C18.5306 15.8084 18.1533 16.1177 17.7151 16.1177C17.135 16.1177 16.6999 15.587 16.8137 15.0182L17.2188 12.9927C17.5763 11.4419 18.5147 10.4272 20.0312 10.1802C21.1533 9.99755 22.6679 9.74305 23.3799 9.62302C23.6309 9.5807 23.8427 9.41466 23.9446 9.18134C24.1624 8.68276 23.7971 8.12451 23.253 8.12451H20.0312C18.2848 8.12451 16.7615 9.07956 15.955 10.4959C15.1735 11.8684 14.8762 13.5133 14.0002 14.8274L13.0753 16.2147C12.9306 16.4317 12.6871 16.562 12.4263 16.562C11.8033 16.562 11.4317 15.8677 11.7772 15.3493L12.4856 14.2868C13.1267 13.3251 13.3973 12.1744 13.7051 11.0604Z" fill="black"/>
<path d="M12.3319 21.0023C13.4991 21.35 16.1507 21.223 17.4191 17.9336" stroke="white" stroke-width="1.5" stroke-linecap="round"/>
<path d="M15.5001 23.4652C15.2811 22.1729 15.4497 21.1588 15.8086 20.3794" stroke="white" stroke-width="1.5" stroke-linecap="round"/>
</svg>
