<svg width="30" height="30" viewBox="0 0 30 30" fill="none" xmlns="http://www.w3.org/2000/svg">
<path d="M6.04107 20.2261L9.94939 18.1416C10.8081 17.6837 11.8718 17.9103 12.4693 18.6785L14.9052 21.8103L17.3411 18.6785C17.9386 17.9103 19.0023 17.6837 19.861 18.1416L23.7693 20.2261C25.0256 20.8961 25.8103 22.204 25.8103 23.6279C25.8103 26.183 23.739 28.2543 21.1839 28.2543H8.62643C6.07133 28.2543 4 26.183 4 23.6279C4 22.204 4.78475 20.8961 6.04107 20.2261Z" fill="#FF7400"/>
<path d="M11.4355 17.8447V14.8706L14.9054 16.3577L18.3752 14.8706V17.8447L14.9054 21.3146L11.4355 17.8447Z" fill="white"/>
<path d="M11.4353 16.1492V13.8794H18.375V16.1492C18.375 16.8878 18.7821 17.5663 19.4338 17.9139L23.7693 20.2262C25.0256 20.8962 25.8103 22.2041 25.8103 23.628C25.8103 26.1831 23.739 28.2544 21.1839 28.2544H8.62643C6.07133 28.2544 4 26.1831 4 23.628C4 22.2041 4.78475 20.8962 6.04107 20.2262L10.3765 17.9139C11.0282 17.5663 11.4353 16.8878 11.4353 16.1492Z" stroke="#261204" stroke-width="1.5"/>
<path d="M13.6779 0.75H16.1319C18.5989 0.75 20.5989 2.74994 20.5989 5.217V8.33122C20.5989 11.5098 18.9312 14.4553 16.2056 16.0907C16.1079 16.1493 16.0148 16.194 15.9255 16.2253C15.4855 16.3794 15.1718 16.4425 14.8847 16.4438C14.6013 16.445 14.293 16.3861 13.867 16.2246C13.7954 16.1975 13.7186 16.1593 13.6349 16.109L13.249 16.7522L13.6349 16.109C10.8903 14.4623 9.21094 11.4962 9.21094 8.29551V5.217C9.21094 2.74995 11.2109 0.75 13.6779 0.75Z" fill="white" stroke="#261204" stroke-width="1.5"/>
<path d="M11.1213 4.22929L10.6646 4.11512L10.3632 4.47676L9.24487 5.81878C9.55618 2.96823 11.9715 0.75 14.9049 0.75C17.8383 0.75 20.2536 2.96823 20.5649 5.81878L19.4466 4.47676L19.1452 4.11512L18.6885 4.22929L17.1484 4.61433C15.6754 4.98257 14.1344 4.98257 12.6614 4.61433L11.1213 4.22929Z" fill="#261204" stroke="#261204" stroke-width="1.5"/>
<circle cx="20.8534" cy="24.289" r="1.72845" stroke="#261204" stroke-width="1.5"/>
<path d="M10.9397 25.7762V25.7762C11.761 25.7762 12.4268 25.1104 12.4268 24.2892V23.7935C12.4268 22.8552 11.4563 22.0183 10.624 21.4732C9.90915 21.005 8.99616 21.005 8.28129 21.4732C7.44905 22.0183 6.47852 22.8552 6.47852 23.7935V24.2892C6.47852 25.1104 7.1443 25.7762 7.96558 25.7762V25.7762" stroke="#261204" stroke-width="1.5" stroke-linecap="round"/>
<path d="M9.45264 21.3145V18.3403" stroke="#261204" stroke-width="1.5"/>
<path d="M20.8535 22.8015V18.8359" stroke="#261204" stroke-width="1.5"/>
<path d="M14.905 28.75V21.6922M14.905 21.6922L18.8705 17.3491M14.905 21.6922L10.9395 17.3491" stroke="#261204" stroke-width="1.5"/>
</svg>
