<svg width="31" height="30" viewBox="0 0 31 30" fill="none" xmlns="http://www.w3.org/2000/svg">
<path d="M12.6179 6.70091L14.2358 6.19986C14.4275 6.14053 14.6269 6.11035 14.8275 6.11035H16.7267C16.9481 6.11035 17.1681 6.14713 17.3774 6.21918L18.6394 6.65342C19.2417 6.86069 19.7093 7.34249 19.8984 7.95077L20.365 9.45118C20.5063 9.90573 20.4809 10.3958 20.2933 10.8333L19.5976 12.4555L18.8332 14.8384C18.7337 15.1486 18.7114 15.4784 18.7684 15.7992L19.1819 18.1263C19.2237 18.3616 19.2155 18.6031 19.158 18.8351L18.5108 21.4428C18.3402 22.13 17.401 22.222 17.1005 21.5809C17.0744 21.5252 17.0415 21.473 17.0027 21.4253L16.7238 21.0828C16.1585 20.3886 15.0637 20.5161 14.673 21.3215C14.1763 22.3454 12.6735 22.1969 12.3868 21.0957L11.8281 18.95C11.7482 18.6432 11.7424 18.3219 11.8111 18.0124L12.2944 15.8362C12.3709 15.492 12.355 15.1338 12.2484 14.7977L11.7066 13.09L10.7684 10.9189C10.5572 10.4302 10.5496 9.87751 10.7472 9.38319L11.3524 7.86904C11.5764 7.30868 12.0415 6.87942 12.6179 6.70091Z" fill="#FF7400"/>
<path d="M15.3709 15.0727L13.6797 9.2832H17.5549L15.3709 15.0727Z" fill="white"/>
<path d="M15.4473 8.96364H17.5694L26.1872 6.85251C27.5334 6.52273 29.1826 6.89176 29.3316 8.26972C29.4439 9.30887 28.9823 10.5592 27.175 11.7298" stroke="#261204" stroke-width="1.5" stroke-linecap="round"/>
<path d="M15.5537 8.96364H13.4316L4.81378 6.85251C3.4676 6.52273 1.81834 6.89176 1.66938 8.26972C1.55704 9.30887 2.01869 10.5592 3.82602 11.7298" stroke="#261204" stroke-width="1.5" stroke-linecap="round"/>
<path d="M26.9417 11.9523C27.0642 12.5782 26.5149 13.5299 25.2796 13.8365C24.0444 14.1431 23.1904 13.5397 23.0679 12.9138C22.9453 12.288 23.4946 11.3363 24.7299 11.0297C25.9651 10.7231 26.8191 11.3265 26.9417 11.9523Z" fill="#FF7400" stroke="#261204" stroke-width="1.5"/>
<path d="M4.05932 11.9523C3.93675 12.5782 4.48609 13.5299 5.72134 13.8365C6.9566 14.1431 7.81055 13.5397 7.93313 12.9138C8.0557 12.288 7.50636 11.3363 6.27111 11.0297C5.03585 10.7231 4.1819 11.3265 4.05932 11.9523Z" fill="#FF7400" stroke="#261204" stroke-width="1.5"/>
<path d="M20.5521 11.8373L21.1512 12.2885L20.5521 11.8373ZM19.4223 13.337L18.8233 12.8857L19.4223 13.337ZM19.6041 19.291L18.8943 19.0488L19.6041 19.291ZM16.6119 25.7354C16.4781 26.1274 16.6874 26.5536 17.0794 26.6874C17.4714 26.8212 17.8977 26.6119 18.0315 26.2199L16.6119 25.7354ZM19.2918 16.6876L19.9241 16.2843L19.2918 16.6876ZM21.0514 10.5572L21.7978 10.6307V10.6307L21.0514 10.5572ZM19.9531 11.386L18.8233 12.8857L20.0214 13.7883L21.1512 12.2885L19.9531 11.386ZM18.8943 19.0488L16.6119 25.7354L18.0315 26.2199L20.3139 19.5333L18.8943 19.0488ZM14.5 6.75H16.9208V5.25H14.5V6.75ZM18.6594 17.0909C19.0313 17.6739 19.1177 18.3944 18.8943 19.0488L20.3139 19.5333C20.6846 18.4474 20.5411 17.2518 19.9241 16.2843L18.6594 17.0909ZM18.8233 12.8857C17.8966 14.1159 17.8312 15.7923 18.6594 17.0909L19.9241 16.2843C19.4325 15.5135 19.4713 14.5185 20.0214 13.7883L18.8233 12.8857ZM20.305 10.4837C20.2728 10.8111 20.151 11.1233 19.9531 11.386L21.1512 12.2885C21.5149 11.8058 21.7386 11.2322 21.7978 10.6307L20.305 10.4837ZM21.7978 10.6307C22.0815 7.74834 19.817 5.25 16.9208 5.25V6.75C18.9305 6.75 20.5019 8.48363 20.305 10.4837L21.7978 10.6307Z" fill="#261204"/>
<path d="M13.8561 26.0639L11.4241 19.2997C11.1099 18.4259 11.2183 17.4557 11.7177 16.6728V16.6728C12.3719 15.647 12.3203 14.3228 11.5882 13.351L10.4479 11.8373C10.1671 11.4645 9.99433 11.0216 9.94861 10.5572V10.5572C9.7083 8.11598 11.6262 6 14.0792 6H16.5" stroke="#261204" stroke-width="1.5"/>
<path d="M17.2906 25.9998V22.7034C17.2906 21.8754 17.0252 21.0693 16.5333 20.4033L16.4937 20.3496C16.0294 19.721 15.0893 19.721 14.625 20.3496L14.5854 20.4033C14.0935 21.0693 13.8281 21.8754 13.8281 22.7034V25.9998" stroke="#261204" stroke-width="1.5" stroke-linecap="round"/>
<path d="M17.625 9.0892L17.151 10.2565C16.8739 10.9387 16.7315 11.6681 16.7315 12.4045L16.7315 12.5987C16.7315 13.1739 16.5461 13.7338 16.2028 14.1954V14.1954C15.8818 14.627 15.2355 14.627 14.9146 14.1954V14.1954C14.5713 13.7338 14.3859 13.1739 14.3859 12.5987L14.3859 12.4637C14.3859 11.69 14.2195 10.9253 13.898 10.2215L13.3807 9.0892" stroke="#261204" stroke-width="1.5" stroke-linecap="round"/>
<path d="M15.5586 14.6221V19.4628" stroke="#261204" stroke-width="1.5" stroke-linecap="round"/>
</svg>
